<?xml version="1.0" encoding="UTF-8"?>
<svg width="1500px" height="600px" viewBox="0 0 1500 600" version="1.1" xmlns="http://www.w3.org/2000/svg" xmlns:xlink="http://www.w3.org/1999/xlink">
    <defs>  
        <linearGradient id="logo-gradient" x1="50%" y1="0%" x2="50%" y2="100%" > 
            <stop offset="0%" stop-color="#00c6ff">
                <animate attributeName="stop-color" values="#00c6ff; #0066ff; #00c6ff" dur="4s" repeatCount="indefinite"></animate>
            </stop>

            <stop offset="100%" stop-color="#0066ff">
                <animate attributeName="stop-color" values="#0066ff; #00c6ff; #0066ff" dur="4s" repeatCount="indefinite"></animate>
            </stop>
        </linearGradient> 
    </defs>

    <g id="Page-1" stroke="none" stroke-width="1" fill="none" fill-rule="evenodd">
        <rect fill="url('#logo-gradient')" x="0" y="0" width="1500" height="600"></rect>
        <g id="Group" transform="translate(369.000000, 105.000000)" fill="#F7F7F7">
            <path d="M93.72,366.88 L93.84,366.88 L93.84,330.88 L98.16,330.88 L98.16,373.36 L92.76,373.36 L67.44,337 L67.32,337 L67.32,373.36 L63,373.36 L63,330.88 L68.4,330.88 L93.72,366.88 Z M132.3,359.32 C132.3,357.759992 132.050003,356.300007 131.55,354.94 C131.049998,353.579993 130.340005,352.400005 129.42,351.4 C128.499995,350.399995 127.390007,349.610003 126.09,349.03 C124.789994,348.449997 123.320008,348.16 121.68,348.16 C120.039992,348.16 118.570007,348.449997 117.27,349.03 C115.969994,349.610003 114.870005,350.399995 113.97,351.4 C113.069996,352.400005 112.370002,353.579993 111.87,354.94 C111.369998,356.300007 111.12,357.759992 111.12,359.32 C111.12,360.880008 111.369998,362.339993 111.87,363.7 C112.370002,365.060007 113.069996,366.239995 113.97,367.24 C114.870005,368.240005 115.969994,369.029997 117.27,369.61 C118.570007,370.190003 120.039992,370.48 121.68,370.48 C123.320008,370.48 124.789994,370.190003 126.09,369.61 C127.390007,369.029997 128.499995,368.240005 129.42,367.24 C130.340005,366.239995 131.049998,365.060007 131.55,363.7 C132.050003,362.339993 132.3,360.880008 132.3,359.32 Z M136.62,359.32 C136.62,361.440011 136.250004,363.399991 135.51,365.2 C134.769996,367.000009 133.740007,368.559993 132.42,369.88 C131.099993,371.200007 129.530009,372.229996 127.71,372.97 C125.889991,373.710004 123.880011,374.08 121.68,374.08 C119.519989,374.08 117.530009,373.710004 115.71,372.97 C113.889991,372.229996 112.320007,371.200007 111,369.88 C109.679993,368.559993 108.650004,367.000009 107.91,365.2 C107.169996,363.399991 106.8,361.440011 106.8,359.32 C106.8,357.199989 107.169996,355.240009 107.91,353.44 C108.650004,351.639991 109.679993,350.080007 111,348.76 C112.320007,347.439993 113.889991,346.410004 115.71,345.67 C117.530009,344.929996 119.519989,344.56 121.68,344.56 C123.880011,344.56 125.889991,344.929996 127.71,345.67 C129.530009,346.410004 131.099993,347.439993 132.42,348.76 C133.740007,350.080007 134.769996,351.639991 135.51,353.44 C136.250004,355.240009 136.62,357.199989 136.62,359.32 Z M146.22,359.32 C146.22,360.880008 146.469997,362.339993 146.97,363.7 C147.470002,365.060007 148.179995,366.239995 149.1,367.24 C150.020005,368.240005 151.129993,369.029997 152.43,369.61 C153.730007,370.190003 155.199992,370.48 156.84,370.48 C158.440008,370.48 159.929993,370.190003 161.31,369.61 C162.690007,369.029997 163.879995,368.240005 164.88,367.24 C165.880005,366.239995 166.659997,365.060007 167.22,363.7 C167.780003,362.339993 168.06,360.880008 168.06,359.32 C168.06,357.759992 167.780003,356.300007 167.22,354.94 C166.659997,353.579993 165.880005,352.400005 164.88,351.4 C163.879995,350.399995 162.690007,349.610003 161.31,349.03 C159.929993,348.449997 158.440008,348.16 156.84,348.16 C155.199992,348.16 153.730007,348.449997 152.43,349.03 C151.129993,349.610003 150.020005,350.399995 149.1,351.4 C148.179995,352.400005 147.470002,353.579993 146.97,354.94 C146.469997,356.300007 146.22,357.759992 146.22,359.32 Z M171.84,373.36 L167.88,373.36 L167.88,368.68 L167.76,368.68 C167.119997,369.640005 166.360004,370.459997 165.48,371.14 C164.599996,371.820003 163.680005,372.379998 162.72,372.82 C161.759995,373.260002 160.770005,373.579999 159.75,373.78 C158.729995,373.980001 157.760005,374.08 156.84,374.08 C154.639989,374.08 152.630009,373.710004 150.81,372.97 C148.989991,372.229996 147.420007,371.200007 146.1,369.88 C144.779993,368.559993 143.750004,367.000009 143.01,365.2 C142.269996,363.399991 141.9,361.440011 141.9,359.32 C141.9,357.199989 142.269996,355.240009 143.01,353.44 C143.750004,351.639991 144.779993,350.080007 146.1,348.76 C147.420007,347.439993 148.989991,346.410004 150.81,345.67 C152.630009,344.929996 154.639989,344.56 156.84,344.56 C157.760005,344.56 158.729995,344.659999 159.75,344.86 C160.770005,345.060001 161.759995,345.379998 162.72,345.82 C163.680005,346.260002 164.599996,346.819997 165.48,347.5 C166.360004,348.180003 167.119997,348.999995 167.76,349.96 L167.88,349.96 L167.88,328 L171.84,328 L171.84,373.36 Z M202.32,357.16 C202.32,354.479987 201.520008,352.310008 199.92,350.65 C198.319992,348.989992 196.080014,348.16 193.2,348.16 C191.919994,348.16 190.680006,348.409998 189.48,348.91 C188.279994,349.410003 187.230005,350.079996 186.33,350.92 C185.429995,351.760004 184.710003,352.719995 184.17,353.8 C183.629997,354.880005 183.36,355.999994 183.36,357.16 L202.32,357.16 Z M183.24,360.4 C183.360001,361.800007 183.699997,363.119994 184.26,364.36 C184.820003,365.600006 185.559995,366.669996 186.48,367.57 C187.400005,368.470005 188.459994,369.179997 189.66,369.7 C190.860006,370.220003 192.159993,370.48 193.56,370.48 C195.680011,370.48 197.509992,369.990005 199.05,369.01 C200.590008,368.029995 201.759996,366.900006 202.56,365.62 L205.62,368.14 C203.939992,370.260011 202.09001,371.779995 200.07,372.7 C198.04999,373.620005 195.880012,374.08 193.56,374.08 C191.47999,374.08 189.550009,373.710004 187.77,372.97 C185.989991,372.229996 184.460006,371.200007 183.18,369.88 C181.899994,368.559993 180.890004,367.000009 180.15,365.2 C179.409996,363.399991 179.04,361.440011 179.04,359.32 C179.04,357.199989 179.399996,355.240009 180.12,353.44 C180.840004,351.639991 181.839994,350.080007 183.12,348.76 C184.400006,347.439993 185.899991,346.410004 187.62,345.67 C189.340009,344.929996 191.19999,344.56 193.2,344.56 C195.320011,344.56 197.219992,344.939996 198.9,345.7 C200.580008,346.460004 201.989994,347.469994 203.13,348.73 C204.270006,349.990006 205.139997,351.469991 205.74,353.17 C206.340003,354.870009 206.64,356.67999 206.64,358.6 L206.64,360.4 L183.24,360.4 Z M221.1,370.48 C221.1,371.320004 220.800003,372.069997 220.2,372.73 C219.599997,373.390003 218.820005,373.72 217.86,373.72 C216.899995,373.72 216.120003,373.390003 215.52,372.73 C214.919997,372.069997 214.62,371.320004 214.62,370.48 C214.62,369.639996 214.919997,368.890003 215.52,368.23 C216.120003,367.569997 216.899995,367.24 217.86,367.24 C218.820005,367.24 219.599997,367.569997 220.2,368.23 C220.800003,368.890003 221.1,369.639996 221.1,370.48 Z M236.28,334.48 C236.28,335.320004 235.980003,336.009997 235.38,336.55 C234.779997,337.090003 234.120004,337.36 233.4,337.36 C232.679996,337.36 232.020003,337.090003 231.42,336.55 C230.819997,336.009997 230.52,335.320004 230.52,334.48 C230.52,333.639996 230.819997,332.950003 231.42,332.41 C232.020003,331.869997 232.679996,331.6 233.4,331.6 C234.120004,331.6 234.779997,331.869997 235.38,332.41 C235.980003,332.950003 236.28,333.639996 236.28,334.48 Z M224.88,383.74 L225.06,383.8 C225.380002,383.88 225.729998,383.96 226.11,384.04 C226.490002,384.12 226.839998,384.16 227.16,384.16 C228.120005,384.16 228.889997,383.980002 229.47,383.62 C230.050003,383.259998 230.479999,382.790003 230.76,382.21 C231.040001,381.629997 231.22,381.000003 231.3,380.32 C231.38,379.639997 231.42,378.960003 231.42,378.28 L231.42,345.28 L235.38,345.28 L235.38,378.94 C235.38,379.340002 235.36,380.029995 235.32,381.01 C235.28,381.990005 235.030002,382.979995 234.57,383.98 C234.109998,384.980005 233.330005,385.859996 232.23,386.62 C231.129994,387.380004 229.54001,387.76 227.46,387.76 C226.339994,387.76 225.300005,387.560002 224.34,387.16 L224.88,383.74 Z M259.8,351.94 C259.199997,350.779994 258.400005,349.860003 257.4,349.18 C256.399995,348.499997 255.180007,348.16 253.74,348.16 C253.059997,348.16 252.370004,348.239999 251.67,348.4 C250.969996,348.560001 250.340003,348.809998 249.78,349.15 C249.219997,349.490002 248.770002,349.919997 248.43,350.44 C248.089998,350.960003 247.92,351.599996 247.92,352.36 C247.92,353.680007 248.379995,354.639997 249.3,355.24 C250.220005,355.840003 251.599991,356.359998 253.44,356.8 L257.46,357.76 C259.42001,358.200002 261.049994,359.089993 262.35,360.43 C263.650007,361.770007 264.3,363.43999 264.3,365.44 C264.3,366.960008 263.990003,368.269995 263.37,369.37 C262.749997,370.470006 261.930005,371.369997 260.91,372.07 C259.889995,372.770003 258.720007,373.279998 257.4,373.6 C256.079993,373.920002 254.740007,374.08 253.38,374.08 C251.219989,374.08 249.210009,373.670004 247.35,372.85 C245.489991,372.029996 243.900007,370.62001 242.58,368.62 L246,366.28 C246.800004,367.560006 247.809994,368.579996 249.03,369.34 C250.250006,370.100004 251.699992,370.48 253.38,370.48 C254.180004,370.48 254.979996,370.390001 255.78,370.21 C256.580004,370.029999 257.289997,369.750002 257.91,369.37 C258.530003,368.989998 259.029998,368.500003 259.41,367.9 C259.790002,367.299997 259.98,366.600004 259.98,365.8 C259.98,364.399993 259.460005,363.390003 258.42,362.77 C257.379995,362.149997 256.120007,361.660002 254.64,361.3 L250.8,360.4 C250.319998,360.279999 249.670004,360.080001 248.85,359.8 C248.029996,359.519999 247.230004,359.100003 246.45,358.54 C245.669996,357.979997 245.000003,357.250005 244.44,356.35 C243.879997,355.449995 243.6,354.340007 243.6,353.02 C243.6,351.579993 243.889997,350.320005 244.47,349.24 C245.050003,348.159995 245.829995,347.280003 246.81,346.6 C247.790005,345.919997 248.899994,345.410002 250.14,345.07 C251.380006,344.729998 252.659993,344.56 253.98,344.56 C255.94001,344.56 257.759992,344.939996 259.44,345.7 C261.120008,346.460004 262.419995,347.759991 263.34,349.6 L259.8,351.94 Z M269.94,374.44 L266.46,373.3 L284.64,329.8 L288.06,331 L269.94,374.44 Z M298.44,349.66 L305.4,349.66 C307.32001,349.66 308.949993,349.460002 310.29,349.06 C311.630007,348.659998 312.699996,348.130003 313.5,347.47 C314.300004,346.809997 314.879998,346.030005 315.24,345.13 C315.600002,344.229996 315.78,343.260005 315.78,342.22 C315.78,341.219995 315.600002,340.270005 315.24,339.37 C314.879998,338.469996 314.300004,337.680003 313.5,337 C312.699996,336.319997 311.630007,335.790002 310.29,335.41 C308.949993,335.029998 307.32001,334.84 305.4,334.84 L298.44,334.84 L298.44,349.66 Z M294.12,330.88 L306.48,330.88 C310.800022,330.88 314.209988,331.819991 316.71,333.7 C319.210013,335.580009 320.46,338.419981 320.46,342.22 C320.46,346.020019 319.210013,348.869991 316.71,350.77 C314.209988,352.67001 310.800022,353.62 306.48,353.62 L298.44,353.62 L298.44,373.36 L294.12,373.36 L294.12,330.88 Z M328.56,330.88 L332.88,330.88 L332.88,349.3 L356.04,349.3 L356.04,330.88 L360.36,330.88 L360.36,373.36 L356.04,373.36 L356.04,353.26 L332.88,353.26 L332.88,373.36 L328.56,373.36 L328.56,330.88 Z M376.2,349.66 L383.16,349.66 C385.08001,349.66 386.709993,349.460002 388.05,349.06 C389.390007,348.659998 390.459996,348.130003 391.26,347.47 C392.060004,346.809997 392.639998,346.030005 393,345.13 C393.360002,344.229996 393.54,343.260005 393.54,342.22 C393.54,341.219995 393.360002,340.270005 393,339.37 C392.639998,338.469996 392.060004,337.680003 391.26,337 C390.459996,336.319997 389.390007,335.790002 388.05,335.41 C386.709993,335.029998 385.08001,334.84 383.16,334.84 L376.2,334.84 L376.2,349.66 Z M371.88,330.88 L384.24,330.88 C388.560022,330.88 391.969988,331.819991 394.47,333.7 C396.970012,335.580009 398.22,338.419981 398.22,342.22 C398.22,346.020019 396.970012,348.869991 394.47,350.77 C391.969988,352.67001 388.560022,353.62 384.24,353.62 L376.2,353.62 L376.2,373.36 L371.88,373.36 L371.88,330.88 Z M426.72,369.4 L435.12,369.4 C438.360016,369.4 441.169988,368.910005 443.55,367.93 C445.930012,366.949995 447.909992,365.650008 449.49,364.03 C451.070008,362.409992 452.239996,360.57001 453,358.51 C453.760004,356.44999 454.14,354.320011 454.14,352.12 C454.14,349.919989 453.760004,347.79001 453,345.73 C452.239996,343.66999 451.070008,341.830008 449.49,340.21 C447.909992,338.589992 445.930012,337.290005 443.55,336.31 C441.169988,335.329995 438.360016,334.84 435.12,334.84 L426.72,334.84 L426.72,369.4 Z M422.4,330.88 L436.5,330.88 C439.140013,330.88 441.789987,331.319996 444.45,332.2 C447.110013,333.080004 449.509989,334.409991 451.65,336.19 C453.790011,337.970009 455.519993,340.189987 456.84,342.85 C458.160007,345.510013 458.82,348.599982 458.82,352.12 C458.82,355.680018 458.160007,358.779987 456.84,361.42 C455.519993,364.060013 453.790011,366.269991 451.65,368.05 C449.509989,369.830009 447.110013,371.159996 444.45,372.04 C441.789987,372.920004 439.140013,373.36 436.5,373.36 L422.4,373.36 L422.4,330.88 Z M487.86,357.16 C487.86,354.479987 487.060008,352.310008 485.46,350.65 C483.859992,348.989992 481.620014,348.16 478.74,348.16 C477.459994,348.16 476.220006,348.409998 475.02,348.91 C473.819994,349.410003 472.770004,350.079996 471.87,350.92 C470.969995,351.760004 470.250003,352.719995 469.71,353.8 C469.169997,354.880005 468.9,355.999994 468.9,357.16 L487.86,357.16 Z M468.78,360.4 C468.900001,361.800007 469.239997,363.119994 469.8,364.36 C470.360003,365.600006 471.099995,366.669996 472.02,367.57 C472.940005,368.470005 473.999994,369.179997 475.2,369.7 C476.400006,370.220003 477.699993,370.48 479.1,370.48 C481.220011,370.48 483.049992,369.990005 484.59,369.01 C486.130008,368.029995 487.299996,366.900006 488.1,365.62 L491.16,368.14 C489.479992,370.260011 487.63001,371.779995 485.61,372.7 C483.58999,373.620005 481.420012,374.08 479.1,374.08 C477.01999,374.08 475.090009,373.710004 473.31,372.97 C471.529991,372.229996 470.000006,371.200007 468.72,369.88 C467.439994,368.559993 466.430004,367.000009 465.69,365.2 C464.949996,363.399991 464.58,361.440011 464.58,359.32 C464.58,357.199989 464.939996,355.240009 465.66,353.44 C466.380004,351.639991 467.379994,350.080007 468.66,348.76 C469.940006,347.439993 471.439991,346.410004 473.16,345.67 C474.880009,344.929996 476.73999,344.56 478.74,344.56 C480.860011,344.56 482.759992,344.939996 484.44,345.7 C486.120008,346.460004 487.529994,347.469994 488.67,348.73 C489.810006,349.990006 490.679997,351.469991 491.28,353.17 C491.880003,354.870009 492.18,356.67999 492.18,358.6 L492.18,360.4 L468.78,360.4 Z M511.74,373.36 L507.3,373.36 L495.9,345.28 L500.64,345.28 L509.58,368.92 L509.7,368.92 L518.64,345.28 L523.14,345.28 L511.74,373.36 Z M550.14,357.16 C550.14,354.479987 549.340008,352.310008 547.74,350.65 C546.139992,348.989992 543.900014,348.16 541.02,348.16 C539.739994,348.16 538.500006,348.409998 537.3,348.91 C536.099994,349.410003 535.050005,350.079996 534.15,350.92 C533.249996,351.760004 532.530003,352.719995 531.99,353.8 C531.449997,354.880005 531.18,355.999994 531.18,357.16 L550.14,357.16 Z M531.06,360.4 C531.180001,361.800007 531.519997,363.119994 532.08,364.36 C532.640003,365.600006 533.379995,366.669996 534.3,367.57 C535.220005,368.470005 536.279994,369.179997 537.48,369.7 C538.680006,370.220003 539.979993,370.48 541.38,370.48 C543.500011,370.48 545.329992,369.990005 546.87,369.01 C548.410008,368.029995 549.579996,366.900006 550.38,365.62 L553.44,368.14 C551.759992,370.260011 549.91001,371.779995 547.89,372.7 C545.86999,373.620005 543.700012,374.08 541.38,374.08 C539.29999,374.08 537.370009,373.710004 535.59,372.97 C533.809991,372.229996 532.280006,371.200007 531,369.88 C529.719994,368.559993 528.710004,367.000009 527.97,365.2 C527.229996,363.399991 526.86,361.440011 526.86,359.32 C526.86,357.199989 527.219996,355.240009 527.94,353.44 C528.660004,351.639991 529.659994,350.080007 530.94,348.76 C532.220006,347.439993 533.719991,346.410004 535.44,345.67 C537.160009,344.929996 539.01999,344.56 541.02,344.56 C543.140011,344.56 545.039992,344.939996 546.72,345.7 C548.400008,346.460004 549.809994,347.469994 550.95,348.73 C552.090006,349.990006 552.959997,351.469991 553.56,353.17 C554.160003,354.870009 554.46,356.67999 554.46,358.6 L554.46,360.4 L531.06,360.4 Z M566.52,373.36 L562.56,373.36 L562.56,328 L566.52,328 L566.52,373.36 Z M600.12,359.32 C600.12,357.759992 599.870003,356.300007 599.37,354.94 C598.869997,353.579993 598.160005,352.400005 597.24,351.4 C596.319995,350.399995 595.210006,349.610003 593.91,349.03 C592.609993,348.449997 591.140008,348.16 589.5,348.16 C587.859992,348.16 586.390007,348.449997 585.09,349.03 C583.789994,349.610003 582.690004,350.399995 581.79,351.4 C580.889995,352.400005 580.190002,353.579993 579.69,354.94 C579.189998,356.300007 578.94,357.759992 578.94,359.32 C578.94,360.880008 579.189998,362.339993 579.69,363.7 C580.190002,365.060007 580.889995,366.239995 581.79,367.24 C582.690004,368.240005 583.789994,369.029997 585.09,369.61 C586.390007,370.190003 587.859992,370.48 589.5,370.48 C591.140008,370.48 592.609993,370.190003 593.91,369.61 C595.210006,369.029997 596.319995,368.240005 597.24,367.24 C598.160005,366.239995 598.869997,365.060007 599.37,363.7 C599.870003,362.339993 600.12,360.880008 600.12,359.32 Z M604.44,359.32 C604.44,361.440011 604.070004,363.399991 603.33,365.2 C602.589996,367.000009 601.560007,368.559993 600.24,369.88 C598.919993,371.200007 597.350009,372.229996 595.53,372.97 C593.709991,373.710004 591.700011,374.08 589.5,374.08 C587.339989,374.08 585.350009,373.710004 583.53,372.97 C581.709991,372.229996 580.140007,371.200007 578.82,369.88 C577.499993,368.559993 576.470004,367.000009 575.73,365.2 C574.989996,363.399991 574.62,361.440011 574.62,359.32 C574.62,357.199989 574.989996,355.240009 575.73,353.44 C576.470004,351.639991 577.499993,350.080007 578.82,348.76 C580.140007,347.439993 581.709991,346.410004 583.53,345.67 C585.350009,344.929996 587.339989,344.56 589.5,344.56 C591.700011,344.56 593.709991,344.929996 595.53,345.67 C597.350009,346.410004 598.919993,347.439993 600.24,348.76 C601.560007,350.080007 602.589996,351.639991 603.33,353.44 C604.070004,355.240009 604.44,357.199989 604.44,359.32 Z M637.26,359.32 C637.26,357.759992 637.010002,356.300007 636.51,354.94 C636.009997,353.579993 635.300005,352.400005 634.38,351.4 C633.459995,350.399995 632.350007,349.610003 631.05,349.03 C629.749994,348.449997 628.280008,348.16 626.64,348.16 C624.999992,348.16 623.500007,348.449997 622.14,349.03 C620.779993,349.610003 619.600005,350.399995 618.6,351.4 C617.599995,352.400005 616.820003,353.579993 616.26,354.94 C615.699997,356.300007 615.42,357.759992 615.42,359.32 C615.42,360.880008 615.699997,362.339993 616.26,363.7 C616.820003,365.060007 617.599995,366.239995 618.6,367.24 C619.600005,368.240005 620.779993,369.029997 622.14,369.61 C623.500007,370.190003 624.999992,370.48 626.64,370.48 C628.280008,370.48 629.749994,370.190003 631.05,369.61 C632.350007,369.029997 633.459995,368.240005 634.38,367.24 C635.300005,366.239995 636.009997,365.060007 636.51,363.7 C637.010002,362.339993 637.26,360.880008 637.26,359.32 Z M611.64,345.28 L615.6,345.28 L615.6,349.96 L615.72,349.96 C616.360003,348.999995 617.119996,348.180003 618,347.5 C618.880004,346.819997 619.799995,346.260002 620.76,345.82 C621.720005,345.379998 622.709995,345.060001 623.73,344.86 C624.750005,344.659999 625.719995,344.56 626.64,344.56 C628.840011,344.56 630.849991,344.929996 632.67,345.67 C634.490009,346.410004 636.059993,347.439993 637.38,348.76 C638.700007,350.080007 639.729996,351.639991 640.47,353.44 C641.210004,355.240009 641.58,357.199989 641.58,359.32 C641.58,361.440011 641.210004,363.399991 640.47,365.2 C639.729996,367.000009 638.700007,368.559993 637.38,369.88 C636.059993,371.200007 634.490009,372.229996 632.67,372.97 C630.849991,373.710004 628.840011,374.08 626.64,374.08 C625.719995,374.08 624.750005,373.980001 623.73,373.78 C622.709995,373.579999 621.720005,373.260002 620.76,372.82 C619.799995,372.379998 618.880004,371.820003 618,371.14 C617.119996,370.459997 616.360003,369.640005 615.72,368.68 L615.6,368.68 L615.6,390.64 L611.64,390.64 L611.64,345.28 Z M670.14,357.16 C670.14,354.479987 669.340008,352.310008 667.74,350.65 C666.139992,348.989992 663.900014,348.16 661.02,348.16 C659.739994,348.16 658.500006,348.409998 657.3,348.91 C656.099994,349.410003 655.050005,350.079996 654.15,350.92 C653.249996,351.760004 652.530003,352.719995 651.99,353.8 C651.449997,354.880005 651.18,355.999994 651.18,357.16 L670.14,357.16 Z M651.06,360.4 C651.180001,361.800007 651.519997,363.119994 652.08,364.36 C652.640003,365.600006 653.379995,366.669996 654.3,367.57 C655.220005,368.470005 656.279994,369.179997 657.48,369.7 C658.680006,370.220003 659.979993,370.48 661.38,370.48 C663.500011,370.48 665.329992,369.990005 666.87,369.01 C668.410008,368.029995 669.579996,366.900006 670.38,365.62 L673.44,368.14 C671.759992,370.260011 669.91001,371.779995 667.89,372.7 C665.86999,373.620005 663.700012,374.08 661.38,374.08 C659.29999,374.08 657.370009,373.710004 655.59,372.97 C653.809991,372.229996 652.280006,371.200007 651,369.88 C649.719994,368.559993 648.710004,367.000009 647.97,365.2 C647.229996,363.399991 646.86,361.440011 646.86,359.32 C646.86,357.199989 647.219996,355.240009 647.94,353.44 C648.660004,351.639991 649.659994,350.080007 650.94,348.76 C652.220006,347.439993 653.719991,346.410004 655.44,345.67 C657.160009,344.929996 659.01999,344.56 661.02,344.56 C663.140011,344.56 665.039992,344.939996 666.72,345.7 C668.400008,346.460004 669.809994,347.469994 670.95,348.73 C672.090006,349.990006 672.959997,351.469991 673.56,353.17 C674.160003,354.870009 674.46,356.67999 674.46,358.6 L674.46,360.4 L651.06,360.4 Z M682.08,354.04 C682.08,352.799994 682.05,351.540006 681.99,350.26 C681.93,348.979994 681.88,347.32001 681.84,345.28 L685.74,345.28 L685.74,350.5 L685.86,350.5 C686.140001,349.739996 686.539997,349.010004 687.06,348.31 C687.580003,347.609996 688.209996,346.980003 688.95,346.42 C689.690004,345.859997 690.549995,345.410002 691.53,345.07 C692.510005,344.729998 693.619994,344.56 694.86,344.56 C695.980006,344.56 696.959996,344.679999 697.8,344.92 L697.02,348.82 C696.499997,348.619999 695.740005,348.52 694.74,348.52 C693.219992,348.52 691.920005,348.809997 690.84,349.39 C689.759995,349.970003 688.860004,350.709995 688.14,351.61 C687.419996,352.510005 686.890002,353.479995 686.55,354.52 C686.209998,355.560005 686.04,356.559995 686.04,357.52 L686.04,373.36 L682.08,373.36 L682.08,354.04 Z" id="Node.js/PHP-Develope"></path>
            <path d="M644.817173,135.595063 L645.71,133.154669 C646.403337,131.421327 647.11833,129.688011 647.855,127.954669 C648.59167,126.221327 649.393329,124.488011 650.26,122.754669 C650.693335,121.887998 651.104998,121.043007 651.495,120.219669 C651.885002,119.396332 652.296665,118.55134 652.73,117.684669 C653.163336,116.731331 653.639997,115.843007 654.16,115.019669 C654.680003,114.196332 655.199997,113.35134 655.72,112.484669 C655.980001,112.051334 656.239999,111.639671 656.5,111.249669 C656.760001,110.859667 657.063332,110.448005 657.41,110.014669 L659.36,107.414669 C659.793336,106.981334 660.226664,106.569671 660.66,106.179669 C661.093335,105.789667 661.61333,105.378005 662.22,104.944669 C662.566668,104.771335 662.913332,104.576337 663.26,104.359669 C663.606668,104.143001 663.996665,103.948003 664.43,103.774669 L665.86,103.384669 C666.033334,103.298002 666.336664,103.254669 666.77,103.254669 L667.55,103.254669 C668.763339,103.168002 669.824995,103.471332 670.735,104.164669 C671.645005,104.858006 672.316665,105.767997 672.75,106.894669 L676.39,97.5346691 C677.603339,94.4146535 678.773328,91.2513518 679.9,88.0446691 C680.593337,86.3113271 681.24333,84.5780111 681.85,82.8446691 L685.49,72.4446691 C685.750001,71.491331 686.031665,70.6030065 686.335,69.7796691 C686.638335,68.9563316 686.919999,68.1113401 687.18,67.2446691 C687.78667,65.5113271 688.371664,63.7563446 688.935,61.9796691 C689.498336,60.2029935 690.039997,58.4046782 690.56,56.5846691 L692.12,51.3846691 L692.9,48.6546691 L692.9,48.5246691 L693.55,46.3146691 L693.81,45.7946691 C694.330003,44.3213284 695.26166,43.2813388 696.605,42.6746691 C697.94834,42.0679994 699.356659,42.0679994 700.83,42.6746691 C702.303341,43.1946717 703.34333,44.1046626 703.95,45.4046691 C704.55667,46.7046756 704.643336,48.0479955 704.21,49.4346691 L703.04,53.0746691 L701.87,56.8446691 L699.53,64.2546691 C698.836663,66.768015 698.100004,69.2596567 697.32,71.7296691 C696.539996,74.1996814 695.803337,76.6913232 695.11,79.2046691 C693.636659,84.1446938 692.206674,89.1063108 690.82,94.0896691 C689.433326,99.0730273 688.133339,104.077977 686.92,109.104669 C686.226663,111.618015 685.57667,114.131323 684.97,116.644669 L683.15,124.184669 C681.936661,129.298028 680.896671,134.367977 680.03,139.394669 C679.509997,141.908015 679.055002,144.421323 678.665,146.934669 C678.274998,149.448015 677.906668,151.961323 677.56,154.474669 C677.386666,155.774676 677.256667,157.052996 677.17,158.309669 C677.083333,159.566342 677.04,160.80133 677.04,162.014669 C676.953333,162.188003 676.91,162.491334 676.91,162.924669 L677.82,161.754669 C678.600004,160.627997 679.35833,159.501341 680.095,158.374669 C680.83167,157.247997 681.546663,156.078008 682.24,154.864669 C683.713341,152.611324 685.164993,150.314681 686.595,147.974669 C688.025007,145.634657 689.433326,143.294681 690.82,140.954669 L696.245908,131.628891 C696.744787,130.404151 697.254482,129.179416 697.775,127.954669 C698.51167,126.221327 699.313329,124.488011 700.18,122.754669 C700.613335,121.887998 701.024998,121.043007 701.415,120.219669 C701.805002,119.396332 702.216664,118.55134 702.65,117.684669 C703.083335,116.731331 703.559997,115.843007 704.08,115.019669 C704.600003,114.196332 705.119997,113.35134 705.64,112.484669 C705.900001,112.051334 706.159999,111.639671 706.42,111.249669 C706.680001,110.859667 706.983332,110.448005 707.33,110.014669 L709.28,107.414669 C709.713335,106.981334 710.146664,106.569671 710.58,106.179669 C711.013335,105.789667 711.53333,105.378005 712.14,104.944669 C712.486668,104.771335 712.833332,104.576337 713.18,104.359669 C713.526668,104.143001 713.916664,103.948003 714.35,103.774669 L715.78,103.384669 C715.953334,103.298002 716.256664,103.254669 716.69,103.254669 L717.47,103.254669 C718.683339,103.168002 719.744995,103.471332 720.655,104.164669 C721.565005,104.858006 722.236664,105.767997 722.67,106.894669 L726.31,97.5346691 C727.523339,94.4146535 728.693328,91.2513518 729.82,88.0446691 C730.513337,86.3113271 731.16333,84.5780111 731.77,82.8446691 L735.41,72.4446691 C735.670001,71.491331 735.951665,70.6030065 736.255,69.7796691 C736.558335,68.9563316 736.839999,68.1113401 737.1,67.2446691 C737.70667,65.5113271 738.291664,63.7563446 738.855,61.9796691 C739.418336,60.2029935 739.959997,58.4046782 740.48,56.5846691 L742.04,51.3846691 L742.82,48.6546691 L742.82,48.5246691 L743.47,46.3146691 L743.73,45.7946691 C744.250003,44.3213284 745.18166,43.2813388 746.525,42.6746691 C747.86834,42.0679994 749.276659,42.0679994 750.75,42.6746691 C752.223341,43.1946717 753.26333,44.1046626 753.87,45.4046691 C754.47667,46.7046756 754.563335,48.0479955 754.13,49.4346691 L752.96,53.0746691 L751.79,56.8446691 L749.45,64.2546691 C748.756663,66.768015 748.020004,69.2596567 747.24,71.7296691 C746.459996,74.1996814 745.723337,76.6913232 745.03,79.2046691 C743.556659,84.1446938 742.126674,89.1063108 740.74,94.0896691 C739.353326,99.0730273 738.053339,104.077977 736.84,109.104669 C736.146663,111.618015 735.49667,114.131323 734.89,116.644669 L733.07,124.184669 C731.856661,129.298028 730.816671,134.367977 729.95,139.394669 C729.429997,141.908015 728.975002,144.421323 728.585,146.934669 C728.194998,149.448015 727.826668,151.961323 727.48,154.474669 C727.306666,155.774676 727.176667,157.052996 727.09,158.309669 C727.003333,159.566342 726.96,160.80133 726.96,162.014669 C726.873333,162.188003 726.83,162.491334 726.83,162.924669 L727.74,161.754669 C728.520004,160.627997 729.27833,159.501341 730.015,158.374669 C730.75167,157.247997 731.466663,156.078008 732.16,154.864669 C733.633341,152.611324 735.084993,150.314681 736.515,147.974669 C737.945007,145.634657 739.353326,143.294681 740.74,140.954669 L749.06,126.654669 L757.12,112.224669 C757.466668,111.617999 757.94333,111.228003 758.55,111.054669 C759.15667,110.881335 759.76333,110.968001 760.37,111.314669 C760.97667,111.661337 761.366666,112.137999 761.54,112.744669 C761.713334,113.351339 761.626668,113.957999 761.28,114.564669 C759.979993,116.991348 758.680006,119.396324 757.38,121.779669 C756.079994,124.163014 754.736674,126.56799 753.35,128.994669 C751.963326,131.421348 750.59834,133.826324 749.255,136.209669 C747.91166,138.593014 746.503341,140.99799 745.03,143.424669 C743.643326,145.851348 742.235007,148.234657 740.805,150.574669 C739.374993,152.914681 737.923341,155.254657 736.45,157.594669 C735.756663,158.808008 735.020004,159.977997 734.24,161.104669 C733.459996,162.231341 732.680004,163.40133 731.9,164.614669 C731.466664,165.221339 731.055002,165.806333 730.665,166.369669 C730.274998,166.933005 729.863335,167.474666 729.43,167.994669 C728.649996,169.121341 727.783338,170.247997 726.83,171.374669 C726.396664,171.981339 725.833337,172.306336 725.14,172.349669 C724.446663,172.393003 723.840003,172.198005 723.32,171.764669 C722.886664,171.418001 722.583334,170.941339 722.41,170.334669 C722.236666,169.641332 722.106667,168.948006 722.02,168.254669 L721.76,166.174669 C721.673333,165.481332 721.608334,164.788006 721.565,164.094669 C721.521666,163.401332 721.5,162.708006 721.5,162.014669 L721.5,157.984669 C721.5,156.684663 721.586666,155.341343 721.76,153.954669 C721.933334,151.354656 722.149999,148.733016 722.41,146.089669 C722.670001,143.446323 723.016664,140.824682 723.45,138.224669 C723.796668,135.624656 724.186664,133.024682 724.62,130.424669 C725.053335,127.824656 725.486664,125.268015 725.92,122.754669 C726.353335,120.154656 726.829997,117.576349 727.35,115.019669 C727.870003,112.46299 728.389997,109.884682 728.91,107.284669 C728.91,106.938001 728.953333,106.678003 729.04,106.504669 C728.606664,107.198006 728.238335,107.934665 727.935,108.714669 C727.631665,109.494673 727.306668,110.231332 726.96,110.924669 C725.399992,114.304686 723.796675,117.662986 722.15,120.999669 C720.503325,124.336352 718.813342,127.651319 717.08,130.944669 L711.62,140.824669 C710.666662,142.384677 709.670005,143.966328 708.63,145.569669 C707.589995,147.17301 706.463339,148.711328 705.25,150.184669 L703.3,152.394669 C702.866664,152.828005 702.476668,153.196334 702.13,153.499669 C701.783332,153.803004 701.393336,154.128001 700.96,154.474669 L699.66,155.514669 L698.23,156.294669 C697.796665,156.468003 697.233337,156.641335 696.54,156.814669 L695.5,157.074669 C695.326666,157.074669 695.110001,157.053003 694.85,157.009669 C694.589999,156.966336 694.373334,156.944669 694.2,156.944669 C693.853332,156.858002 693.420003,156.641337 692.9,156.294669 C692.639999,156.121335 692.445001,155.948003 692.315,155.774669 C692.184999,155.601335 692.033334,155.428003 691.86,155.254669 C691.686666,154.994668 691.513334,154.604672 691.34,154.084669 L691.08,153.174669 C690.993333,152.741334 690.95,152.178006 690.95,151.484669 C690.95,151.060986 690.962785,150.701232 690.988356,150.405404 C690.953916,150.461851 690.919465,150.518273 690.885,150.574669 C689.454993,152.914681 688.003341,155.254657 686.53,157.594669 C685.836663,158.808008 685.100004,159.977997 684.32,161.104669 C683.539996,162.231341 682.760004,163.40133 681.98,164.614669 C681.546665,165.221339 681.135002,165.806333 680.745,166.369669 C680.354998,166.933005 679.943335,167.474666 679.51,167.994669 C678.729996,169.121341 677.863338,170.247997 676.91,171.374669 C676.476664,171.981339 675.913337,172.306336 675.22,172.349669 C674.526663,172.393003 673.920003,172.198005 673.4,171.764669 C672.966664,171.418001 672.663334,170.941339 672.49,170.334669 C672.316666,169.641332 672.186667,168.948006 672.1,168.254669 L671.84,166.174669 C671.753333,165.481332 671.688334,164.788006 671.645,164.094669 C671.601666,163.401332 671.58,162.708006 671.58,162.014669 L671.58,157.984669 C671.58,156.684663 671.666666,155.341343 671.84,153.954669 C672.013334,151.354656 672.229999,148.733016 672.49,146.089669 C672.750001,143.446323 673.096664,140.824682 673.53,138.224669 C673.876668,135.624656 674.266665,133.024682 674.7,130.424669 C675.133336,127.824656 675.566665,125.268015 676,122.754669 C676.433335,120.154656 676.909997,117.576349 677.43,115.019669 C677.950003,112.46299 678.469997,109.884682 678.99,107.284669 C678.99,106.938001 679.033333,106.678003 679.12,106.504669 C678.686665,107.198006 678.318335,107.934665 678.015,108.714669 C677.711665,109.494673 677.386668,110.231332 677.04,110.924669 C675.479992,114.304686 673.876675,117.662986 672.23,120.999669 C670.583325,124.336352 668.893342,127.651319 667.16,130.944669 L661.7,140.824669 C660.746662,142.384677 659.750005,143.966328 658.71,145.569669 C657.669995,147.17301 656.543339,148.711328 655.33,150.184669 L653.38,152.394669 C652.946664,152.828005 652.556668,153.196334 652.21,153.499669 C651.863332,153.803004 651.473335,154.128001 651.04,154.474669 L649.74,155.514669 L648.31,156.294669 C647.876664,156.468003 647.313337,156.641335 646.62,156.814669 L645.58,157.074669 C645.406666,157.074669 645.190001,157.053003 644.93,157.009669 C644.669999,156.966336 644.453334,156.944669 644.28,156.944669 C643.933332,156.858002 643.500003,156.641337 642.98,156.294669 C642.719999,156.121335 642.525001,155.948003 642.395,155.774669 C642.264999,155.601335 642.113334,155.428003 641.94,155.254669 C641.766666,154.994668 641.593334,154.604672 641.42,154.084669 L641.16,153.174669 C641.073333,152.741334 641.03,152.178006 641.03,151.484669 C641.03,150.704665 641.073333,150.141337 641.16,149.794669 C641.181564,149.341826 641.219224,148.883619 641.27298,148.420048 L639.99,149.794669 L638.95,150.704669 C638.603332,151.051337 638.170003,151.354668 637.65,151.614669 L636.09,152.394669 C635.569997,152.568003 635.223334,152.654669 635.05,152.654669 L633.62,152.654669 C633.359999,152.568002 633.078335,152.481336 632.775,152.394669 C632.471665,152.308002 632.233334,152.178003 632.06,152.004669 L631.02,151.224669 C630.759999,150.878001 630.565001,150.57467 630.435,150.314669 C630.304999,150.054668 630.153334,149.79467 629.98,149.534669 C629.633332,148.841332 629.416667,148.321337 629.33,147.974669 L628.94,146.674669 C628.853333,146.241334 628.788334,145.786338 628.745,145.309669 C628.701666,144.833 628.593334,144.378005 628.42,143.944669 C628.246666,143.077998 628.138334,142.233007 628.095,141.409669 C628.051666,140.586332 627.986667,139.784673 627.9,139.004669 L624.26,144.984669 L620.62,150.704669 C619.406661,152.524678 618.106674,154.34466 616.72,156.164669 C616.026663,157.118007 615.31167,158.006332 614.575,158.829669 C613.83833,159.653007 612.993338,160.497998 612.04,161.364669 C611.606664,161.798005 611.130003,162.209667 610.61,162.599669 C610.089997,162.989671 609.52667,163.358001 608.92,163.704669 C608.573332,163.878003 608.248335,164.029668 607.945,164.159669 C607.641665,164.28967 607.316668,164.441335 606.97,164.614669 C606.449997,164.788003 606.060001,164.874669 605.8,164.874669 C605.626666,164.961336 605.410001,165.004669 605.15,165.004669 C605.063333,165.004669 604.976667,165.048002 604.89,165.134669 L603.85,165.134669 C603.676666,165.134669 603.525001,165.113003 603.395,165.069669 C603.264999,165.026336 603.113334,165.004669 602.94,165.004669 C602.073329,164.658001 601.466668,164.35467 601.12,164.094669 C600.599997,163.748001 600.210001,163.358005 599.95,162.924669 L599.3,161.624669 C599.126666,161.191334 598.996667,160.823004 598.91,160.519669 C598.823333,160.216334 598.736667,159.891337 598.65,159.544669 L598.39,157.594669 L598.39,153.954669 L598.65,150.574669 L599.56,143.814669 L600.73,137.314669 L603.46,124.314669 L605.41,114.564669 L605.8,113.004669 L606.06,111.314669 C606.406668,109.841328 607.186661,108.693007 608.4,107.869669 C609.613339,107.046332 610.956659,106.764668 612.43,107.024669 C613.903341,107.371337 615.051663,108.15133 615.875,109.364669 C616.698337,110.578008 616.980001,111.921328 616.72,113.394669 L616.33,114.694669 L615.94,115.474669 L615.55,116.124669 C615.463333,116.644672 615.246668,117.121334 614.9,117.554669 C614.726666,118.074672 614.531668,118.594666 614.315,119.114669 C614.098332,119.634672 613.860001,120.111334 613.6,120.544669 L612.43,123.534669 L611.26,126.654669 C610.566663,128.648012 609.873337,130.662992 609.18,132.699669 C608.486663,134.736346 607.83667,136.794659 607.23,138.874669 L605.67,144.984669 L605.02,148.104669 L604.5,151.224669 L604.11,154.344669 L604.11,157.204669 C604.11,157.378003 604.131666,157.594668 604.175,157.854669 C604.218334,158.11467 604.24,158.331335 604.24,158.504669 C604.326667,158.678003 604.37,158.851335 604.37,159.024669 C604.37,159.198003 604.413333,159.328002 604.5,159.414669 L604.63,159.414669 C604.716667,159.414669 604.781666,159.393003 604.825,159.349669 C604.868334,159.306336 604.933333,159.284669 605.02,159.284669 L606.06,158.764669 C606.580003,158.504668 607.273329,157.984673 608.14,157.204669 L610.09,154.994669 C610.436668,154.561334 610.761665,154.149671 611.065,153.759669 C611.368335,153.369667 611.649999,152.958005 611.91,152.524669 C612.51667,151.657998 613.101664,150.813007 613.665,149.989669 C614.228336,149.166332 614.769997,148.278007 615.29,147.324669 L618.28,141.734669 C620.186676,137.661315 621.876659,133.718021 623.35,129.904669 C623.783336,128.951331 624.151665,127.954674 624.455,126.914669 C624.758335,125.874664 625.083332,124.834674 625.43,123.794669 C625.603334,123.361334 625.776666,122.884672 625.95,122.364669 L626.47,120.804669 L626.86,119.244669 L626.86,119.114669 L627.12,118.464669 L627.12,118.074669 C627.206667,117.988002 627.25,117.858003 627.25,117.684669 C627.596668,116.211328 628.376661,115.084673 629.59,114.304669 C630.803339,113.524665 632.146659,113.308001 633.62,113.654669 C634.833339,113.91467 635.80833,114.499665 636.545,115.409669 C637.28167,116.319674 637.693333,117.38133 637.78,118.594669 L637.91,120.414669 C637.823333,120.501336 637.78,120.588002 637.78,120.674669 L637.65,120.934669 L637.52,121.584669 L637.39,121.844669 L637.52,121.844669 L637.26,122.364669 L637.26,122.624669 L636.61,124.964669 L636.22,127.304669 C636.046666,127.738005 635.938334,128.128001 635.895,128.474669 C635.851666,128.821337 635.786667,129.211334 635.7,129.644669 C635.179997,132.59135 634.790001,135.667986 634.53,138.874669 C634.443333,139.654673 634.4,140.434665 634.4,141.214669 L634.4,143.424669 L634.66,145.504669 C634.66,145.938005 634.703333,146.284668 634.79,146.544669 C634.79,146.891337 634.833333,147.108002 634.92,147.194669 L635.05,147.194669 C635.396668,147.021335 635.916663,146.674672 636.61,146.154669 L638.17,144.594669 L639.6,142.904669 C639.860001,142.644668 640.098332,142.363004 640.315,142.059669 C640.531668,141.756334 640.769999,141.431337 641.03,141.084669 L642.46,139.264669 C642.633334,138.918001 642.828332,138.593004 643.045,138.289669 C643.261668,137.986334 643.499999,137.661337 643.76,137.314669 C644.12802,136.725836 644.480409,136.152639 644.817173,135.595063 Z M648.976901,137.469627 C648.971256,137.482969 648.965622,137.496316 648.96,137.509669 C648.613332,138.333007 648.266668,139.177998 647.92,140.044669 C647.573332,140.91134 647.270001,141.756332 647.01,142.579669 C646.749999,143.403007 646.490001,144.247998 646.23,145.114669 L645.58,147.714669 L645.19,150.184669 L645.19,152.394669 L645.45,152.914669 L645.71,152.914669 L646.62,152.524669 L647.53,152.004669 L648.44,151.224669 C649.04667,150.878001 649.65333,150.314673 650.26,149.534669 C650.606668,149.188001 650.909999,148.863004 651.17,148.559669 C651.430001,148.256334 651.689999,147.931337 651.95,147.584669 L655.07,143.164669 C655.936671,141.777995 656.846662,140.218011 657.8,138.484669 L660.53,133.674669 C660.963336,132.894665 661.374998,132.093007 661.765,131.269669 C662.155002,130.446332 662.566665,129.644673 663,128.864669 C664.213339,126.177989 665.426661,123.513016 666.64,120.869669 C667.853339,118.226323 669.066661,115.518016 670.28,112.744669 C669.933332,112.918003 669.608335,113.048002 669.305,113.134669 C669.001665,113.221336 668.633336,113.264669 668.2,113.264669 C667.766665,113.351336 667.290003,113.308003 666.77,113.134669 L666.9,113.134669 C666.986667,113.134669 667.03,113.091336 667.03,113.004669 C667.116667,113.004669 667.16,112.961336 667.16,112.874669 L666.9,112.874669 L666.12,113.264669 L665.21,113.784669 L663.39,115.214669 L661.7,117.034669 C661.09333,117.728006 660.508336,118.399666 659.945,119.049669 C659.41256,119.664023 658.899483,120.297723 658.405754,120.950786 L657.28,123.014669 L654.94,127.174669 L652.6,131.464669 C652.166665,132.071339 651.733336,132.764665 651.3,133.544669 L650.13,135.624669 L648.976901,137.469627 Z M370.846667,117.52578 L371.41,115.084669 L372.32,111.574669 C372.666668,110.101328 373.446661,108.974673 374.66,108.194669 C375.873339,107.414665 377.216659,107.241334 378.69,107.674669 C380.076674,108.021337 381.159996,108.80133 381.94,110.014669 C382.720004,111.228008 382.936668,112.527995 382.59,113.914669 C382.416666,114.434672 382.243334,114.868001 382.07,115.214669 L381.42,116.644669 L380.64,118.204669 C380.293332,118.898006 380.076667,119.418001 379.99,119.764669 L379.21,121.324669 L376.61,127.564669 C375.743329,129.731347 374.94167,131.876325 374.205,133.999669 C373.46833,136.123013 372.753337,138.267992 372.06,140.434669 C371.713332,141.474674 371.410001,142.53633 371.15,143.619669 C370.889999,144.703008 370.630001,145.764664 370.37,146.804669 L369.85,149.924669 C369.85,150.18467 369.828334,150.444668 369.785,150.704669 C369.741666,150.96467 369.72,151.224668 369.72,151.484669 L369.72,152.134669 C369.893334,152.048002 370.153332,151.831337 370.5,151.484669 L372.71,149.144669 L374.92,146.674669 C376.393341,144.85466 377.779994,143.078011 379.08,141.344669 C379.773337,140.391331 380.444997,139.48134 381.095,138.614669 C381.745003,137.747998 382.416663,136.838007 383.11,135.884669 L387.01,130.294669 C387.703337,129.341331 388.331664,128.388007 388.895,127.434669 C389.458336,126.481331 390.086663,125.528007 390.78,124.574669 C391.993339,122.581326 393.206661,120.631345 394.42,118.724669 C395.633339,116.817993 396.846661,114.868012 398.06,112.874669 C399.186672,111.05466 400.291661,109.234678 401.375,107.414669 C402.458339,105.59466 403.519995,103.731345 404.56,101.824669 L404.69,101.434669 L404.95,101.044669 C405.210001,100.524666 405.64333,100.178003 406.25,100.004669 C406.85667,99.8313349 407.419997,99.9180007 407.94,100.264669 C408.893338,100.871339 409.240001,101.737997 408.98,102.864669 L408.98,102.994669 L387.79,169.164669 L388.96,167.344669 C390.953343,164.137986 392.98999,160.974685 395.07,157.854669 C397.15001,154.734653 399.316655,151.658018 401.57,148.624669 C402.610005,147.064661 403.693328,145.526343 404.82,144.009669 C405.946672,142.492995 407.073328,140.99801 408.2,139.524669 L414.83,130.554669 C416.996678,127.521321 419.11999,124.488018 421.2,121.454669 C423.28001,118.421321 425.186658,115.301352 426.92,112.094669 C427.353335,111.401332 427.916663,110.968003 428.61,110.794669 C429.303337,110.621335 429.95333,110.708001 430.56,111.054669 C431.253337,111.488005 431.708332,112.029666 431.925,112.679669 C432.141668,113.329672 432.076668,114.001332 431.73,114.694669 C430.776662,116.428011 429.823338,118.096328 428.87,119.699669 C427.916662,121.30301 426.963338,122.927994 426.01,124.574669 L419.77,134.064669 L413.4,143.164669 L407.16,152.394669 C405.07999,155.514685 403.06501,158.634653 401.115,161.754669 C399.16499,164.874685 397.236676,168.037986 395.33,171.244669 C393.509991,174.451352 391.733342,177.679653 390,180.929669 C388.266658,184.179685 386.620008,187.451319 385.06,190.744669 C378.646635,203.918068 372.926692,217.524599 367.9,231.564669 L367.64,232.474669 L354.77,272.384669 L354.38,273.814669 L354.25,274.074669 L354.25,274.204669 C353.729997,275.67801 352.776674,276.739666 351.39,277.389669 C350.003326,278.039672 348.573341,278.104672 347.1,277.584669 C345.713326,277.064666 344.695003,276.133009 344.045,274.789669 C343.394997,273.446329 343.286664,272.081343 343.72,270.694669 C348.313356,256.30793 353.339973,242.138072 358.8,228.184669 C359.233335,227.144664 359.644998,226.104674 360.035,225.064669 C360.425002,224.024664 360.836664,222.984674 361.27,221.944669 L397.67,120.934669 L394.03,126.654669 L390.26,132.374669 C389.913332,132.894672 389.588335,133.393 389.285,133.869669 C388.981665,134.346338 388.700001,134.844666 388.44,135.364669 L382.59,143.944669 L380.51,146.674669 C379.816663,147.714674 379.123337,148.667998 378.43,149.534669 C378.083332,149.968005 377.736668,150.423 377.39,150.899669 C377.043332,151.376338 376.653336,151.831334 376.22,152.264669 L373.75,154.994669 L372.32,156.294669 L371.28,156.944669 C371.106666,157.118003 370.933334,157.226336 370.76,157.269669 C370.586666,157.313003 370.370001,157.421335 370.11,157.594669 L369.85,157.594669 C369.763333,157.594669 369.72,157.616336 369.72,157.659669 C369.72,157.703003 369.676667,157.724669 369.59,157.724669 L367.9,157.724669 C367.639999,157.638002 367.401668,157.551336 367.185,157.464669 C366.968332,157.378002 366.773334,157.291336 366.6,157.204669 C366.426666,157.031335 366.275001,156.901336 366.145,156.814669 C366.014999,156.728002 365.906667,156.598003 365.82,156.424669 C365.386665,155.904666 365.083334,155.384672 364.91,154.864669 C364.736666,154.171332 364.65,153.738003 364.65,153.564669 C364.563333,153.131334 364.498334,152.763004 364.455,152.459669 C364.411666,152.156334 364.39,151.831337 364.39,151.484669 L364.39,149.534669 L364.78,145.894669 L365.95,138.874669 C366.129313,137.942242 366.316045,137.007963 366.510197,136.07183 C366.196475,136.571271 365.879743,137.072217 365.56,137.574669 L361.92,143.164669 L359.84,145.894669 C359.146663,146.848007 358.366671,147.757998 357.5,148.624669 C357.153332,149.144672 356.67667,149.621334 356.07,150.054669 L355.03,150.834669 C354.683332,151.008003 354.423334,151.094669 354.25,151.094669 L353.08,151.484669 C352.646665,151.484669 352.083337,151.398003 351.39,151.224669 C351.129999,151.138002 350.891668,151.02967 350.675,150.899669 C350.458332,150.769668 350.263334,150.618003 350.09,150.444669 C349.916666,150.271335 349.786667,150.11967 349.7,149.989669 C349.613333,149.859668 349.483334,149.708003 349.31,149.534669 L348.92,148.884669 L348.4,147.584669 L348.14,146.544669 C347.966666,145.677998 347.88,145.028005 347.88,144.594669 C347.793333,144.334668 347.75,144.053004 347.75,143.749669 L347.75,142.904669 C347.663333,142.297999 347.598334,141.713005 347.555,141.149669 C347.511666,140.586333 347.49,140.001339 347.49,139.394669 C347.403333,138.267997 347.36,137.163008 347.36,136.079669 L347.36,132.764669 L347.23,126.134669 L347.1,124.574669 L347.1,121.454669 C347.013333,121.281335 346.97,121.021337 346.97,120.674669 C346.189996,121.368006 345.540003,122.017999 345.02,122.624669 L342.68,124.964669 C341.206659,126.43801 339.733341,127.976328 338.26,129.579669 C336.786659,131.18301 335.313341,132.764661 333.84,134.324669 L325,144.074669 C323.526659,145.721344 322.096674,147.346328 320.71,148.949669 C319.323326,150.55301 317.936674,152.221327 316.55,153.954669 L314.6,156.554669 C314.166665,156.988005 313.798335,157.399667 313.495,157.789669 C313.191665,158.179671 312.866668,158.591334 312.52,159.024669 L310.57,161.624669 L309.92,162.924669 C309.746666,163.271337 309.573334,163.531335 309.4,163.704669 L308.88,164.744669 L307.71,165.914669 L307.45,166.044669 L306.67,166.304669 C306.583333,166.304669 306.17167,166.326336 305.435,166.369669 C304.69833,166.413003 303.983337,166.00134 303.29,165.134669 C302.856664,164.354665 302.683333,163.813004 302.77,163.509669 C302.856667,163.206334 302.856667,162.968003 302.77,162.794669 C302.856667,162.621335 302.9,162.448003 302.9,162.274669 C302.986667,162.188002 303.03,162.101336 303.03,162.014669 L303.16,161.884669 C303.16,161.798002 303.203333,161.711336 303.29,161.624669 C303.29,161.538002 303.311666,161.494669 303.355,161.494669 C303.398334,161.494669 303.42,161.451336 303.42,161.364669 L303.68,160.844669 L304.72,159.414669 L304.85,159.284669 C305.196668,158.764666 305.499999,158.07134 305.76,157.204669 C306.193335,156.251331 306.604998,155.276341 306.995,154.279669 C307.385002,153.282997 307.796665,152.264674 308.23,151.224669 C308.490001,150.791334 308.728332,150.314672 308.945,149.794669 C309.161668,149.274666 309.356666,148.754672 309.53,148.234669 L310.7,145.244669 L311.74,142.124669 L312.91,139.004669 C313.343335,138.051331 313.711665,137.054674 314.015,136.014669 C314.175189,135.465451 314.353503,134.916237 314.549945,134.367023 L312.91,135.754669 C312.649999,136.01467 312.368335,136.253001 312.065,136.469669 C311.761665,136.686337 311.436668,136.881335 311.09,137.054669 L309.01,138.224669 C308.489997,138.571337 307.710005,138.874668 306.67,139.134669 C306.236664,139.221336 305.781669,139.286336 305.305,139.329669 C304.828331,139.373003 304.330003,139.394669 303.81,139.394669 C302.769995,139.221335 301.816671,138.961337 300.95,138.614669 C300.083329,138.354668 299.390003,138.008005 298.87,137.574669 C298.696666,137.748003 298.61,137.921335 298.61,138.094669 C297.483328,140.521348 296.313339,142.687993 295.1,144.594669 C293.799994,146.674679 292.326675,148.667993 290.68,150.574669 L289.315,151.939669 C288.838331,152.416338 288.29667,152.871334 287.69,153.304669 C287.169997,153.738005 286.60667,154.128001 286,154.474669 C285.39333,154.821337 284.743337,155.124668 284.05,155.384669 C283.269996,155.731337 282.533337,155.948002 281.84,156.034669 C281.579999,156.121336 281.190003,156.164669 280.67,156.164669 L279.5,156.164669 C278.546662,156.164669 277.723337,155.991337 277.03,155.644669 C276.596664,155.471335 276.185002,155.298003 275.795,155.124669 C275.404998,154.951335 275.036668,154.691337 274.69,154.344669 L273.715,153.369669 C273.411665,153.066334 273.173334,152.698005 273,152.264669 L271.96,150.184669 C271.786666,149.491332 271.656667,148.798006 271.57,148.104669 L271.31,146.024669 L271.31,144.074669 C271.31,143.467999 271.353333,142.818006 271.44,142.124669 C271.526667,141.431332 271.613333,140.803005 271.7,140.239669 C271.786667,139.676333 271.916666,139.091339 272.09,138.484669 C272.263334,137.27133 272.501665,136.079675 272.805,134.909669 C272.895073,134.562245 272.987056,134.212911 273.080949,133.861668 L257.27,155.124669 C256.836664,155.644672 256.295003,155.969668 255.645,156.099669 C254.994997,156.22967 254.410003,156.078005 253.89,155.644669 C253.023329,154.864665 252.719999,153.998007 252.98,153.044669 L254.41,145.374669 L255.71,137.834669 C256.143336,135.321323 256.598331,132.786349 257.075,130.229669 C257.551669,127.67299 258.006665,125.138015 258.44,122.624669 L259.22,116.254669 L256.23,120.674669 L248.04,133.674669 L239.98,147.064669 L232.05,160.324669 L223.99,173.714669 C223.729999,174.321339 223.318336,174.733001 222.755,174.949669 C222.191664,175.166337 221.650003,175.14467 221.13,174.884669 C219.916661,174.277999 219.483332,173.454674 219.83,172.414669 L219.83,172.024669 L222.69,159.284669 C223.643338,155.037981 224.639995,150.791357 225.68,146.544669 C226.633338,142.297981 227.651661,138.073023 228.735,133.869669 C229.818339,129.666315 230.923328,125.441357 232.05,121.194669 C232.743337,118.334655 233.479996,115.474683 234.26,112.614669 C235.040004,109.754655 235.819996,106.938016 236.6,104.164669 L236.34,104.424669 C235.039994,106.331345 233.696674,108.064661 232.31,109.624669 L230.23,112.224669 C229.883332,112.658005 229.558335,113.069667 229.255,113.459669 C229.166567,113.573368 229.07261,113.688909 228.973129,113.80629 C228.959361,113.842152 228.944984,113.878278 228.93,113.914669 L228.93,114.044669 L226.98,117.814669 L225.03,121.714669 L221.13,129.254669 C219.829994,131.768015 218.50834,134.281323 217.165,136.794669 C215.82166,139.308015 214.456674,141.821323 213.07,144.334669 L208.91,151.874669 L204.49,159.154669 L199.81,166.434669 C199.578261,166.759103 199.348072,167.081987 199.119433,167.403321 L209.95,167.474669 C211.683342,167.474669 213.134994,168.059663 214.305,169.229669 C215.475006,170.399675 216.06,171.851327 216.06,173.584669 C216.06,175.318011 215.453339,176.769663 214.24,177.939669 C213.026661,179.109675 211.553342,179.694669 209.82,179.694669 L209.69,179.694669 L189.217997,178.998889 C188.844123,179.296862 188.474791,179.572121 188.11,179.824669 C187.243329,180.344672 186.463337,180.778001 185.77,181.124669 L184.34,181.514669 C184.166666,181.514669 184.015001,181.536336 183.885,181.579669 C183.754999,181.623003 183.603334,181.644669 183.43,181.644669 L182.975,181.644669 C182.758332,181.644669 182.563334,181.601336 182.39,181.514669 C182.216666,181.514669 182.021668,181.471336 181.805,181.384669 C181.588332,181.298002 181.393334,181.211336 181.22,181.124669 L180.31,180.344669 C179.70333,179.824666 179.356667,179.348005 179.27,178.914669 C179.21244,178.828329 179.162047,178.741989 179.118823,178.655649 L110.24,176.314669 L109.46,183.724669 L102.57,242.744669 C102.396666,244.131343 101.616674,244.738003 100.23,244.564669 C98.9299935,244.391335 98.28,243.611343 98.28,242.224669 L103.22,183.204669 C103.306667,181.99133 103.371666,180.821341 103.415,179.694669 C103.458334,178.567997 103.566666,177.398008 103.74,176.184669 L41.6,174.104669 L39.13,178.784669 C38.8699987,179.304672 38.4583361,179.629668 37.895,179.759669 C37.3316638,179.88967 36.7900026,179.82467 36.27,179.564669 C35.7499974,179.304668 35.4033342,178.893005 35.23,178.329669 C35.0566658,177.766333 35.0999987,177.224672 35.36,176.704669 L36.66,173.974669 L3.38,172.934669 C2.4266619,172.848002 1.62500325,172.479672 0.975,171.829669 C0.32499675,171.179666 0,170.378007 0,169.424669 C0,168.471331 0.32499675,167.691339 0.975,167.084669 C1.62500325,166.477999 2.4266619,166.174669 3.38,166.174669 L40.56,166.434669 C43.2466801,160.974642 45.9333199,155.558029 48.62,150.184669 C51.3066801,144.811309 53.9933199,139.394696 56.68,133.934669 C60.2333511,126.7413 63.7216495,119.569705 67.145,112.419669 C70.5683504,105.269633 74.013316,98.0980384 77.48,90.9046691 C80.8600169,83.6246327 84.2399831,76.4097048 87.62,69.2596691 C91.0000169,62.1096333 94.3366502,54.8513726 97.63,47.4846691 C99.2766749,43.8446509 100.901659,40.2263537 102.505,36.6296691 C104.108341,33.0329844 105.689992,29.4146873 107.25,25.7746691 C108.896675,22.1346509 110.499992,18.4730208 112.06,14.7896691 C113.620008,11.1063173 115.136659,7.44468728 116.61,3.80466908 L116.74,3.54466908 C117.433337,2.07132838 118.581659,1.03133878 120.185,0.424669083 C121.788341,-0.182000617 123.326659,-0.138667717 124.8,0.554669083 C126.013339,1.16133878 126.966663,2.02799678 127.66,3.15466908 C128.353337,4.28134138 128.613334,5.45132968 128.44,6.66466908 C128.006664,11.6046938 127.551669,16.5446444 127.075,21.4846691 C126.598331,26.4246938 126.100003,31.3646444 125.58,36.3046691 L122.59,65.8146691 C121.549995,75.6947185 120.488339,85.5312868 119.405,95.3246691 C118.321661,105.118051 117.216672,114.95462 116.09,124.834669 L111.28,166.824669 L178.208482,167.265568 C178.21533,167.204944 178.222503,167.144645 178.23,167.084669 L178.62,162.794669 C178.793334,162.101332 178.901666,161.364673 178.945,160.584669 C178.988334,159.804665 179.053333,159.068006 179.14,158.374669 L180.44,149.924669 L181.22,145.634669 L182,141.474669 C182.60667,138.614655 183.169997,135.77635 183.69,132.959669 C184.210003,130.142988 184.816663,127.348016 185.51,124.574669 C185.658308,123.944361 185.802649,123.310092 185.943025,122.671858 L183.82,126.264669 C182.693328,128.171345 181.566672,130.056326 180.44,131.919669 C179.313328,133.783012 178.143339,135.667993 176.93,137.574669 L173.29,143.164669 L171.21,145.894669 C170.516663,146.848007 169.736671,147.757998 168.87,148.624669 C168.523332,149.144672 168.04667,149.621334 167.44,150.054669 L166.4,150.834669 C166.053332,151.008003 165.793334,151.094669 165.62,151.094669 L164.45,151.484669 C164.016665,151.484669 163.453337,151.398003 162.76,151.224669 C162.499999,151.138002 162.261668,151.02967 162.045,150.899669 C161.828332,150.769668 161.633334,150.618003 161.46,150.444669 C161.286666,150.271335 161.156667,150.11967 161.07,149.989669 C160.983333,149.859668 160.853334,149.708003 160.68,149.534669 L160.29,148.884669 L159.77,147.584669 L159.51,146.544669 C159.336666,145.677998 159.25,145.028005 159.25,144.594669 C159.163333,144.334668 159.12,144.053004 159.12,143.749669 L159.12,142.904669 C159.033333,142.297999 158.968334,141.713005 158.925,141.149669 C158.881666,140.586333 158.86,140.001339 158.86,139.394669 C158.773333,138.267997 158.73,137.163008 158.73,136.079669 L158.73,132.764669 L158.6,126.134669 L158.47,124.574669 L158.47,121.454669 C158.383333,121.281335 158.34,121.021337 158.34,120.674669 C157.559996,121.368006 156.910003,122.017999 156.39,122.624669 L154.05,124.964669 C152.576659,126.43801 151.103341,127.976328 149.63,129.579669 C148.156659,131.18301 146.683341,132.764661 145.21,134.324669 L136.37,144.074669 C134.896659,145.721344 133.466674,147.346328 132.08,148.949669 C130.693326,150.55301 129.306674,152.221327 127.92,153.954669 L125.97,156.554669 C125.536665,156.988005 125.168335,157.399667 124.865,157.789669 C124.561665,158.179671 124.236668,158.591334 123.89,159.024669 L121.94,161.624669 L121.29,162.924669 C121.116666,163.271337 120.943334,163.531335 120.77,163.704669 L120.25,164.744669 L119.08,165.914669 L118.82,166.044669 L118.04,166.304669 C117.953333,166.304669 117.54167,166.326336 116.805,166.369669 C116.06833,166.413003 115.353337,166.00134 114.66,165.134669 C114.226664,164.354665 114.053333,163.813004 114.14,163.509669 C114.226667,163.206334 114.226667,162.968003 114.14,162.794669 C114.226667,162.621335 114.27,162.448003 114.27,162.274669 C114.356667,162.188002 114.4,162.101336 114.4,162.014669 L114.53,161.884669 C114.53,161.798002 114.573333,161.711336 114.66,161.624669 C114.66,161.538002 114.681666,161.494669 114.725,161.494669 C114.768334,161.494669 114.79,161.451336 114.79,161.364669 L115.05,160.844669 L116.09,159.414669 L116.22,159.284669 C116.566668,158.764666 116.869999,158.07134 117.13,157.204669 C117.563336,156.251331 117.974998,155.276341 118.365,154.279669 C118.755002,153.282997 119.166665,152.264674 119.6,151.224669 C119.860001,150.791334 120.098332,150.314672 120.315,149.794669 C120.531668,149.274666 120.726666,148.754672 120.9,148.234669 L122.07,145.244669 L123.11,142.124669 L124.28,139.004669 C124.713335,138.051331 125.081665,137.054674 125.385,136.014669 C125.688335,134.974664 126.056665,133.934674 126.49,132.894669 L128.57,126.654669 C129.263337,124.574659 129.934997,122.494679 130.585,120.414669 C131.235003,118.334659 131.906663,116.254679 132.6,114.174669 C133.293337,112.094659 133.94333,110.014679 134.55,107.934669 C135.15667,105.854659 135.76333,103.731347 136.37,101.564669 C136.803336,100.091328 137.669994,98.964673 138.97,98.1846691 C140.270007,97.4046652 141.656659,97.2313336 143.13,97.6646691 C144.603341,98.0980046 145.729996,98.986329 146.51,100.329669 C147.290004,101.673009 147.463336,103.081328 147.03,104.554669 C147.03,104.81467 146.943334,105.118001 146.77,105.464669 C145.816662,107.458012 144.885005,109.451326 143.975,111.444669 C143.064995,113.438012 142.176671,115.431326 141.31,117.424669 L135.98,129.514669 L132.34,138.224669 C133.466672,136.751328 134.593328,135.256343 135.72,133.739669 C136.846672,132.222995 138.016661,130.72801 139.23,129.254669 C140.703341,127.521327 142.154993,125.809678 143.585,124.119669 C145.015007,122.429661 146.466659,120.761344 147.94,119.114669 C148.286668,118.681334 148.633332,118.269671 148.98,117.879669 C149.326668,117.489667 149.716665,117.078005 150.15,116.644669 C150.930004,115.777998 151.753329,114.954673 152.62,114.174669 L155.35,111.704669 L157.04,110.534669 L157.69,110.144669 L158.47,109.754669 L158.6,109.624669 L158.86,109.624669 L158.99,109.494669 L159.25,109.494669 L159.51,109.364669 L159.64,109.364669 C159.813334,109.364669 159.986666,109.343003 160.16,109.299669 C160.333334,109.256336 160.549999,109.234669 160.81,109.234669 C160.983334,109.234669 161.113333,109.278002 161.2,109.364669 C161.2,109.278002 161.286666,109.256336 161.46,109.299669 C161.633334,109.343003 161.676667,109.364669 161.59,109.364669 L161.72,109.364669 C161.806667,109.364669 161.871666,109.386336 161.915,109.429669 C161.958334,109.473003 162.023333,109.494669 162.11,109.494669 C162.803337,109.75467 163.45333,110.101334 164.06,110.534669 L165.1,111.574669 L166.01,113.394669 L166.4,114.694669 C166.486667,114.95467 166.53,115.301334 166.53,115.734669 C166.616667,116.168005 166.681666,116.536334 166.725,116.839669 C166.768334,117.143004 166.79,117.468001 166.79,117.814669 C166.79,118.07467 166.811666,118.356334 166.855,118.659669 C166.898334,118.963004 166.92,119.288001 166.92,119.634669 C166.92,121.974681 166.790001,124.227992 166.53,126.394669 C166.443333,127.521341 166.356667,128.62633 166.27,129.709669 C166.183333,130.793008 166.053334,131.897997 165.88,133.024669 L165.36,139.524669 C165.36,140.044672 165.338334,140.564666 165.295,141.084669 C165.251666,141.604672 165.23,142.124666 165.23,142.644669 C165.23,142.90467 165.251666,143.143001 165.295,143.359669 C165.338334,143.576337 165.36,143.771335 165.36,143.944669 L166.79,142.384669 L168.61,139.914669 C169.303337,139.047998 169.931664,138.18134 170.495,137.314669 C171.058336,136.447998 171.64333,135.538007 172.25,134.584669 C173.463339,132.76466 174.611661,130.923012 175.695,129.059669 C176.778339,127.196326 177.883328,125.311345 179.01,123.404669 L183.69,114.824669 C183.863334,114.564668 183.993333,114.326337 184.08,114.109669 C184.166667,113.893001 184.253333,113.65467 184.34,113.394669 L185.12,111.964669 C185.37523,111.505255 185.690589,111.128523 186.066079,110.834472 L187.07,108.324669 L187.85,106.244669 L188.63,104.294669 L191.88,96.4946691 L193.31,92.9846691 L193.83,91.2946691 C194.003334,90.5146652 194.198332,89.7563394 194.415,89.0196691 C194.631668,88.2829987 194.869999,87.524673 195.13,86.7446691 L188.37,87.5246691 C187.589996,87.6980033 186.918336,87.5463381 186.355,87.0696691 C185.791664,86.593 185.466667,85.964673 185.38,85.1846691 C185.206666,84.4913323 185.358331,83.8630052 185.835,83.2996691 C186.311669,82.7363329 186.896663,82.3680033 187.59,82.1946691 L196.95,80.6346691 L198.9,74.7846691 C199.246668,73.5713297 199.72333,72.2280098 200.33,70.7546691 C200.503334,70.0613323 200.719999,69.3680059 200.98,68.6746691 L201.76,66.5946691 L203.32,62.5646691 L205.01,58.4046691 L206.18,56.1946691 C206.266667,55.9346678 206.483332,55.5446717 206.83,55.0246691 L207.22,54.2446691 L207.87,53.4646691 C207.956667,53.378002 208.021666,53.2913362 208.065,53.2046691 C208.108334,53.118002 208.216666,53.0313362 208.39,52.9446691 C208.476667,52.6846678 208.736665,52.4246704 209.17,52.1646691 L209.95,51.6446691 L211.25,51.1246691 C211.423334,51.1246691 211.553333,51.1030026 211.64,51.0596691 C211.726667,51.0163355 211.943332,50.9946691 212.29,50.9946691 C212.463334,50.908002 212.593333,50.8863355 212.68,50.9296691 C212.766667,50.9730026 212.896666,50.9946691 213.07,50.9946691 C213.67667,50.9946691 214.196665,51.038002 214.63,51.1246691 L216.19,51.9046691 L217.49,53.0746691 L218.27,54.2446691 L218.66,55.1546691 L218.92,56.4546691 L218.92,58.5346691 C218.833333,58.7080033 218.79,59.0113336 218.79,59.4446691 L218.4,60.8746691 C218.226666,61.3080046 218.118334,61.7196671 218.075,62.1096691 C218.031666,62.499671 217.923334,62.8680007 217.75,63.2146691 C217.576666,63.6480046 217.425001,64.0380007 217.295,64.3846691 C217.164999,64.7313375 217.013334,65.0780007 216.84,65.4246691 L216.06,67.5046691 C215.799999,68.1980059 215.496668,68.8913323 215.15,69.5846691 L213.33,73.6146691 L211.51,77.5146691 L211.12,78.2946691 L246.083725,72.5219698 L246.61,70.8846691 C247.303337,68.8046587 248.01833,66.7246795 248.755,64.6446691 C249.49167,62.5646587 250.249996,60.4846795 251.03,58.4046691 C251.463335,57.3646639 251.874998,56.3246743 252.265,55.2846691 C252.655002,54.2446639 253.109997,53.1613414 253.63,52.0346691 L255.06,48.7846691 C255.233334,48.5246678 255.384999,48.2646704 255.515,48.0046691 L255.97,47.0946691 L256.62,46.1846691 L257.27,45.1446691 C257.443334,45.058002 257.616666,44.8413375 257.79,44.4946691 C257.963334,44.408002 258.223332,44.1913375 258.57,43.8446691 C259.003336,43.4113336 259.436665,43.1080033 259.87,42.9346691 C260.043334,42.7613349 260.43333,42.5880033 261.04,42.4146691 C261.126667,42.328002 261.213333,42.2846691 261.3,42.2846691 C261.386667,42.2846691 261.473333,42.2630026 261.56,42.2196691 C261.646667,42.1763355 261.733333,42.1546691 261.82,42.1546691 L262.21,42.1546691 C262.383334,42.068002 262.556666,42.0246691 262.73,42.0246691 L263.38,42.0246691 C263.466667,42.0246691 263.531666,42.0463355 263.575,42.0896691 C263.618334,42.1330026 263.726666,42.1546691 263.9,42.1546691 C263.9,42.2413362 263.943333,42.2846691 264.03,42.2846691 L264.55,42.2846691 C264.463333,42.2846691 264.484999,42.3063355 264.615,42.3496691 C264.745001,42.3930026 264.853333,42.4146691 264.94,42.4146691 L266.37,43.0646691 L267.54,44.1046691 C267.800001,44.3646704 268.103332,44.7546665 268.45,45.2746691 C268.623334,45.7080046 268.753333,46.0763342 268.84,46.3796691 C268.926667,46.6830039 269.013333,46.9646678 269.1,47.2246691 L269.36,48.6546691 C269.36,49.0013375 269.338334,49.3263342 269.295,49.6296691 C269.251666,49.9330039 269.23,50.1713349 269.23,50.3446691 C269.056666,51.0380059 268.97,51.4713349 268.97,51.6446691 L268.32,53.7246691 C267.973332,54.8513414 267.49667,56.0213297 266.89,57.2346691 C266.716666,57.7546717 266.500001,58.2746665 266.24,58.7946691 L265.46,60.3546691 C264.939997,61.3946743 264.398336,62.4129974 263.835,63.4096691 C263.271664,64.4063407 262.730003,65.381331 262.21,66.3346691 L259.902011,70.2404963 L322.14,59.9646691 C323.613341,59.7046678 324.978327,60.0296645 326.235,60.9396691 C327.491673,61.8496736 328.249999,63.0413284 328.51,64.5146691 C328.770001,65.9880098 328.445005,67.3529961 327.535,68.6096691 C326.624995,69.866342 325.433341,70.6246678 323.96,70.8846691 L323.7,70.8846691 L255.1949,79.3231473 C252.950689,85.8051877 250.739072,92.3523125 248.56,98.9646691 L240.5,123.664669 L234.26,143.034669 C235.473339,140.781324 236.664994,138.593013 237.835,136.469669 C239.005006,134.346325 240.239993,132.158014 241.54,129.904669 C243.966679,125.484647 246.653319,120.978025 249.6,116.384669 C250.20667,115.257997 250.943329,114.131341 251.81,113.004669 C252.156668,112.397999 252.524998,111.834672 252.915,111.314669 C253.305002,110.794666 253.716665,110.231339 254.15,109.624669 L255.32,107.934669 L256.88,106.244669 L257.79,105.334669 L258.96,104.424669 C259.133334,104.251335 259.306666,104.143003 259.48,104.099669 C259.653334,104.056336 259.826666,103.948003 260,103.774669 L260.91,103.514669 C260.996667,103.514669 261.083333,103.493003 261.17,103.449669 C261.256667,103.406336 261.386666,103.384669 261.56,103.384669 L262.08,103.384669 C262.68667,103.384669 263.163332,103.428002 263.51,103.514669 C264.030003,103.688003 264.419999,103.904668 264.68,104.164669 C265.026668,104.338003 265.373332,104.554668 265.72,104.814669 C265.893334,104.988003 266.066666,105.248001 266.24,105.594669 C266.500001,105.85467 266.63,106.071335 266.63,106.244669 L266.89,106.764669 L267.28,107.804669 L267.54,109.234669 C267.626667,109.668005 267.67,110.079667 267.67,110.469669 L267.67,111.704669 C267.67,112.138005 267.648334,112.506334 267.605,112.809669 C267.561666,113.113004 267.54,113.481334 267.54,113.914669 C267.54,114.434672 267.453334,115.127998 267.28,115.994669 C267.019999,118.681349 266.630003,121.324656 266.11,123.924669 L264.42,131.724669 C264.073332,132.938008 263.748335,134.194663 263.445,135.494669 C263.141665,136.794676 262.773336,138.05133 262.34,139.264669 L261.95,140.564669 L279.998727,116.427215 L280.02,116.384669 L280.93,114.694669 C281.276668,114.174666 281.579999,113.654672 281.84,113.134669 C282.100001,112.614666 282.446664,112.094672 282.88,111.574669 C283.226668,110.967999 283.573332,110.404672 283.92,109.884669 C284.266668,109.364666 284.656664,108.844672 285.09,108.324669 L286.26,106.764669 L287.82,105.334669 L289.51,103.774669 C290.030003,103.428001 290.766662,102.951339 291.72,102.344669 C292.673338,101.824666 293.669995,101.521336 294.71,101.434669 C295.143336,101.348002 295.793329,101.304669 296.66,101.304669 C297.093335,101.304669 297.439999,101.348002 297.7,101.434669 L298.22,101.434669 L298.35,101.564669 L298.61,101.564669 C300.083341,101.82467 301.231663,102.56133 302.055,103.774669 C302.878337,104.988008 303.160001,106.331328 302.9,107.804669 C302.9,107.891336 302.878334,107.934669 302.835,107.934669 C302.791666,107.934669 302.77,107.978002 302.77,108.064669 L303.55,109.234669 C303.896668,110.10134 304.156666,110.967998 304.33,111.834669 C304.416667,112.268005 304.481666,112.679667 304.525,113.069669 C304.568334,113.459671 304.59,113.871334 304.59,114.304669 C304.676667,114.738005 304.72,115.106334 304.72,115.409669 L304.72,116.514669 L304.33,120.544669 L303.55,124.314669 C303.376666,124.921339 303.203334,125.506333 303.03,126.069669 C302.856666,126.633005 302.683334,127.217999 302.51,127.824669 C302.336666,128.344672 302.185001,128.864666 302.055,129.384669 C301.924999,129.904672 301.773334,130.381334 301.6,130.814669 L301.99,131.464669 L302.77,132.374669 C303.116668,132.721337 303.376666,132.938002 303.55,133.024669 C303.896668,133.198003 304.156666,133.284669 304.33,133.284669 C304.676668,133.458003 305.066665,133.458003 305.5,133.284669 C305.673334,133.284669 306.106663,133.198003 306.8,133.024669 L308.23,132.374669 C308.490001,132.114668 308.966663,131.811337 309.66,131.464669 L310.96,130.294669 C312.780009,128.734661 314.469992,126.914679 316.03,124.834669 C316.723337,123.881331 317.416663,122.884674 318.11,121.844669 C318.532702,121.210617 318.955399,120.560464 319.378098,119.894203 C319.977197,117.987686 320.594493,116.081191 321.23,114.174669 C321.923337,112.094659 322.57333,110.014679 323.18,107.934669 C323.78667,105.854659 324.39333,103.731347 325,101.564669 C325.433335,100.091328 326.299994,98.964673 327.6,98.1846691 C328.900007,97.4046652 330.286659,97.2313336 331.76,97.6646691 C333.233341,98.0980046 334.359996,98.986329 335.14,100.329669 C335.920004,101.673009 336.093335,103.081328 335.66,104.554669 C335.66,104.81467 335.573334,105.118001 335.4,105.464669 C334.446662,107.458012 333.515005,109.451326 332.605,111.444669 C331.694995,113.438012 330.806671,115.431326 329.94,117.424669 L324.61,129.514669 L320.97,138.224669 C322.096672,136.751328 323.223328,135.256343 324.35,133.739669 C325.476672,132.222995 326.646661,130.72801 327.86,129.254669 C329.333341,127.521327 330.784993,125.809678 332.215,124.119669 C333.645007,122.429661 335.096659,120.761344 336.57,119.114669 C336.916668,118.681334 337.263332,118.269671 337.61,117.879669 C337.956668,117.489667 338.346664,117.078005 338.78,116.644669 C339.560004,115.777998 340.383329,114.954673 341.25,114.174669 L343.98,111.704669 L345.67,110.534669 L346.32,110.144669 L347.1,109.754669 L347.23,109.624669 L347.49,109.624669 L347.62,109.494669 L347.88,109.494669 L348.14,109.364669 L348.27,109.364669 C348.443334,109.364669 348.616666,109.343003 348.79,109.299669 C348.963334,109.256336 349.179999,109.234669 349.44,109.234669 C349.613334,109.234669 349.743333,109.278002 349.83,109.364669 C349.83,109.278002 349.916666,109.256336 350.09,109.299669 C350.263334,109.343003 350.306667,109.364669 350.22,109.364669 L350.35,109.364669 C350.436667,109.364669 350.501666,109.386336 350.545,109.429669 C350.588334,109.473003 350.653333,109.494669 350.74,109.494669 C351.433337,109.75467 352.08333,110.101334 352.69,110.534669 L353.73,111.574669 L354.64,113.394669 L355.03,114.694669 C355.116667,114.95467 355.16,115.301334 355.16,115.734669 C355.246667,116.168005 355.311666,116.536334 355.355,116.839669 C355.398334,117.143004 355.42,117.468001 355.42,117.814669 C355.42,118.07467 355.441666,118.356334 355.485,118.659669 C355.528334,118.963004 355.55,119.288001 355.55,119.634669 C355.55,121.974681 355.420001,124.227992 355.16,126.394669 C355.073333,127.521341 354.986667,128.62633 354.9,129.709669 C354.813333,130.793008 354.683334,131.897997 354.51,133.024669 L353.99,139.524669 C353.99,140.044672 353.968334,140.564666 353.925,141.084669 C353.881666,141.604672 353.86,142.124666 353.86,142.644669 C353.86,142.90467 353.881666,143.143001 353.925,143.359669 C353.968334,143.576337 353.99,143.771335 353.99,143.944669 L355.42,142.384669 L357.24,139.914669 C357.933337,139.047998 358.561664,138.18134 359.125,137.314669 C359.688336,136.447998 360.27333,135.538007 360.88,134.584669 C362.093339,132.76466 363.241661,130.923012 364.325,129.059669 C365.408339,127.196326 366.513328,125.311345 367.64,123.404669 L370.846667,117.52578 Z M223.920045,113.626103 C223.842729,113.157249 223.952714,112.646772 224.25,112.094669 L230.49,100.654669 L236.99,89.2146691 L241.677135,80.9882695 L207.61,85.1846691 C207.176664,86.1380072 206.700003,87.0263316 206.18,87.8496691 C205.659997,88.6730065 205.183336,89.5179981 204.75,90.3846691 C204.489999,91.0780059 204.251668,91.7279994 204.035,92.3346691 C203.818332,92.9413388 203.623334,93.5913323 203.45,94.2846691 C202.496662,96.9713492 201.586671,99.6363225 200.72,102.279669 C199.853329,104.923016 198.986671,107.631322 198.12,110.404669 C197.166662,113.091349 196.278337,115.777989 195.455,118.464669 C194.631663,121.151349 193.830004,123.837989 193.05,126.524669 C192.616665,127.911343 192.205002,129.276329 191.815,130.619669 C191.424998,131.963009 191.013336,133.327995 190.58,134.714669 L188.37,142.904669 L187.33,146.934669 C187.156666,147.628006 187.005001,148.321332 186.875,149.014669 C186.744999,149.708006 186.593334,150.401332 186.42,151.094669 C186.073332,152.481343 185.748335,153.846329 185.445,155.189669 C185.141665,156.533009 184.860001,157.897995 184.6,159.284669 C184.339999,160.671343 184.101668,162.057995 183.885,163.444669 C183.684234,164.729574 183.502073,166.014461 183.338513,167.299363 L193.967792,167.369384 C194.778574,166.307673 195.599308,165.216104 196.43,164.094669 C197.210004,162.967997 197.989996,161.819675 198.77,160.649669 C199.550004,159.479663 200.329996,158.288008 201.11,157.074669 L205.4,149.794669 L207.61,146.154669 L209.56,142.514669 L217.49,127.434669 L221.13,119.764669 L222.95,115.864669 L223.920045,113.626103 Z M716.69,113.134669 L716.82,113.134669 C716.906667,113.134669 716.95,113.091336 716.95,113.004669 C717.036667,113.004669 717.08,112.961336 717.08,112.874669 L716.82,112.874669 L716.04,113.264669 L715.13,113.784669 L713.31,115.214669 L711.62,117.034669 C711.01333,117.728006 710.428336,118.399666 709.865,119.049669 C709.301664,119.699672 708.760003,120.371332 708.24,121.064669 L705.25,125.484669 C704.296662,127.044677 703.386671,128.626328 702.52,130.229669 C701.653329,131.83301 700.830004,133.457994 700.05,135.104669 C699.616664,135.884673 699.226668,136.686332 698.88,137.509669 C698.533332,138.333007 698.186668,139.177998 697.84,140.044669 C697.493332,140.91134 697.190001,141.756332 696.93,142.579669 C696.669999,143.403007 696.410001,144.247998 696.15,145.114669 L695.5,147.714669 L695.11,150.184669 L695.11,152.394669 C695.283334,152.741337 695.37,152.914669 695.37,152.914669 L695.63,152.914669 L696.54,152.524669 L697.45,152.004669 L698.36,151.224669 C698.96667,150.878001 699.57333,150.314673 700.18,149.534669 C700.526668,149.188001 700.829999,148.863004 701.09,148.559669 C701.350001,148.256334 701.609999,147.931337 701.87,147.584669 L704.99,143.164669 C705.856671,141.777995 706.766662,140.218011 707.72,138.484669 L710.45,133.674669 C710.883336,132.894665 711.294998,132.093007 711.685,131.269669 C712.075002,130.446332 712.486664,129.644673 712.92,128.864669 C714.133339,126.177989 715.346661,123.513016 716.56,120.869669 C717.773339,118.226323 718.986661,115.518016 720.2,112.744669 C719.853332,112.918003 719.528335,113.048002 719.225,113.134669 C718.921665,113.221336 718.553336,113.264669 718.12,113.264669 C717.686664,113.351336 717.210003,113.308003 716.69,113.134669 Z M107.9,124.054669 C108.593337,114.087953 109.30833,104.229718 110.045,94.4796691 C110.78167,84.7296203 111.496663,74.8713856 112.19,64.9046691 L114.14,37.6046691 L106.86,52.0346691 C103.219982,59.1413713 99.5800182,66.2263004 95.94,73.2896691 C92.2999818,80.3530377 88.6166853,87.4379669 84.89,94.5446691 C81.1633147,101.651371 77.4366853,108.714634 73.71,115.734669 C69.9833147,122.754704 66.1700195,129.774634 62.27,136.794669 C59.4966528,141.821361 56.7883465,146.782978 54.145,151.679669 C51.5016534,156.57636 48.7933472,161.494644 46.02,166.434669 L104.52,166.824669 C105.040003,159.717967 105.581664,152.611371 106.145,145.504669 C106.708336,138.397967 107.29333,131.248038 107.9,124.054669 Z M291.59,114.174669 C291.156665,114.521337 290.788335,114.868001 290.485,115.214669 C290.181665,115.561337 289.813335,115.951334 289.38,116.384669 L287.43,118.854669 C287.256666,119.11467 287.105001,119.353001 286.975,119.569669 C286.844999,119.786337 286.693334,119.981335 286.52,120.154669 L285.61,121.584669 C285.00333,122.538007 284.418336,123.491331 283.855,124.444669 C283.291664,125.398007 282.793336,126.351331 282.36,127.304669 C281.406662,129.124678 280.496671,131.161324 279.63,133.414669 L278.59,136.534669 C278.416666,137.054672 278.265001,137.574666 278.135,138.094669 C278.004999,138.614672 277.896667,139.134666 277.81,139.654669 C277.636666,140.174672 277.506667,140.694666 277.42,141.214669 L277.16,142.774669 C277.073333,143.294672 277.03,143.814666 277.03,144.334669 L277.03,145.764669 C277.03,146.284672 277.051666,146.761334 277.095,147.194669 C277.138334,147.628005 277.203333,148.061334 277.29,148.494669 C277.463334,149.014672 277.636666,149.361335 277.81,149.534669 L278.2,150.184669 C278.546668,150.358003 278.763333,150.444669 278.85,150.444669 L279.76,150.704669 L280.41,150.704669 C280.496667,150.704669 280.561666,150.683003 280.605,150.639669 C280.648334,150.596336 280.756666,150.574669 280.93,150.574669 C281.103334,150.574669 281.449997,150.488003 281.97,150.314669 C282.750004,149.968001 283.486663,149.491339 284.18,148.884669 L286.39,146.804669 C287.603339,145.331328 288.773328,143.554679 289.9,141.474669 C290.853338,139.567993 291.719996,137.574679 292.5,135.494669 C292.760001,134.801332 293.041665,134.043007 293.345,133.219669 C293.648335,132.396332 293.886666,131.55134 294.06,130.684669 L293.54,128.604669 C293.366666,127.911332 293.193334,127.174673 293.02,126.394669 C292.846666,125.701332 292.716667,124.986339 292.63,124.249669 C292.543333,123.512999 292.413334,122.798006 292.24,122.104669 C292.24,121.671334 292.218334,121.281337 292.175,120.934669 C292.131666,120.588001 292.11,120.241337 292.11,119.894669 L292.11,118.789669 C292.11,118.486334 292.066667,118.118005 291.98,117.684669 L291.98,115.474669 C292.066667,115.214668 292.11,114.911337 292.11,114.564669 L292.11,113.524669 L291.59,114.174669 Z M443.3,54.1146691 C444.513339,53.5079994 445.748327,52.9446717 447.005,52.4246691 C448.261673,51.9046665 449.539994,51.3846717 450.84,50.8646691 L458.38,47.7446691 L473.72,41.8946691 C476.233346,40.941331 478.789987,40.0096736 481.39,39.0996691 C483.990013,38.1896645 486.546654,37.3013401 489.06,36.4346691 C491.660013,35.481331 494.259987,34.5930065 496.86,33.7696691 C499.460013,32.9463316 502.059987,32.1013401 504.66,31.2346691 L507.65,30.3246691 L513.24,10.8246691 C513.673335,9.17799418 514.648326,7.94300653 516.165,7.11966908 C517.681674,6.29633163 519.263325,6.10133358 520.91,6.53466908 C522.556675,6.96800458 523.791663,7.94299483 524.615,9.45966908 C525.438337,10.9763433 525.633335,12.5579942 525.2,14.2046691 C525.113333,14.2913362 525.07,14.378002 525.07,14.4646691 L521.04,26.4246691 C523.553346,25.7313323 526.088321,25.0380059 528.645,24.3446691 C531.201679,23.6513323 533.779987,23.0013388 536.38,22.3946691 C537.766674,22.0480007 539.13166,21.7230039 540.475,21.4196691 C541.81834,21.1163342 543.183326,20.8346704 544.57,20.5746691 C547.170013,19.9679994 549.899986,19.4480046 552.76,19.0146691 C554.146674,18.7546678 555.51166,18.5163368 556.855,18.2996691 C558.19834,18.0830013 559.606659,17.8880033 561.08,17.7146691 C563.76668,17.3680007 566.583319,17.1080033 569.53,16.9346691 C571.003341,16.7613349 572.476659,16.6746691 573.95,16.6746691 C575.423341,16.6746691 576.939992,16.718002 578.5,16.8046691 C579.193337,16.8913362 579.929996,16.978002 580.71,17.0646691 C581.490004,17.1513362 582.313329,17.2813349 583.18,17.4546691 C583.960004,17.6280033 584.761663,17.8013349 585.585,17.9746691 C586.408337,18.1480033 587.296662,18.4080007 588.25,18.7546691 L590.85,20.0546691 C591.716671,20.5746717 592.626662,21.2246652 593.58,22.0046691 C594.360004,22.6980059 595.183329,23.6079968 596.05,24.7346691 C596.743337,25.9480085 597.263332,27.1613297 597.61,28.3746691 C597.870001,29.5880085 598,30.7579968 598,31.8846691 L598,33.3146691 C597.913333,33.5746704 597.87,34.0079994 597.87,34.6146691 C597.696666,35.4813401 597.523334,36.3046652 597.35,37.0846691 L596.83,39.4246691 C596.396665,41.071344 595.855003,42.5879955 595.205,43.9746691 C594.554997,45.3613427 593.883337,46.7479955 593.19,48.1346691 C592.496663,49.4346756 591.738337,50.6913297 590.915,51.9046691 C590.091663,53.1180085 589.246671,54.3313297 588.38,55.5446691 C586.646658,57.8846808 584.80501,60.0946587 582.855,62.1746691 C580.90499,64.2546795 578.933343,66.2913258 576.94,68.2846691 C574.946657,70.2780124 572.888344,72.1629935 570.765,73.9396691 C568.641656,75.7163446 566.496678,77.4713271 564.33,79.2046691 C562.163323,80.9380111 560.018344,82.6279942 557.895,84.2746691 C555.771656,85.921344 553.583345,87.5679942 551.33,89.2146691 C550.983332,89.3880033 550.680001,89.6046678 550.42,89.8646691 C550.159999,90.1246704 549.900001,90.3413349 549.64,90.5146691 C550.420004,90.3413349 551.221663,90.2113362 552.045,90.1246691 C552.868337,90.038002 553.713329,89.9513362 554.58,89.8646691 C556.226675,89.6913349 557.829992,89.648002 559.39,89.7346691 C560.950008,89.8213362 562.553325,89.9513349 564.2,90.1246691 C567.406683,90.6446717 570.569984,91.5546626 573.69,92.8546691 C576.896683,94.1546756 579.799987,95.9313245 582.4,98.1846691 C585.08668,100.611348 587.253325,103.341321 588.9,106.374669 C589.766671,107.934677 590.459997,109.537994 590.98,111.184669 C591.500003,112.831344 591.889999,114.521327 592.15,116.254669 C592.670003,119.634686 592.670003,122.971319 592.15,126.264669 C591.976666,127.911344 591.673335,129.514661 591.24,131.074669 C590.806664,132.634677 590.330003,134.151328 589.81,135.624669 C589.20333,137.09801 588.553337,138.527995 587.86,139.914669 C587.166663,141.301343 586.430004,142.687995 585.65,144.074669 C584.869996,145.374676 584.068337,146.652996 583.245,147.909669 C582.421663,149.166342 581.533338,150.40133 580.58,151.614669 C579.626662,152.828008 578.651672,153.997997 577.655,155.124669 C576.658328,156.251341 575.640005,157.334664 574.6,158.374669 C572.51999,160.541347 570.375011,162.599659 568.165,164.549669 C565.954989,166.499679 563.680012,168.38466 561.34,170.204669 C556.659977,173.75802 551.850025,177.007988 546.91,179.954669 C544.396654,181.514677 541.883346,182.987995 539.37,184.374669 C536.856654,185.761343 534.300013,187.104663 531.7,188.404669 L527.8,190.354669 C527.106663,190.61467 526.45667,190.896334 525.85,191.199669 L523.9,192.174669 L515.97,195.684669 C510.769974,197.938014 505.440027,200.017993 499.98,201.924669 C497.29332,202.964674 494.60668,203.939665 491.92,204.849669 C489.23332,205.759674 486.503347,206.647998 483.73,207.514669 C480.956653,208.38134 478.205014,209.226332 475.475,210.049669 C472.744986,210.873007 469.993347,211.631332 467.22,212.324669 C461.759973,213.79801 456.256694,215.206329 450.71,216.549669 C445.163306,217.893009 439.573362,219.17133 433.94,220.384669 C433.159996,220.558003 432.445003,220.428005 431.795,219.994669 C431.144997,219.561334 430.733334,218.954673 430.56,218.174669 C430.386666,217.394665 430.516664,216.658006 430.95,215.964669 C431.383336,215.271332 431.989996,214.838003 432.77,214.664669 C443.690055,212.324657 454.653278,209.594685 465.66,206.474669 C468.34668,205.694665 471.03332,204.893007 473.72,204.069669 C476.40668,203.246332 479.09332,202.40134 481.78,201.534669 C484.46668,200.581331 487.131653,199.628007 489.775,198.674669 C492.418347,197.721331 495.039987,196.768007 497.64,195.814669 C502.926693,193.734659 508.104975,191.546347 513.175,189.249669 C518.245025,186.952991 523.249975,184.461349 528.19,181.774669 L535.47,177.614669 C536.683339,176.921332 537.874994,176.206339 539.045,175.469669 C540.215006,174.732999 541.363328,173.974673 542.49,173.194669 C547.25669,170.074653 551.719979,166.781353 555.88,163.314669 C560.213355,159.674651 564.113316,155.861356 567.58,151.874669 C569.313342,149.881326 570.959992,147.801347 572.52,145.634669 C574.080008,143.467992 575.466661,141.258014 576.68,139.004669 C577.980006,136.664657 579.019996,134.324681 579.8,131.984669 C580.233336,130.77133 580.579999,129.579675 580.84,128.409669 C581.100001,127.239663 581.316666,126.048008 581.49,124.834669 C581.750001,122.321323 581.706668,120.024679 581.36,117.944669 C580.926665,115.691324 580.190005,113.611345 579.15,111.704669 C578.196662,109.88466 576.853342,108.194677 575.12,106.634669 C573.386658,105.247995 571.436678,104.078007 569.27,103.124669 C567.276657,102.257998 565.023346,101.608005 562.51,101.174669 C561.296661,100.914668 560.061673,100.741336 558.805,100.654669 C557.548327,100.568002 556.313339,100.524669 555.1,100.524669 C549.986641,100.698003 544.830026,101.477995 539.63,102.864669 C536.94332,103.558006 534.386679,104.337998 531.96,105.204669 C530.659993,105.638005 529.381673,106.114666 528.125,106.634669 C526.868327,107.154672 525.590007,107.674666 524.29,108.194669 L524.03,108.324669 C523.336663,108.758005 522.600004,108.84467 521.82,108.584669 C521.039996,108.324668 520.476668,107.848006 520.13,107.154669 C519.696664,106.461332 519.609999,105.746339 519.87,105.009669 C520.130001,104.272999 520.606663,103.688005 521.3,103.254669 C523.640012,101.43466 526.109987,99.7446769 528.71,98.1846691 L532.48,96.1046691 C532.913335,95.8446678 533.303332,95.5846704 533.65,95.3246691 C533.996668,95.0646678 534.386665,94.7613375 534.82,94.4146691 L541.32,89.6046691 L547.56,84.5346691 C549.64001,82.8013271 551.676657,81.0463446 553.67,79.2696691 C555.663343,77.4929935 557.613324,75.6513453 559.52,73.7446691 C561.426676,71.8379929 563.289991,69.9096788 565.11,67.9596691 C566.930009,66.0096593 568.706658,64.0380124 570.44,62.0446691 C571.306671,61.091331 572.129996,60.0946743 572.91,59.0546691 L577.59,52.8146691 C577.936668,52.2946665 578.261665,51.7530052 578.565,51.1896691 C578.868335,50.6263329 579.236664,50.0846717 579.67,49.5646691 C580.363337,48.4379968 580.991664,47.3546743 581.555,46.3146691 C582.118336,45.2746639 582.659997,44.1913414 583.18,43.0646691 C583.613335,41.9379968 584.024998,40.8330078 584.415,39.7496691 C584.805002,38.6663303 585.129999,37.5613414 585.39,36.4346691 C585.563334,35.9146665 585.671666,35.3946717 585.715,34.8746691 C585.758334,34.3546665 585.823333,33.8346717 585.91,33.3146691 L585.91,32.0146691 C585.91,31.7546678 585.866667,31.5813362 585.78,31.4946691 L585.78,31.3646691 L585.52,31.1046691 L584.87,30.7796691 C584.609999,30.6496684 584.263336,30.4980033 583.83,30.3246691 L580.97,29.5446691 L577.59,29.1546691 C575.249988,29.068002 572.780013,29.068002 570.18,29.1546691 C568.966661,29.2413362 567.710006,29.328002 566.41,29.4146691 C565.109993,29.5013362 563.810007,29.6313349 562.51,29.8046691 L554.71,30.9746691 C553.409993,31.1480033 552.110007,31.3430013 550.81,31.5596691 C549.509994,31.7763368 548.210006,32.0146678 546.91,32.2746691 C545.609993,32.5346704 544.28834,32.7946678 542.945,33.0546691 C541.60166,33.3146704 540.280006,33.6180007 538.98,33.9646691 C533.779974,35.0046743 528.580026,36.1746626 523.38,37.4746691 L516.62,39.1646691 L470.21,175.924669 C469.776665,177.051341 468.953339,177.48467 467.74,177.224669 C466.613328,176.791334 466.223332,176.011341 466.57,174.884669 L504.27,42.4146691 C499.589977,43.7146756 494.953356,45.0146626 490.36,46.3146691 C485.766644,47.6146756 481.130023,48.9579955 476.45,50.3446691 C473.849987,51.0380059 471.250013,51.7746652 468.65,52.5546691 L445.25,59.5746691 C444.469996,59.8346704 443.733337,59.769671 443.04,59.3796691 C442.346663,58.9896671 441.870001,58.404673 441.61,57.6246691 C441.436666,56.9313323 441.501665,56.2596723 441.805,55.6096691 C442.108335,54.9596658 442.606663,54.4613375 443.3,54.1146691 Z" id="AnthonyBudd"></path>
        </g>
    </g>
</svg>