<?xml version="1.0" encoding="UTF-8"?>
<svg width="1500px" height="600px" viewBox="0 0 1500 600" version="1.1" xmlns="http://www.w3.org/2000/svg" xmlns:xlink="http://www.w3.org/1999/xlink">
    <!-- Generator: Sketch 51.3 (57544) - http://www.bohemiancoding.com/sketch -->
    <title>Oval</title>
    <desc>Created with Sketch.</desc>
    <defs>
        <rect id="path-1" x="0" y="0" width="1500" height="600"></rect>
    </defs>
    <g id="Page-1" stroke="none" stroke-width="1" fill="none" fill-rule="evenodd">
        <g id="Oval">
            <mask id="mask-2" fill="white">
                <use xlink:href="#path-1"></use>
            </mask>
            <use id="Mask" fill="#D8D8D8" xlink:href="#path-1"></use>
            <circle fill="#C8B0B0" mask="url(#mask-2)" cx="300" cy="300" r="300"></circle>
            <g id="Page-1" stroke="none" stroke-width="1" fill="none" fill-rule="evenodd">
        <path d="M43.1609477,607.210686 C-8.3455625,564.618679 -7.06854159,476.18956 12.5124458,417.777665 C32.9447804,356.931941 68.2756923,345.574073 140.640211,268.908461 C270.896344,131.802763 238.970821,82.7205455 323.679875,35.2608808 C418.179423,-17.8777182 541.199104,-3.27474442 619.948727,28.7706702 C696.995655,60.4104467 686.779488,90.8333086 804.265412,163.442539 C926.85942,239.702513 962.616005,221.448796 1003.055,276.615586 C1069.46009,367.072895 1030.29811,492.820725 1021.78464,520.809758 C1007.73741,566.241232 991.561813,617.757278 943.035018,650.613969 C873.650215,697.262357 817.461295,653.453436 736.15763,695.234167 C667.198501,730.524687 682.522752,775.144884 616.117664,829.906036 C519.489748,909.816753 344.537883,934.155043 276.004428,869.252937 C211.302035,808.001575 277.281448,700.101825 205.342604,646.557588 C151.707725,607.210686 95.0931315,650.613969 43.1609477,607.210686 Z" id="Shape" fill="url(#linearGradient-1)" fill-rule="nonzero"></path>
    </g>
        </g>
    </g>
</svg>