<?xml version="1.0" encoding="UTF-8"?>
<svg width="1500px" height="600px" viewBox="0 0 1500 600" version="1.1" xmlns="http://www.w3.org/2000/svg" xmlns:xlink="http://www.w3.org/1999/xlink">
    <defs>  
        <radialGradient
            id="gradient-1"
            r=".5"
            cx="0.5" cy="0.5"
            fx="0.5" fy="0.5"
            spreadMethod="pad">
 
            <animate
                attributeName="cx"
                values="0.5;0.2;0.3;0.5"
                dur="20s"
                calcMode="spline"
                _keySplines="0.4 0 0.2 1; 0.4 0 0.2 1"
                repeatCount="indefinite"/>
            <animate
                attributeName="cy"
                values="0.5;0.2;0.6;0.5"
                dur="20s"
                repeatCount="indefinite"/>
            <animate
                attributeName="fx"
                values="0.5;0.2;0.5;0.5"
                dur="20s"
                repeatCount="indefinite"/>
            <animate
                attributeName="fy"
                values=".5;0.2;0.6;0.5"
                dur="20s"
                repeatCount="indefinite"/>
            <animate
                attributeName="r"
                values="0.5;1;0.5"
                dur="20s"
                repeatCount="indefinite"/>
    
            <stop offset="0%" stop-color="rgba(78, 14, 250, 0.8)">
                <animate
                    attributeName="stop-color"
                    values="
                        rgba(78, 14, 250, 0.8);
                        rgba(249, 0, 236, 1);
                        rgba(78, 14, 250, 0.8)"
                    dur="20s"
                    repeatCount="indefinite"/>
            </stop>
            <stop offset="100%" stop-color="rgba(255, 217, 168, 0)">
            </stop>
        </radialGradient>

        <radialGradient
            id="gradient-2"
            r=".5"
            cx="0.5" cy="0.5"
            fx="0.5" fy="0.5"
            spreadMethod="pad">

            <animate
                attributeName="cx"
                values="0.5;1;0.5"
                dur="30s"
                calcMode="spline"
                _keySplines="0.4 0 0.2 1; 0.4 0 0.2 1"
                repeatCount="indefinite"/>
            <animate
                attributeName="cy"
                values="0.5;1;0.5"
                dur="30s"
                repeatCount="indefinite"/>
            <animate
                attributeName="fx"
                values="0.5;1;0.5"
                dur="30s"
                repeatCount="indefinite"/>
            <animate
                attributeName="fy"
                values="0.5;1;0.5"
                dur="30s"
                repeatCount="indefinite"/> 
            <stop offset="0%" stop-color="rgba(255, 217, 168, 1)">
                <animate
                    attributeName="stop-color"
                    values="
                        rgba(255, 2, 99, 0.8);
                        rgba(255, 71, 128, 0.5);
                        rgba(255, 2, 99, 0.8)"
                    dur="30s"
                    repeatCount="indefinite"/>
            </stop>
            <stop offset="100%" stop-color="rgba(255, 217, 168, 0)">
            </stop>
        </radialGradient>
    </defs>

    <g id="Page-1" stroke="none" stroke-width="1" fill="none" fill-rule="evenodd">
        <rect x="0" y="0" width="1500" height="600" fill="rgba(18, 0, 179, 1)">
            <animate
                attributeName="fill"
                values="
                    rgba(18, 0, 179, 1);
                    rgba(255, 217, 168, 1);
                    rgba(18, 0, 179, 1)"
                dur="25s"
                repeatCount="indefinite"/>
        </rect>
        <rect x="-400" y="-100" width="2000" height="1200" fill="url('#gradient-1')"></rect>
        <rect x="300" y="-500" width="2000" height="1200" fill="url('#gradient-2')"></rect>

        <g id="Group" transform="translate(365.000000, 106.000000)" fill="#FFFFFF">
            <path d="M703.6507,139.992722 C703.618645,140.045261 703.586579,140.097777 703.5545,140.150269 C702.223493,142.32828 700.87234,144.506258 699.501,146.684269 C698.855663,147.813608 698.170004,148.902597 697.444,149.951269 C696.717996,150.999941 695.992004,152.08893 695.266,153.218269 C694.862665,153.782938 694.479502,154.327433 694.1165,154.851769 C693.753498,155.376105 693.370335,155.880266 692.967,156.364269 C692.240996,157.412941 691.434338,158.461597 690.547,159.510269 C690.143665,160.074938 689.619337,160.377435 688.974,160.417769 C688.328663,160.458102 687.764002,160.276604 687.28,159.873269 C686.876665,159.550601 686.594334,159.106938 686.433,158.542269 C686.271666,157.896932 686.150667,157.251605 686.07,156.606269 L685.828,154.670269 C685.747333,154.024932 685.686834,153.379605 685.6465,152.734269 C685.606166,152.088932 685.586,151.443605 685.586,150.798269 L685.586,147.047269 C685.586,145.837263 685.666666,144.586942 685.828,143.296269 C685.989334,140.876257 686.190999,138.436115 686.433,135.975769 C686.675001,133.515423 686.997665,131.075281 687.401,128.655269 C687.723668,126.235257 688.086665,123.815281 688.49,121.395269 C688.893335,118.975257 689.296665,116.595614 689.7,114.256269 C690.103335,111.836257 690.546998,109.436447 691.031,107.056769 C691.515002,104.67709 691.998998,102.277281 692.483,99.8572689 C692.483,99.5346006 692.523333,99.2926031 692.604,99.1312689 C692.200665,99.7766055 691.857835,100.462265 691.5755,101.188269 C691.293165,101.914273 690.990668,102.599932 690.668,103.245269 C689.215993,106.391285 687.723674,109.517087 686.191,112.622769 C684.658326,115.728451 683.085341,118.81392 681.472,121.879269 L676.39,131.075269 C675.502662,132.527276 674.575005,133.999428 673.607,135.491769 C672.638995,136.98411 671.590339,138.415929 670.461,139.787269 L668.646,141.844269 C668.242665,142.247604 667.879668,142.590434 667.557,142.872769 C667.234332,143.155104 666.871335,143.457601 666.468,143.780269 L665.258,144.748269 L663.927,145.474269 C663.523665,145.635603 662.999337,145.796935 662.354,145.958269 L661.386,146.200269 C661.224666,146.200269 661.023001,146.180102 660.781,146.139769 C660.538999,146.099435 660.337334,146.079269 660.176,146.079269 C659.853332,145.998602 659.450002,145.796937 658.966,145.474269 C658.723999,145.312935 658.542501,145.151603 658.4215,144.990269 C658.300499,144.828935 658.159334,144.667603 657.998,144.506269 C657.836666,144.264268 657.675334,143.901271 657.514,143.417269 L657.272,142.570269 C657.191333,142.166934 657.151,141.642605 657.151,140.997269 C657.151,140.271265 657.191333,139.746937 657.272,139.424269 C657.292071,139.002776 657.327124,138.576292 657.377158,138.144814 L656.183,139.424269 L655.215,140.271269 C654.892332,140.593937 654.489002,140.876268 654.005,141.118269 L652.553,141.844269 C652.068998,142.005603 651.746334,142.086269 651.585,142.086269 L650.254,142.086269 C650.011999,142.005602 649.749835,141.924936 649.4675,141.844269 C649.185165,141.763602 648.963334,141.642603 648.802,141.481269 L647.834,140.755269 C647.591999,140.432601 647.410501,140.15027 647.2895,139.908269 C647.168499,139.666268 647.027334,139.42427 646.866,139.182269 C646.543332,138.536932 646.341667,138.052937 646.261,137.730269 L645.898,136.520269 C645.817333,136.116934 645.756834,135.693438 645.7165,135.249769 C645.676166,134.8061 645.575334,134.382604 645.414,133.979269 C645.252666,133.172598 645.151834,132.386106 645.1115,131.619769 C645.071166,130.853432 645.010667,130.107273 644.93,129.381269 L641.542,134.947269 L638.154,140.271269 C637.024661,141.965277 635.814673,143.65926 634.524,145.353269 C633.878663,146.240607 633.21317,147.067432 632.5275,147.833769 C631.84183,148.600106 631.055338,149.386598 630.168,150.193269 C629.764665,150.596604 629.321002,150.979767 628.837,151.342769 C628.352998,151.705771 627.828669,152.048601 627.264,152.371269 C626.941332,152.532603 626.638835,152.673768 626.3565,152.794769 C626.074165,152.91577 625.771668,153.056935 625.449,153.218269 C624.964998,153.379603 624.602001,153.460269 624.36,153.460269 C624.198666,153.540936 623.997001,153.581269 623.755,153.581269 C623.674333,153.581269 623.593667,153.621602 623.513,153.702269 L622.545,153.702269 C622.383666,153.702269 622.242501,153.682102 622.1215,153.641769 C622.000499,153.601435 621.859334,153.581269 621.698,153.581269 C620.891329,153.258601 620.326668,152.97627 620.004,152.734269 C619.519998,152.411601 619.157001,152.048604 618.915,151.645269 L618.31,150.435269 C618.148666,150.031934 618.027667,149.689104 617.947,149.406769 C617.866333,149.124434 617.785667,148.821937 617.705,148.499269 L617.463,146.684269 L617.463,143.296269 L617.705,140.150269 L618.552,133.858269 L619.641,127.808269 L622.182,115.708269 L623.997,106.633269 L624.36,105.181269 L624.602,103.608269 C624.924668,102.236929 625.650661,101.168106 626.78,100.401769 C627.909339,99.6354318 629.15966,99.3732677 630.531,99.6152689 C631.90234,99.9379372 632.971163,100.66393 633.7375,101.793269 C634.503837,102.922608 634.766001,104.172929 634.524,105.544269 L634.161,106.754269 L633.798,107.480269 L633.435,108.085269 C633.354333,108.569271 633.152668,109.012934 632.83,109.416269 C632.668666,109.900271 632.487168,110.384266 632.2855,110.868269 C632.083832,111.352271 631.862001,111.795934 631.62,112.199269 L630.531,114.982269 L629.442,117.886269 C628.796663,119.741612 628.151337,121.617093 627.506,123.512769 C626.860663,125.408445 626.255669,127.324259 625.691,129.260269 L624.239,134.947269 L623.634,137.851269 L623.15,140.755269 L622.787,143.659269 L622.787,146.321269 C622.787,146.482603 622.807166,146.684268 622.8475,146.926269 C622.887834,147.16827 622.908,147.369935 622.908,147.531269 C622.988667,147.692603 623.029,147.853935 623.029,148.015269 C623.029,148.176603 623.069333,148.297602 623.15,148.378269 L623.271,148.378269 C623.351667,148.378269 623.412166,148.358102 623.4525,148.317769 C623.492834,148.277435 623.553333,148.257269 623.634,148.257269 L624.602,147.773269 C625.086002,147.531268 625.731329,147.047273 626.538,146.321269 L628.353,144.264269 C628.675668,143.860934 628.978165,143.477771 629.2605,143.114769 C629.542835,142.751767 629.804999,142.368604 630.047,141.965269 C630.611669,141.158598 631.156164,140.372106 631.6805,139.605769 C632.204836,138.839432 632.708998,138.012607 633.193,137.125269 L635.976,131.922269 C637.750676,128.130917 639.32366,124.46062 640.695,120.911269 C641.098335,120.023931 641.441165,119.096274 641.7235,118.128269 C642.005835,117.160264 642.308332,116.192274 642.631,115.224269 C642.792334,114.820934 642.953666,114.377271 643.115,113.893269 L643.599,112.441269 L643.962,110.989269 L643.962,110.868269 L644.204,110.263269 L644.204,109.900269 C644.284667,109.819602 644.325,109.698603 644.325,109.537269 C644.647668,108.165929 645.373661,107.117273 646.503,106.391269 C647.632339,105.665265 648.88266,105.463601 650.254,105.786269 C651.383339,106.02827 652.29083,106.572765 652.9765,107.419769 C653.66217,108.266773 654.045333,109.25493 654.126,110.384269 L654.247,112.078269 C654.166333,112.158936 654.126,112.239602 654.126,112.320269 L654.005,112.562269 L653.884,113.167269 L653.763,113.409269 L653.884,113.409269 L653.642,113.893269 L653.642,114.135269 L653.037,116.313269 L652.674,118.491269 C652.512666,118.894604 652.411834,119.257601 652.3715,119.580269 C652.331166,119.902937 652.270667,120.265934 652.19,120.669269 C651.705998,123.411949 651.343001,126.275587 651.101,129.260269 C651.020333,129.986273 650.98,130.712265 650.98,131.438269 L650.98,133.495269 L651.222,135.431269 C651.222,135.834604 651.262333,136.157268 651.343,136.399269 C651.343,136.721937 651.383333,136.923602 651.464,137.004269 L651.585,137.004269 C651.907668,136.842935 652.391663,136.520271 653.037,136.036269 L654.489,134.584269 L655.82,133.011269 C656.062001,132.769268 656.283832,132.507104 656.4855,132.224769 C656.687168,131.942434 656.908999,131.639937 657.151,131.317269 L658.482,129.623269 C658.643334,129.300601 658.824832,128.998104 659.0265,128.715769 C659.228168,128.433434 659.449999,128.130937 659.692,127.808269 C660.034542,127.260202 660.362534,126.726687 660.675984,126.207713 L661.507,123.936269 C662.152337,122.322928 662.81783,120.70961 663.5035,119.096269 C664.18917,117.482928 664.935329,115.86961 665.742,114.256269 C666.145335,113.449598 666.528498,112.663106 666.8915,111.896769 C667.254502,111.130432 667.637665,110.34394 668.041,109.537269 C668.444335,108.649931 668.887998,107.823106 669.372,107.056769 C669.856002,106.290432 670.339998,105.50394 670.824,104.697269 C671.066001,104.293934 671.307999,103.910771 671.55,103.547769 C671.792001,103.184767 672.074332,102.801604 672.397,102.398269 L674.212,99.9782689 C674.615335,99.5749336 675.018665,99.1917707 675.422,98.8287689 C675.825335,98.4657671 676.309331,98.0826043 676.874,97.6792689 C677.196668,97.5179348 677.519332,97.3364366 677.842,97.1347689 C678.164668,96.9331012 678.527665,96.7516031 678.931,96.5902689 L680.262,96.2272689 C680.423334,96.1466018 680.705665,96.1062689 681.109,96.1062689 L681.835,96.1062689 C682.964339,96.0256018 683.952496,96.3079324 684.7995,96.9532689 C685.646504,97.5986055 686.271665,98.445597 686.675,99.4942689 L690.063,90.7822689 C691.192339,87.8782544 692.281328,84.9339505 693.33,81.9492689 C693.975337,80.3359275 694.580331,78.7226103 695.145,77.1092689 L698.533,67.4292689 C698.775001,66.5419311 699.037165,65.7151061 699.3195,64.9487689 C699.601835,64.1824318 699.863999,63.3959396 700.106,62.5892689 C700.670669,60.9759275 701.215164,59.3424439 701.7395,57.6887689 C702.263836,56.035094 702.767998,54.3612774 703.252,52.6672689 L704.704,47.8272689 L705.43,45.2862689 L705.43,45.1652689 L706.035,43.1082689 L706.277,42.6242689 C706.761002,41.2529287 707.62816,40.2849384 708.8785,39.7202689 C710.12884,39.1555994 711.43966,39.1555994 712.811,39.7202689 C714.18234,40.2042713 715.150331,41.0512629 715.715,42.2612689 C716.279669,43.471275 716.360335,44.7215958 715.957,46.0122689 L714.868,49.4002689 L713.779,52.9092689 L711.601,59.8062689 C710.955663,62.1456139 710.270004,64.4647574 709.544,66.7637689 C708.817996,69.0627804 708.132337,71.3819239 707.487,73.7212689 C706.11566,78.3192919 704.784673,82.9374124 703.494,87.5757689 C702.203327,92.2141254 700.993339,96.8725789 699.864,101.551269 C699.218663,103.890614 698.613669,106.229924 698.049,108.569269 L696.355,115.587269 C695.225661,120.346626 694.257671,125.065579 693.451,129.744269 C692.966998,132.083614 692.543502,134.422924 692.1805,136.762269 C691.817498,139.101614 691.474668,141.440924 691.152,143.780269 C690.990666,144.990275 690.869667,146.180096 690.789,147.349769 C690.708333,148.519441 690.668,149.66893 690.668,150.798269 C690.587333,150.959603 690.547,151.241934 690.547,151.645269 L691.394,150.556269 C692.120004,149.507597 692.82583,148.458941 693.5115,147.410269 C694.19717,146.361597 694.862663,145.272608 695.508,144.143269 C696.87934,142.045925 698.230493,139.90828 699.5615,137.730269 C700.892507,135.552258 702.203327,133.37428 703.494,131.196269 L708.544268,122.516121 C709.00861,121.376171 709.483018,120.236226 709.9675,119.096269 C710.65317,117.482928 711.399329,115.86961 712.206,114.256269 C712.609335,113.449598 712.992498,112.663106 713.3555,111.896769 C713.718502,111.130432 714.101665,110.34394 714.505,109.537269 C714.908335,108.649931 715.351998,107.823106 715.836,107.056769 C716.320002,106.290432 716.803998,105.50394 717.288,104.697269 C717.530001,104.293934 717.771999,103.910771 718.014,103.547769 C718.256001,103.184767 718.538332,102.801604 718.861,102.398269 L720.676,99.9782689 C721.079335,99.5749336 721.482665,99.1917707 721.886,98.8287689 C722.289335,98.4657671 722.773331,98.0826043 723.338,97.6792689 C723.660668,97.5179348 723.983332,97.3364366 724.306,97.1347689 C724.628668,96.9331012 724.991665,96.7516031 725.395,96.5902689 L726.726,96.2272689 C726.887334,96.1466018 727.169665,96.1062689 727.573,96.1062689 L728.299,96.1062689 C729.428339,96.0256018 730.416496,96.3079324 731.2635,96.9532689 C732.110504,97.5986055 732.735665,98.445597 733.139,99.4942689 L736.527,90.7822689 C737.656339,87.8782544 738.745328,84.9339505 739.794,81.9492689 C740.439337,80.3359275 741.044331,78.7226103 741.609,77.1092689 L744.997,67.4292689 C745.239001,66.5419311 745.501165,65.7151061 745.7835,64.9487689 C746.065835,64.1824318 746.327999,63.3959396 746.57,62.5892689 C747.134669,60.9759275 747.679164,59.3424439 748.2035,57.6887689 C748.727836,56.035094 749.231998,54.3612774 749.716,52.6672689 L751.168,47.8272689 L751.894,45.2862689 L751.894,45.1652689 L752.499,43.1082689 L752.741,42.6242689 C753.225002,41.2529287 754.09216,40.2849384 755.3425,39.7202689 C756.59284,39.1555994 757.90366,39.1555994 759.275,39.7202689 C760.64634,40.2042713 761.614331,41.0512629 762.179,42.2612689 C762.743669,43.471275 762.824335,44.7215958 762.421,46.0122689 L761.332,49.4002689 L760.243,52.9092689 L758.065,59.8062689 C757.419663,62.1456139 756.734004,64.4647574 756.008,66.7637689 C755.281996,69.0627804 754.596337,71.3819239 753.951,73.7212689 C752.57966,78.3192919 751.248673,82.9374124 749.958,87.5757689 C748.667327,92.2141254 747.457339,96.8725789 746.328,101.551269 C745.682663,103.890614 745.077669,106.229924 744.513,108.569269 L742.819,115.587269 C741.689661,120.346626 740.721671,125.065579 739.915,129.744269 C739.430998,132.083614 739.007502,134.422924 738.6445,136.762269 C738.281498,139.101614 737.938668,141.440924 737.616,143.780269 C737.454666,144.990275 737.333667,146.180096 737.253,147.349769 C737.172333,148.519441 737.132,149.66893 737.132,150.798269 C737.051333,150.959603 737.011,151.241934 737.011,151.645269 L737.858,150.556269 C738.584004,149.507597 739.28983,148.458941 739.9755,147.410269 C740.66117,146.361597 741.326663,145.272608 741.972,144.143269 C743.34334,142.045925 744.694493,139.90828 746.0255,137.730269 C747.356507,135.552258 748.667327,133.37428 749.958,131.196269 L757.702,117.886269 L765.204,104.455269 C765.526668,103.890599 765.970331,103.527603 766.535,103.366269 C767.099669,103.204935 767.664331,103.285601 768.229,103.608269 C768.793669,103.930937 769.156666,104.374599 769.318,104.939269 C769.479334,105.503938 769.398668,106.068599 769.076,106.633269 C767.865994,108.891947 766.656006,111.130424 765.446,113.348769 C764.235994,115.567113 762.985673,117.805591 761.695,120.064269 C760.404327,122.322947 759.13384,124.561424 757.8835,126.779769 C756.63316,128.998113 755.32234,131.236591 753.951,133.495269 C752.660327,135.753947 751.349507,137.972258 750.0185,140.150269 C748.687493,142.32828 747.33634,144.506258 745.965,146.684269 C745.319663,147.813608 744.634004,148.902597 743.908,149.951269 C743.181996,150.999941 742.456004,152.08893 741.73,153.218269 C741.326665,153.782938 740.943502,154.327433 740.5805,154.851769 C740.217498,155.376105 739.834335,155.880266 739.431,156.364269 C738.704996,157.412941 737.898338,158.461597 737.011,159.510269 C736.607665,160.074938 736.083337,160.377435 735.438,160.417769 C734.792663,160.458102 734.228002,160.276604 733.744,159.873269 C733.340665,159.550601 733.058334,159.106938 732.897,158.542269 C732.735666,157.896932 732.614667,157.251605 732.534,156.606269 L732.292,154.670269 C732.211333,154.024932 732.150834,153.379605 732.1105,152.734269 C732.070166,152.088932 732.05,151.443605 732.05,150.798269 L732.05,147.047269 C732.05,145.837263 732.130666,144.586942 732.292,143.296269 C732.453334,140.876257 732.654999,138.436115 732.897,135.975769 C733.139001,133.515423 733.461665,131.075281 733.865,128.655269 C734.187668,126.235257 734.550665,123.815281 734.954,121.395269 C735.357335,118.975257 735.760665,116.595614 736.164,114.256269 C736.567335,111.836257 737.010998,109.436447 737.495,107.056769 C737.979002,104.67709 738.462998,102.277281 738.947,99.8572689 C738.947,99.5346006 738.987333,99.2926031 739.068,99.1312689 C738.664665,99.7766055 738.321835,100.462265 738.0395,101.188269 C737.757165,101.914273 737.454668,102.599932 737.132,103.245269 C735.679993,106.391285 734.187674,109.517087 732.655,112.622769 C731.122326,115.728451 729.549341,118.81392 727.936,121.879269 L722.854,131.075269 C721.966662,132.527276 721.039005,133.999428 720.071,135.491769 C719.102995,136.98411 718.054339,138.415929 716.925,139.787269 L715.11,141.844269 C714.706665,142.247604 714.343668,142.590434 714.021,142.872769 C713.698332,143.155104 713.335335,143.457601 712.932,143.780269 L711.722,144.748269 L710.391,145.474269 C709.987665,145.635603 709.463337,145.796935 708.818,145.958269 L707.85,146.200269 C707.688666,146.200269 707.487001,146.180102 707.245,146.139769 C707.002999,146.099435 706.801334,146.079269 706.64,146.079269 C706.317332,145.998602 705.914002,145.796937 705.43,145.474269 C705.187999,145.312935 705.006501,145.151603 704.8855,144.990269 C704.764499,144.828935 704.623334,144.667603 704.462,144.506269 C704.300666,144.264268 704.139334,143.901271 703.978,143.417269 L703.736,142.570269 C703.655333,142.166934 703.615,141.642605 703.615,140.997269 C703.615,140.602917 703.6269,140.268069 703.6507,139.992722 Z M345.172667,109.38938 L345.697,107.117269 L346.544,103.850269 C346.866668,102.478929 347.592661,101.430273 348.722,100.704269 C349.851339,99.9782653 351.10166,99.8169336 352.473,100.220269 C353.763673,100.542937 354.771996,101.26893 355.498,102.398269 C356.224004,103.527608 356.425668,104.737596 356.103,106.028269 C355.941666,106.512271 355.780334,106.915601 355.619,107.238269 L355.014,108.569269 L354.288,110.021269 C353.965332,110.666605 353.763667,111.150601 353.683,111.473269 L352.957,112.925269 L350.537,118.733269 C349.730329,120.749946 348.98417,122.746426 348.2985,124.722769 C347.61283,126.699112 346.947337,128.695592 346.302,130.712269 C345.979332,131.680274 345.697001,132.668431 345.455,133.676769 C345.212999,134.685107 344.971001,135.673264 344.729,136.641269 L344.245,139.545269 C344.245,139.78727 344.224834,140.029268 344.1845,140.271269 C344.144166,140.51327 344.124,140.755268 344.124,140.997269 L344.124,141.602269 C344.285334,141.521602 344.527332,141.319937 344.85,140.997269 L346.907,138.819269 L348.964,136.520269 C350.33534,134.82626 351.625994,133.17261 352.836,131.559269 C353.481337,130.671931 354.106497,129.82494 354.7115,129.018269 C355.316503,128.211598 355.941663,127.364607 356.587,126.477269 L360.217,121.274269 C360.862337,120.386931 361.447164,119.499607 361.9715,118.612269 C362.495836,117.724931 363.080663,116.837607 363.726,115.950269 C364.855339,114.094926 365.984661,112.279944 367.114,110.505269 C368.243339,108.730593 369.372661,106.915612 370.502,105.060269 C371.550672,103.36626 372.579162,101.672277 373.5875,99.9782689 C374.595838,98.2842604 375.583995,96.5499445 376.552,94.7752689 L376.673,94.4122689 L376.915,94.0492689 C377.157001,93.5652665 377.560331,93.2426031 378.125,93.0812689 C378.689669,92.9199348 379.213998,93.0006006 379.698,93.3232689 C380.585338,93.8879384 380.908001,94.694597 380.666,95.7432689 L380.666,95.8642689 L360.943,157.453269 L362.032,155.759269 C363.887343,152.774587 365.78299,149.830283 367.719,146.926269 C369.65501,144.022254 371.671656,141.158616 373.769,138.335269 C374.737005,136.883262 375.745328,135.451443 376.794,134.039769 C377.842672,132.628095 378.891328,131.236609 379.94,129.865269 L386.111,121.516269 C388.127677,118.692921 390.10399,115.869616 392.04,113.046269 C393.97601,110.222921 395.750659,107.318951 397.364,104.334269 C397.767335,103.688932 398.291663,103.285603 398.937,103.124269 C399.582337,102.962935 400.187331,103.043601 400.752,103.366269 C401.397337,103.769604 401.820832,104.273766 402.0225,104.878769 C402.224168,105.483772 402.163668,106.108932 401.841,106.754269 C400.953662,108.36761 400.066338,109.920428 399.179,111.412769 C398.291662,112.90511 397.404338,114.417595 396.517,115.950269 L390.709,124.783269 L384.78,133.253269 L378.972,141.844269 C377.03599,144.748283 375.160509,147.652254 373.3455,150.556269 C371.530491,153.460283 369.735676,156.404587 367.961,159.389269 C366.266992,162.373951 364.613341,165.378754 363,168.403769 C361.386659,171.428784 359.854007,174.47392 358.402,177.539269 C352.432637,189.800664 347.10869,202.465204 342.43,215.533269 L342.188,216.380269 L330.209,253.527269 L329.846,254.858269 L329.725,255.100269 L329.725,255.221269 C329.240998,256.592609 328.353673,257.580766 327.063,258.185769 C325.772327,258.790772 324.44134,258.851271 323.07,258.367269 C321.779327,257.883266 320.831503,257.016109 320.2265,255.765769 C319.621497,254.515429 319.520665,253.244942 319.924,251.954269 C324.199355,238.563535 328.877975,225.374667 333.96,212.387269 C334.363335,211.419264 334.746498,210.451274 335.1095,209.483269 C335.472502,208.515264 335.855665,207.547274 336.259,206.579269 L370.139,112.562269 L366.751,117.886269 L363.242,123.210269 C362.919332,123.694271 362.616835,124.1581 362.3345,124.601769 C362.052165,125.045438 361.790001,125.509266 361.548,125.993269 L356.103,133.979269 L354.167,136.520269 C353.521663,137.488274 352.876337,138.375598 352.231,139.182269 C351.908332,139.585604 351.585668,140.0091 351.263,140.452769 C350.940332,140.896438 350.577335,141.319934 350.174,141.723269 L347.875,144.264269 L346.544,145.474269 L345.576,146.079269 C345.414666,146.240603 345.253334,146.341435 345.092,146.381769 C344.930666,146.422102 344.729001,146.522935 344.487,146.684269 L344.245,146.684269 C344.164333,146.684269 344.124,146.704435 344.124,146.744769 C344.124,146.785102 344.083667,146.805269 344.003,146.805269 L342.43,146.805269 C342.187999,146.724602 341.966168,146.643936 341.7645,146.563269 C341.562832,146.482602 341.381334,146.401936 341.22,146.321269 C341.058666,146.159935 340.917501,146.038936 340.7965,145.958269 C340.675499,145.877602 340.574667,145.756603 340.494,145.595269 C340.090665,145.111266 339.808334,144.627271 339.647,144.143269 C339.485666,143.497932 339.405,143.094603 339.405,142.933269 C339.324333,142.529934 339.263834,142.187104 339.2235,141.904769 C339.183166,141.622434 339.163,141.319937 339.163,140.997269 L339.163,139.182269 L339.526,135.794269 L340.615,129.260269 C340.781899,128.392394 340.955703,127.522796 341.136414,126.651473 C340.844411,127.116336 340.549607,127.582602 340.252,128.050269 L336.864,133.253269 L334.928,135.794269 C334.282663,136.681607 333.556671,137.528598 332.75,138.335269 C332.427332,138.819271 331.983669,139.262934 331.419,139.666269 L330.451,140.392269 C330.128332,140.553603 329.886334,140.634269 329.725,140.634269 L328.636,140.997269 C328.232665,140.997269 327.708337,140.916603 327.063,140.755269 C326.820999,140.674602 326.599168,140.57377 326.3975,140.452769 C326.195832,140.331768 326.014334,140.190603 325.853,140.029269 C325.691666,139.867935 325.570667,139.72677 325.49,139.605769 C325.409333,139.484768 325.288334,139.343603 325.127,139.182269 L324.764,138.577269 L324.28,137.367269 L324.038,136.399269 C323.876666,135.592598 323.796,134.987604 323.796,134.584269 C323.715333,134.342268 323.675,134.080104 323.675,133.797769 L323.675,133.011269 C323.594333,132.446599 323.533834,131.902105 323.4935,131.377769 C323.453166,130.853433 323.433,130.308938 323.433,129.744269 C323.352333,128.695597 323.312,127.667107 323.312,126.658769 L323.312,123.573269 L323.191,117.402269 L323.07,115.950269 L323.07,113.046269 C322.989333,112.884935 322.949,112.642937 322.949,112.320269 C322.222996,112.965605 321.618002,113.570599 321.134,114.135269 L318.956,116.313269 C317.58466,117.684609 316.21334,119.116428 314.842,120.608769 C313.47066,122.10111 312.09934,123.573262 310.728,125.025269 L302.5,134.100269 C301.12866,135.632943 299.797673,137.145428 298.507,138.637769 C297.216327,140.13011 295.925673,141.682928 294.635,143.296269 L292.82,145.716269 C292.416665,146.119604 292.073835,146.502767 291.7915,146.865769 C291.509165,147.228771 291.206668,147.611934 290.884,148.015269 L289.069,150.435269 L288.464,151.645269 C288.302666,151.967937 288.141334,152.209935 287.98,152.371269 L287.496,153.339269 L286.407,154.428269 L286.165,154.549269 L285.439,154.791269 C285.358333,154.791269 284.97517,154.811435 284.2895,154.851769 C283.60383,154.892102 282.938337,154.50894 282.293,153.702269 C281.889665,152.976265 281.728333,152.472104 281.809,152.189769 C281.889667,151.907434 281.889667,151.685603 281.809,151.524269 C281.889667,151.362935 281.93,151.201603 281.93,151.040269 C282.010667,150.959602 282.051,150.878936 282.051,150.798269 L282.172,150.677269 C282.172,150.596602 282.212333,150.515936 282.293,150.435269 C282.293,150.354602 282.313166,150.314269 282.3535,150.314269 C282.393834,150.314269 282.414,150.273936 282.414,150.193269 L282.656,149.709269 L283.624,148.378269 L283.745,148.257269 C284.067668,147.773266 284.349999,147.12794 284.592,146.321269 C284.995335,145.433931 285.378498,144.52644 285.7415,143.598769 C286.104502,142.671098 286.487665,141.723274 286.891,140.755269 C287.133001,140.351934 287.354832,139.908271 287.5565,139.424269 C287.758168,138.940266 287.939666,138.456271 288.101,137.972269 L289.19,135.189269 L290.158,132.285269 L291.247,129.381269 C291.650335,128.493931 291.993165,127.566274 292.2755,126.598269 C292.424599,126.087074 292.590568,125.575883 292.77341,125.064691 L291.247,126.356269 C291.004999,126.59827 290.742835,126.820101 290.4605,127.021769 C290.178165,127.223437 289.875668,127.404935 289.553,127.566269 L287.617,128.655269 C287.132998,128.977937 286.407005,129.260268 285.439,129.502269 C285.035665,129.582936 284.612169,129.643435 284.1685,129.683769 C283.724831,129.724102 283.261002,129.744269 282.777,129.744269 C281.808995,129.582935 280.921671,129.340937 280.115,129.018269 C279.308329,128.776268 278.663002,128.453604 278.179,128.050269 C278.017666,128.211603 277.937,128.372935 277.937,128.534269 C276.888328,130.792947 275.799339,132.809593 274.67,134.584269 C273.459994,136.520279 272.088674,138.375593 270.556,140.150269 L269.2855,141.420769 C268.841831,141.864438 268.337669,142.287934 267.773,142.691269 C267.288998,143.094604 266.764669,143.457601 266.2,143.780269 C265.635331,144.102937 265.030337,144.385268 264.385,144.627269 C263.658996,144.949937 262.973337,145.151602 262.328,145.232269 C262.085999,145.312936 261.723002,145.353269 261.239,145.353269 L260.15,145.353269 C259.262662,145.353269 258.496337,145.191937 257.851,144.869269 C257.447665,144.707935 257.064502,144.546603 256.7015,144.385269 C256.338498,144.223935 255.995668,143.981937 255.673,143.659269 L254.7655,142.751769 C254.483165,142.469434 254.261334,142.126604 254.1,141.723269 L253.132,139.787269 C252.970666,139.141932 252.849667,138.496605 252.769,137.851269 L252.527,135.915269 L252.527,134.100269 C252.527,133.535599 252.567333,132.930605 252.648,132.285269 C252.728667,131.639932 252.809333,131.055105 252.89,130.530769 C252.970667,130.006433 253.091666,129.461938 253.253,128.897269 C253.414334,127.76793 253.636165,126.658774 253.9185,125.569769 C254.002337,125.246397 254.087952,124.921248 254.175345,124.594322 L239.459,144.385269 C239.055665,144.869271 238.551503,145.171768 237.9465,145.292769 C237.341497,145.41377 236.797002,145.272604 236.313,144.869269 C235.506329,144.143265 235.223999,143.336607 235.466,142.449269 L236.797,135.310269 L238.007,128.292269 C238.410335,125.952924 238.833831,123.593447 239.2775,121.213769 C239.721169,118.83409 240.144665,116.474614 240.548,114.135269 L241.274,108.206269 L238.491,112.320269 L230.868,124.420269 L223.366,136.883269 L215.985,149.225269 L208.483,161.688269 C208.240999,162.252938 207.857836,162.636101 207.3335,162.837769 C206.809164,163.039437 206.305002,163.01927 205.821,162.777269 C204.691661,162.212599 204.288332,161.446274 204.611,160.478269 L204.611,160.115269 L207.273,148.257269 C208.160338,144.304582 209.087995,140.351955 210.056,136.399269 C210.943338,132.446582 211.891162,128.514122 212.8995,124.601769 C213.907838,120.689416 214.936328,116.756955 215.985,112.804269 C216.630337,110.142256 217.315996,107.480282 218.042,104.818269 C218.768004,102.156256 219.493996,99.5346152 220.22,96.9532689 L219.978,97.1952689 C218.767994,98.9699445 217.517673,100.583262 216.227,102.035269 L214.291,104.455269 C213.968332,104.858604 213.665835,105.241767 213.3835,105.604769 C213.301189,105.710597 213.213737,105.818138 213.121143,105.927393 C213.108328,105.960772 213.094947,105.994398 213.081,106.028269 L213.081,106.149269 L211.266,109.658269 L209.451,113.288269 L205.821,120.306269 C204.610994,122.645614 203.38084,124.984924 202.1305,127.324269 C200.88016,129.663614 199.609673,132.002924 198.319,134.342269 L194.447,141.360269 L190.333,148.136269 L185.977,154.912269 C185.761305,155.214242 185.547052,155.514773 185.334242,155.813861 L195.415,155.880269 C197.028341,155.880269 198.379495,156.424763 199.4685,157.513769 C200.557505,158.602774 201.102,159.953928 201.102,161.567269 C201.102,163.18061 200.537339,164.531763 199.408,165.620769 C198.278661,166.709774 196.907341,167.254269 195.294,167.254269 L195.173,167.254269 L176.11829,166.606658 C175.770299,166.884002 175.426536,167.140205 175.087,167.375269 C174.280329,167.859271 173.554337,168.262601 172.909,168.585269 L171.578,168.948269 C171.416666,168.948269 171.275501,168.968435 171.1545,169.008769 C171.033499,169.049102 170.892334,169.069269 170.731,169.069269 L170.3075,169.069269 C170.105832,169.069269 169.924334,169.028936 169.763,168.948269 C169.601666,168.948269 169.420168,168.907936 169.2185,168.827269 C169.016832,168.746602 168.835334,168.665936 168.674,168.585269 L167.827,167.859269 C167.262331,167.375266 166.939667,166.931604 166.859,166.528269 C166.805425,166.447906 166.758521,166.367543 166.718289,166.287181 L102.608,164.108269 L101.882,171.005269 L95.469,225.939269 C95.3076659,227.229942 94.5816731,227.794603 93.291,227.633269 C92.0809939,227.471935 91.476,226.745942 91.476,225.455269 L96.074,170.521269 C96.1546671,169.39193 96.2151665,168.302941 96.2555,167.254269 C96.2958335,166.205597 96.3966659,165.116608 96.558,163.987269 L38.72,162.051269 L36.421,166.407269 C36.1789988,166.891271 35.795836,167.193768 35.2715,167.314769 C34.747164,167.43577 34.2430024,167.37527 33.759,167.133269 C33.2749976,166.891268 32.9523341,166.508105 32.791,165.983769 C32.6296659,165.459433 32.6699988,164.955271 32.912,164.471269 L34.122,161.930269 L3.146,160.962269 C2.25866223,160.881602 1.51250303,160.538772 0.9075,159.933769 C0.302496975,159.328766 0,158.582607 0,157.695269 C0,156.807931 0.302496975,156.081938 0.9075,155.517269 C1.51250303,154.952599 2.25866223,154.670269 3.146,154.670269 L37.752,154.912269 C40.2526792,149.830244 42.7533208,144.788627 45.254,139.787269 C47.7546792,134.785911 50.2553208,129.744294 52.756,124.662269 C56.0633499,117.966902 59.3101507,111.291802 62.4965,104.636769 C65.6828493,97.9817356 68.8893172,91.3066357 72.116,84.6112689 C75.2620157,77.835235 78.4079843,71.1198022 81.554,64.4647689 C84.7000157,57.8097356 87.8056513,51.0539699 90.871,44.1972689 C92.4036743,40.809252 93.9161592,37.4414523 95.4085,34.0937689 C96.9008408,30.7460855 98.3729927,27.3782859 99.825,23.9902689 C101.357674,20.602252 102.849993,17.1941194 104.302,13.7657689 C105.754007,10.3374184 107.16566,6.92928586 108.537,3.54126892 L108.658,3.29926892 C109.303337,1.92792873 110.372159,0.959938405 111.8645,0.395268915 C113.356841,-0.169400575 114.78866,-0.129067645 116.16,0.516268915 C117.289339,1.08093841 118.176663,1.88759701 118.822,2.93626892 C119.467337,3.98494083 119.709334,5.07392994 119.548,6.20326892 C119.144665,10.8012919 118.721169,15.3992459 118.2775,19.9972689 C117.833831,24.5952919 117.370002,29.1932459 116.886,33.7912689 L114.103,61.2582689 C113.134995,70.4543149 112.146838,79.60989 111.1385,88.7252689 C110.130162,97.8406478 109.101672,106.996223 108.053,116.192269 L103.576,155.275269 L165.870972,155.685644 C165.877346,155.629217 165.884022,155.573092 165.891,155.517269 L166.254,151.524269 C166.415334,150.878932 166.516166,150.193273 166.5565,149.467269 C166.596834,148.741265 166.657333,148.055605 166.738,147.410269 L167.948,139.545269 L168.674,135.552269 L169.4,131.680269 C169.964669,129.018256 170.488998,126.376449 170.973,123.754769 C171.457002,121.133089 172.021663,118.531615 172.667,115.950269 C172.80504,115.363598 172.939389,114.773239 173.070046,114.179191 L171.094,117.523269 C170.045328,119.297944 168.996672,121.052427 167.948,122.786769 C166.899328,124.521111 165.810339,126.275593 164.681,128.050269 L161.293,133.253269 L159.357,135.794269 C158.711663,136.681607 157.985671,137.528598 157.179,138.335269 C156.856332,138.819271 156.412669,139.262934 155.848,139.666269 L154.88,140.392269 C154.557332,140.553603 154.315334,140.634269 154.154,140.634269 L153.065,140.997269 C152.661665,140.997269 152.137337,140.916603 151.492,140.755269 C151.249999,140.674602 151.028168,140.57377 150.8265,140.452769 C150.624832,140.331768 150.443334,140.190603 150.282,140.029269 C150.120666,139.867935 149.999667,139.72677 149.919,139.605769 C149.838333,139.484768 149.717334,139.343603 149.556,139.182269 L149.193,138.577269 L148.709,137.367269 L148.467,136.399269 C148.305666,135.592598 148.225,134.987604 148.225,134.584269 C148.144333,134.342268 148.104,134.080104 148.104,133.797769 L148.104,133.011269 C148.023333,132.446599 147.962834,131.902105 147.9225,131.377769 C147.882166,130.853433 147.862,130.308938 147.862,129.744269 C147.781333,128.695597 147.741,127.667107 147.741,126.658769 L147.741,123.573269 L147.62,117.402269 L147.499,115.950269 L147.499,113.046269 C147.418333,112.884935 147.378,112.642937 147.378,112.320269 C146.651996,112.965605 146.047002,113.570599 145.563,114.135269 L143.385,116.313269 C142.01366,117.684609 140.64234,119.116428 139.271,120.608769 C137.89966,122.10111 136.52834,123.573262 135.157,125.025269 L126.929,134.100269 C125.55766,135.632943 124.226673,137.145428 122.936,138.637769 C121.645327,140.13011 120.354673,141.682928 119.064,143.296269 L117.249,145.716269 C116.845665,146.119604 116.502835,146.502767 116.2205,146.865769 C115.938165,147.228771 115.635668,147.611934 115.313,148.015269 L113.498,150.435269 L112.893,151.645269 C112.731666,151.967937 112.570334,152.209935 112.409,152.371269 L111.925,153.339269 L110.836,154.428269 L110.594,154.549269 L109.868,154.791269 C109.787333,154.791269 109.40417,154.811435 108.7185,154.851769 C108.03283,154.892102 107.367337,154.50894 106.722,153.702269 C106.318665,152.976265 106.157333,152.472104 106.238,152.189769 C106.318667,151.907434 106.318667,151.685603 106.238,151.524269 C106.318667,151.362935 106.359,151.201603 106.359,151.040269 C106.439667,150.959602 106.48,150.878936 106.48,150.798269 L106.601,150.677269 C106.601,150.596602 106.641333,150.515936 106.722,150.435269 C106.722,150.354602 106.742166,150.314269 106.7825,150.314269 C106.822834,150.314269 106.843,150.273936 106.843,150.193269 L107.085,149.709269 L108.053,148.378269 L108.174,148.257269 C108.496668,147.773266 108.778999,147.12794 109.021,146.321269 C109.424335,145.433931 109.807498,144.52644 110.1705,143.598769 C110.533502,142.671098 110.916665,141.723274 111.32,140.755269 C111.562001,140.351934 111.783832,139.908271 111.9855,139.424269 C112.187168,138.940266 112.368666,138.456271 112.53,137.972269 L113.619,135.189269 L114.587,132.285269 L115.676,129.381269 C116.079335,128.493931 116.422165,127.566274 116.7045,126.598269 C116.986835,125.630264 117.329665,124.662274 117.733,123.694269 L119.669,117.886269 C120.314337,115.950259 120.939497,114.014279 121.5445,112.078269 C122.149503,110.142259 122.774663,108.206279 123.42,106.270269 C124.065337,104.334259 124.670331,102.398279 125.235,100.462269 C125.799669,98.5262592 126.364331,96.5499457 126.929,94.5332689 C127.332335,93.1619287 128.138994,92.1132725 129.349,91.3872689 C130.559006,90.6612653 131.84966,90.4999336 133.221,90.9032689 C134.59234,91.3066043 135.640996,92.1334293 136.367,93.3837689 C137.093004,94.6341085 137.254335,95.9449287 136.851,97.3162689 C136.851,97.5582701 136.770334,97.8406006 136.609,98.1632689 C135.721662,100.018612 134.854504,101.873926 134.0075,103.729269 C133.160496,105.584612 132.333671,107.439926 131.527,109.295269 L126.566,120.548269 L123.178,128.655269 C124.226672,127.283929 125.275328,125.892443 126.324,124.480769 C127.372672,123.069095 128.461661,121.677609 129.591,120.306269 C130.96234,118.692928 132.313493,117.099777 133.6445,115.526769 C134.975507,113.953761 136.32666,112.400943 137.698,110.868269 C138.020668,110.464934 138.343332,110.081771 138.666,109.718769 C138.988668,109.355767 139.351665,108.972604 139.755,108.569269 C140.481004,107.762598 141.247329,106.996273 142.054,106.270269 L144.595,103.971269 L146.168,102.882269 L146.773,102.519269 L147.499,102.156269 L147.62,102.035269 L147.862,102.035269 L147.983,101.914269 L148.225,101.914269 L148.467,101.793269 L148.588,101.793269 C148.749334,101.793269 148.910666,101.773102 149.072,101.732769 C149.233334,101.692435 149.434999,101.672269 149.677,101.672269 C149.838334,101.672269 149.959333,101.712602 150.04,101.793269 C150.04,101.712602 150.120666,101.692435 150.282,101.732769 C150.443334,101.773102 150.483667,101.793269 150.403,101.793269 L150.524,101.793269 C150.604667,101.793269 150.665166,101.813435 150.7055,101.853769 C150.745834,101.894102 150.806333,101.914269 150.887,101.914269 C151.532337,102.15627 152.137331,102.478934 152.702,102.882269 L153.67,103.850269 L154.517,105.544269 L154.88,106.754269 C154.960667,106.99627 155.001,107.318934 155.001,107.722269 C155.081667,108.125604 155.142166,108.468434 155.1825,108.750769 C155.222834,109.033104 155.243,109.335601 155.243,109.658269 C155.243,109.90027 155.263166,110.162434 155.3035,110.444769 C155.343834,110.727104 155.364,111.029601 155.364,111.352269 C155.364,113.53028 155.243001,115.627592 155.001,117.644269 C154.920333,118.692941 154.839667,119.721431 154.759,120.729769 C154.678333,121.738107 154.557334,122.766597 154.396,123.815269 L153.912,129.865269 C153.912,130.349271 153.891834,130.833266 153.8515,131.317269 C153.811166,131.801271 153.791,132.285266 153.791,132.769269 C153.791,133.01127 153.811166,133.233101 153.8515,133.434769 C153.891834,133.636437 153.912,133.817935 153.912,133.979269 L155.243,132.527269 L156.937,130.228269 C157.582337,129.421598 158.167164,128.61494 158.6915,127.808269 C159.215836,127.001598 159.760331,126.154607 160.325,125.267269 C161.454339,123.57326 162.523162,121.859111 163.5315,120.124769 C164.539838,118.390427 165.568328,116.635944 166.617,114.861269 L170.973,106.875269 C171.134334,106.633268 171.255333,106.411437 171.336,106.209769 C171.416667,106.008101 171.497333,105.78627 171.578,105.544269 L172.304,104.213269 C172.54156,103.78566 172.835086,103.43501 173.184581,103.161316 L174.119,100.825269 L174.845,98.8892689 L175.571,97.0742689 L178.596,89.8142689 L179.927,86.5472689 L180.411,84.9742689 C180.572334,84.2482653 180.753832,83.542439 180.9555,82.8567689 C181.157168,82.1710988 181.378999,81.4652725 181.621,80.7392689 L175.329,81.4652689 C174.602996,81.6266031 173.977836,81.4854378 173.4535,81.0417689 C172.929164,80.5981 172.626667,80.0132725 172.546,79.2872689 C172.384666,78.6419324 172.525831,78.0571049 172.9695,77.5327689 C173.413169,77.008433 173.957663,76.6656031 174.603,76.5042689 L183.315,75.0522689 L185.13,69.6072689 C185.452668,68.4779299 185.896331,67.2276091 186.461,65.8562689 C186.622334,65.2109324 186.823999,64.5656055 187.066,63.9202689 L187.792,61.9842689 L189.244,58.2332689 L190.817,54.3612689 L191.906,52.3042689 C191.986667,52.0622677 192.188332,51.6992713 192.511,51.2152689 L192.874,50.4892689 L193.479,49.7632689 C193.559667,49.6826018 193.620166,49.601936 193.6605,49.5212689 C193.700834,49.4406018 193.801666,49.359936 193.963,49.2792689 C194.043667,49.0372677 194.285665,48.7952701 194.689,48.5532689 L195.415,48.0692689 L196.625,47.5852689 C196.786334,47.5852689 196.907333,47.5651025 196.988,47.5247689 C197.068667,47.4844354 197.270332,47.4642689 197.593,47.4642689 C197.754334,47.3836018 197.875333,47.3634354 197.956,47.4037689 C198.036667,47.4441025 198.157666,47.4642689 198.319,47.4642689 C198.883669,47.4642689 199.367665,47.5046018 199.771,47.5852689 L201.223,48.3112689 L202.433,49.4002689 L203.159,50.4892689 L203.522,51.3362689 L203.764,52.5462689 L203.764,54.4822689 C203.683333,54.6436031 203.643,54.9259336 203.643,55.3292689 L203.28,56.6602689 C203.118666,57.0636043 203.017834,57.4467671 202.9775,57.8097689 C202.937166,58.1727707 202.836334,58.5156006 202.675,58.8382689 C202.513666,59.2416043 202.372501,59.6046006 202.2515,59.9272689 C202.130499,60.2499372 201.989334,60.5726006 201.828,60.8952689 L201.102,62.8312689 C200.859999,63.4766055 200.577668,64.1219324 200.255,64.7672689 L198.561,68.5182689 L196.867,72.1482689 L196.504,72.8742689 L229.047159,67.501218 L229.537,65.9772689 C230.182337,64.0412592 230.84783,62.1052786 231.5335,60.1692689 C232.21917,58.2332592 232.924996,56.2972786 233.651,54.3612689 C234.054335,53.3932641 234.437498,52.4252738 234.8005,51.4572689 C235.163502,50.4892641 235.586998,49.4809408 236.071,48.4322689 L237.402,45.4072689 C237.563334,45.1652677 237.704499,44.9232701 237.8255,44.6812689 L238.249,43.8342689 L238.854,42.9872689 L239.459,42.0192689 C239.620334,41.9386018 239.781666,41.7369372 239.943,41.4142689 C240.104334,41.3336018 240.346332,41.1319372 240.669,40.8092689 C241.072335,40.4059336 241.475665,40.1236031 241.879,39.9622689 C242.040334,39.8009348 242.403331,39.6396031 242.968,39.4782689 C243.048667,39.3976018 243.129333,39.3572689 243.21,39.3572689 C243.290667,39.3572689 243.371333,39.3371025 243.452,39.2967689 C243.532667,39.2564354 243.613333,39.2362689 243.694,39.2362689 L244.057,39.2362689 C244.218334,39.1556018 244.379666,39.1152689 244.541,39.1152689 L245.146,39.1152689 C245.226667,39.1152689 245.287166,39.1354354 245.3275,39.1757689 C245.367834,39.2161025 245.468666,39.2362689 245.63,39.2362689 C245.63,39.316936 245.670333,39.3572689 245.751,39.3572689 L246.235,39.3572689 C246.154333,39.3572689 246.174499,39.3774354 246.2955,39.4177689 C246.416501,39.4581025 246.517333,39.4782689 246.598,39.4782689 L247.929,40.0832689 L249.018,41.0512689 C249.260001,41.2932701 249.542332,41.6562665 249.865,42.1402689 C250.026334,42.5436043 250.147333,42.8864342 250.228,43.1687689 C250.308667,43.4511037 250.389333,43.7132677 250.47,43.9552689 L250.712,45.2862689 C250.712,45.6089372 250.691834,45.9114342 250.6515,46.1937689 C250.611166,46.4761037 250.591,46.6979348 250.591,46.8592689 C250.429666,47.5046055 250.349,47.9079348 250.349,48.0692689 L249.744,50.0052689 C249.421332,51.0539408 248.977669,52.1429299 248.413,53.2722689 C248.251666,53.7562713 248.050001,54.2402665 247.808,54.7242689 L247.082,56.1762689 C246.597998,57.1442738 246.093836,58.0920976 245.5695,59.0197689 C245.045164,59.9474402 244.541002,60.8549311 244.057,61.7422689 L241.908795,65.3776927 L299.838,55.8132689 C301.20934,55.5712677 302.479827,55.8737647 303.6495,56.7207689 C304.819173,57.5677732 305.524999,58.6769287 305.767,60.0482689 C306.009001,61.4196091 305.706504,62.6900964 304.8595,63.8597689 C304.012496,65.0294414 302.90334,65.7352677 301.532,65.9772689 L301.29,65.9772689 L237.527561,73.8315448 C235.438718,79.8648285 233.380213,85.9586909 231.352,92.1132689 L223.85,115.103269 L218.042,133.132269 C219.171339,131.034925 220.280495,128.998112 221.3695,127.021769 C222.458505,125.045426 223.607994,123.008613 224.818,120.911269 C227.076678,116.797248 229.57732,112.602624 232.32,108.327269 C232.884669,107.278597 233.570329,106.229941 234.377,105.181269 C234.699668,104.616599 235.042498,104.092271 235.4055,103.608269 C235.768502,103.124266 236.151665,102.599938 236.555,102.035269 L237.644,100.462269 L239.096,98.8892689 L239.943,98.0422689 L241.032,97.1952689 C241.193334,97.0339348 241.354666,96.9331025 241.516,96.8927689 C241.677334,96.8524354 241.838666,96.7516031 242,96.5902689 L242.847,96.3482689 C242.927667,96.3482689 243.008333,96.3281025 243.089,96.2877689 C243.169667,96.2474354 243.290666,96.2272689 243.452,96.2272689 L243.936,96.2272689 C244.500669,96.2272689 244.944332,96.2676018 245.267,96.3482689 C245.751002,96.5096031 246.113999,96.7112677 246.356,96.9532689 C246.678668,97.1146031 247.001332,97.3162677 247.324,97.5582689 C247.485334,97.7196031 247.646666,97.9616006 247.808,98.2842689 C248.050001,98.5262701 248.171,98.7279348 248.171,98.8892689 L248.413,99.3732689 L248.776,100.341269 L249.018,101.672269 C249.098667,102.075604 249.139,102.458767 249.139,102.821769 L249.139,103.971269 C249.139,104.374604 249.118834,104.717434 249.0785,104.999769 C249.038166,105.282104 249.018,105.624934 249.018,106.028269 C249.018,106.512271 248.937334,107.157598 248.776,107.964269 C248.533999,110.464948 248.171002,112.925257 247.687,115.345269 L246.114,122.605269 C245.791332,123.734608 245.488835,124.904263 245.2065,126.114269 C244.924165,127.324275 244.581335,128.49393 244.178,129.623269 L243.815,130.833269 L260.6142,108.366869 L260.634,108.327269 L261.481,106.754269 C261.803668,106.270266 262.085999,105.786271 262.328,105.302269 C262.570001,104.818266 262.892665,104.334271 263.296,103.850269 C263.618668,103.285599 263.941332,102.761271 264.264,102.277269 C264.586668,101.793266 264.949665,101.309271 265.353,100.825269 L266.442,99.3732689 L267.894,98.0422689 L269.467,96.5902689 C269.951002,96.2676006 270.636662,95.8239384 271.524,95.2592689 C272.411338,94.7752665 273.338995,94.492936 274.307,94.4122689 C274.710335,94.3316018 275.315329,94.2912689 276.122,94.2912689 C276.525335,94.2912689 276.847999,94.3316018 277.09,94.4122689 L277.574,94.4122689 L277.695,94.5332689 L277.937,94.5332689 C279.30834,94.7752701 280.377163,95.4609299 281.1435,96.5902689 C281.909837,97.7196079 282.172001,98.9699287 281.93,100.341269 C281.93,100.421936 281.909834,100.462269 281.8695,100.462269 C281.829166,100.462269 281.809,100.502602 281.809,100.583269 L282.535,101.672269 C282.857668,102.47894 283.099666,103.285598 283.261,104.092269 C283.341667,104.495604 283.402166,104.878767 283.4425,105.241769 C283.482834,105.604771 283.503,105.987934 283.503,106.391269 C283.583667,106.794604 283.624,107.137434 283.624,107.419769 L283.624,108.448269 L283.261,112.199269 L282.535,115.708269 C282.373666,116.272938 282.212334,116.817433 282.051,117.341769 C281.889666,117.866105 281.728334,118.410599 281.567,118.975269 C281.405666,119.459271 281.264501,119.943266 281.1435,120.427269 C281.022499,120.911271 280.881334,121.354934 280.72,121.758269 L281.083,122.363269 L281.809,123.210269 C282.131668,123.532937 282.373666,123.734602 282.535,123.815269 C282.857668,123.976603 283.099666,124.057269 283.261,124.057269 C283.583668,124.218603 283.946665,124.218603 284.35,124.057269 C284.511334,124.057269 284.914663,123.976603 285.56,123.815269 L286.891,123.210269 C287.133001,122.968268 287.576663,122.685937 288.222,122.363269 L289.432,121.274269 C291.126008,119.822262 292.698993,118.128279 294.151,116.192269 C294.796337,115.304931 295.441663,114.377274 296.087,113.409269 C296.480438,112.819112 296.873872,112.21397 297.267306,111.593835 C297.82493,109.819308 298.399489,108.0448 298.991,106.270269 C299.636337,104.334259 300.241331,102.398279 300.806,100.462269 C301.370669,98.5262592 301.935331,96.5499457 302.5,94.5332689 C302.903335,93.1619287 303.709994,92.1132725 304.92,91.3872689 C306.130006,90.6612653 307.42066,90.4999336 308.792,90.9032689 C310.16334,91.3066043 311.211996,92.1334293 311.938,93.3837689 C312.664004,94.6341085 312.825335,95.9449287 312.422,97.3162689 C312.422,97.5582701 312.341334,97.8406006 312.18,98.1632689 C311.292662,100.018612 310.425504,101.873926 309.5785,103.729269 C308.731496,105.584612 307.904671,107.439926 307.098,109.295269 L302.137,120.548269 L298.749,128.655269 C299.797672,127.283929 300.846328,125.892443 301.895,124.480769 C302.943672,123.069095 304.032661,121.677609 305.162,120.306269 C306.53334,118.692928 307.884493,117.099777 309.2155,115.526769 C310.546507,113.953761 311.89766,112.400943 313.269,110.868269 C313.591668,110.464934 313.914332,110.081771 314.237,109.718769 C314.559668,109.355767 314.922665,108.972604 315.326,108.569269 C316.052004,107.762598 316.818329,106.996273 317.625,106.270269 L320.166,103.971269 L321.739,102.882269 L322.344,102.519269 L323.07,102.156269 L323.191,102.035269 L323.433,102.035269 L323.554,101.914269 L323.796,101.914269 L324.038,101.793269 L324.159,101.793269 C324.320334,101.793269 324.481666,101.773102 324.643,101.732769 C324.804334,101.692435 325.005999,101.672269 325.248,101.672269 C325.409334,101.672269 325.530333,101.712602 325.611,101.793269 C325.611,101.712602 325.691666,101.692435 325.853,101.732769 C326.014334,101.773102 326.054667,101.793269 325.974,101.793269 L326.095,101.793269 C326.175667,101.793269 326.236166,101.813435 326.2765,101.853769 C326.316834,101.894102 326.377333,101.914269 326.458,101.914269 C327.103337,102.15627 327.708331,102.478934 328.273,102.882269 L329.241,103.850269 L330.088,105.544269 L330.451,106.754269 C330.531667,106.99627 330.572,107.318934 330.572,107.722269 C330.652667,108.125604 330.713166,108.468434 330.7535,108.750769 C330.793834,109.033104 330.814,109.335601 330.814,109.658269 C330.814,109.90027 330.834166,110.162434 330.8745,110.444769 C330.914834,110.727104 330.935,111.029601 330.935,111.352269 C330.935,113.53028 330.814001,115.627592 330.572,117.644269 C330.491333,118.692941 330.410667,119.721431 330.33,120.729769 C330.249333,121.738107 330.128334,122.766597 329.967,123.815269 L329.483,129.865269 C329.483,130.349271 329.462834,130.833266 329.4225,131.317269 C329.382166,131.801271 329.362,132.285266 329.362,132.769269 C329.362,133.01127 329.382166,133.233101 329.4225,133.434769 C329.462834,133.636437 329.483,133.817935 329.483,133.979269 L330.814,132.527269 L332.508,130.228269 C333.153337,129.421598 333.738164,128.61494 334.2625,127.808269 C334.786836,127.001598 335.331331,126.154607 335.896,125.267269 C337.025339,123.57326 338.094162,121.859111 339.1025,120.124769 C340.110838,118.390427 341.139328,116.635944 342.188,114.861269 L345.172667,109.38938 Z M208.417888,105.759681 C208.345924,105.323286 208.448295,104.848149 208.725,104.334269 L214.533,93.6862689 L220.583,83.0382689 L224.945641,75.3813893 L193.237,79.2872689 C192.833665,80.1746067 192.390002,81.0014318 191.906,81.7677689 C191.421998,82.5341061 190.978335,83.3205982 190.575,84.1272689 C190.332999,84.7726055 190.111168,85.3775994 189.9095,85.9422689 C189.707832,86.5069384 189.526334,87.1119324 189.365,87.7572689 C188.477662,90.2579481 187.630671,92.7384233 186.824,95.1987689 C186.017329,97.6591146 185.210671,100.179923 184.404,102.761269 C183.516662,105.261948 182.689837,107.76259 181.9235,110.263269 C181.157163,112.763948 180.411004,115.26459 179.685,117.765269 C179.281665,119.055942 178.898502,120.326429 178.5355,121.576769 C178.172498,122.827109 177.789335,124.097596 177.386,125.388269 L175.329,133.011269 L174.361,136.762269 C174.199666,137.407605 174.058501,138.052932 173.9375,138.698269 C173.816499,139.343605 173.675334,139.988932 173.514,140.634269 C173.191332,141.924942 172.888835,143.195429 172.6065,144.445769 C172.324165,145.696109 172.062001,146.966596 171.82,148.257269 C171.577999,149.547942 171.356168,150.838596 171.1545,152.129269 C170.967633,153.325219 170.798083,154.521152 170.645847,155.717099 L180.539253,155.782273 C181.293903,154.794065 182.057817,153.778066 182.831,152.734269 C183.557004,151.685597 184.282996,150.616774 185.009,149.527769 C185.735004,148.438763 186.460996,147.329608 187.187,146.200269 L191.18,139.424269 L193.237,136.036269 L195.052,132.648269 L202.433,118.612269 L205.821,111.473269 L207.515,107.843269 L208.417888,105.759681 Z M100.43,115.466269 C101.075337,106.189556 101.74083,97.0138143 102.4265,87.9387689 C103.11217,78.8637235 103.777663,69.687982 104.423,60.4112689 L106.238,35.0012689 L99.462,48.4322689 C96.0739831,55.0469687 92.6860169,61.6414027 89.298,68.2157689 C85.9099831,74.7901351 82.481684,81.3845692 79.013,87.9992689 C75.544316,94.6139687 72.075684,101.188236 68.607,107.722269 C65.138316,114.256302 61.5890182,120.790236 57.959,127.324269 C55.3776538,132.002959 52.8568456,136.621079 50.3965,141.178769 C47.9361544,145.736458 45.4153462,150.314246 42.834,154.912269 L97.284,155.275269 C97.7680024,148.660569 98.272164,142.045969 98.7965,135.431269 C99.320836,128.816569 99.8653305,122.161636 100.43,115.466269 Z M271.403,106.270269 C270.999665,106.592937 270.656835,106.915601 270.3745,107.238269 C270.092165,107.560937 269.749335,107.923934 269.346,108.327269 L267.531,110.626269 C267.369666,110.86827 267.228501,111.090101 267.1075,111.291769 C266.986499,111.493437 266.845334,111.674935 266.684,111.836269 L265.837,113.167269 C265.272331,114.054607 264.727836,114.941931 264.2035,115.829269 C263.679164,116.716607 263.215335,117.603931 262.812,118.491269 C261.924662,120.185277 261.077671,122.080925 260.271,124.178269 L259.303,127.082269 C259.141666,127.566271 259.000501,128.050266 258.8795,128.534269 C258.758499,129.018271 258.657667,129.502266 258.577,129.986269 C258.415666,130.470271 258.294667,130.954266 258.214,131.438269 L257.972,132.890269 C257.891333,133.374271 257.851,133.858266 257.851,134.342269 L257.851,135.673269 C257.851,136.157271 257.871166,136.600934 257.9115,137.004269 C257.951834,137.407604 258.012333,137.810934 258.093,138.214269 C258.254334,138.698271 258.415666,139.020935 258.577,139.182269 L258.94,139.787269 C259.262668,139.948603 259.464333,140.029269 259.545,140.029269 L260.392,140.271269 L260.997,140.271269 C261.077667,140.271269 261.138166,140.251102 261.1785,140.210769 C261.218834,140.170435 261.319666,140.150269 261.481,140.150269 C261.642334,140.150269 261.964998,140.069603 262.449,139.908269 C263.175004,139.585601 263.860663,139.141938 264.506,138.577269 L266.563,136.641269 C267.692339,135.269929 268.781328,133.616279 269.83,131.680269 C270.717338,129.905593 271.523996,128.050279 272.25,126.114269 C272.492001,125.468932 272.754165,124.763106 273.0365,123.996769 C273.318835,123.230432 273.540666,122.44394 273.702,121.637269 L273.218,119.701269 C273.056666,119.055932 272.895334,118.370273 272.734,117.644269 C272.572666,116.998932 272.451667,116.333439 272.371,115.647769 C272.290333,114.962099 272.169334,114.296605 272.008,113.651269 C272.008,113.247934 271.987834,112.884937 271.9475,112.562269 C271.907166,112.239601 271.887,111.916937 271.887,111.594269 L271.887,110.565769 C271.887,110.283434 271.846667,109.940604 271.766,109.537269 L271.766,107.480269 C271.846667,107.238268 271.887,106.955937 271.887,106.633269 L271.887,105.665269 L271.403,106.270269 Z M473.11,50.3682689 C474.239339,49.8035994 475.388827,49.2792713 476.5585,48.7952689 C477.728173,48.3112665 478.917994,47.8272713 480.128,47.3432689 L487.146,44.4392689 L501.424,38.9942689 C503.763345,38.1069311 506.142988,37.2397732 508.563,36.3927689 C510.983012,35.5457647 513.362655,34.7189396 515.702,33.9122689 C518.122012,33.0249311 520.541988,32.1981061 522.962,31.4317689 C525.382012,30.6654318 527.801988,29.8789396 530.222,29.0722689 L533.005,28.2252689 L538.208,10.0752689 C538.611335,8.54259459 539.518826,7.39310608 540.9305,6.62676892 C542.342174,5.86043175 543.814326,5.67893357 545.347,6.08226892 C546.879674,6.48560427 548.029163,7.39309519 548.7955,8.80476892 C549.561837,10.2164426 549.743335,11.6885946 549.34,13.2212689 C549.259333,13.301936 549.219,13.3826018 549.219,13.4632689 L545.468,24.5952689 C547.807345,23.9499324 550.166821,23.3046055 552.5465,22.6592689 C554.926179,22.0139324 557.325988,21.4089384 559.746,20.8442689 C561.036673,20.5216006 562.30716,20.2191037 563.5575,19.9367689 C564.80784,19.6544342 566.078327,19.3922701 567.369,19.1502689 C569.789012,18.5855994 572.329987,18.1016043 574.992,17.6982689 C576.282673,17.4562677 577.55316,17.2344366 578.8035,17.0327689 C580.05384,16.8311012 581.36466,16.6496031 582.736,16.4882689 C585.236679,16.1656006 587.85832,15.9236031 590.601,15.7622689 C591.97234,15.6009348 593.34366,15.5202689 594.715,15.5202689 C596.08634,15.5202689 597.497993,15.5606018 598.95,15.6412689 C599.595337,15.721936 600.280996,15.8026018 601.007,15.8832689 C601.733004,15.963936 602.499329,16.0849348 603.306,16.2462689 C604.032004,16.4076031 604.778163,16.5689348 605.5445,16.7302689 C606.310837,16.8916031 607.137662,17.1336006 608.025,17.4562689 L610.445,18.6662689 C611.251671,19.1502713 612.098662,19.7552653 612.986,20.4812689 C613.712004,21.1266055 614.478329,21.973597 615.285,23.0222689 C615.930337,24.1516079 616.414332,25.2809299 616.737,26.4102689 C616.979001,27.5396079 617.1,28.628597 617.1,29.6772689 L617.1,31.0082689 C617.019333,31.2502701 616.979,31.6535994 616.979,32.2182689 C616.817666,33.0249396 616.656334,33.7912653 616.495,34.5172689 L616.011,36.6952689 C615.607665,38.2279432 615.103503,39.6395958 614.4985,40.9302689 C613.893497,42.220942 613.268337,43.5115958 612.623,44.8022689 C611.977663,46.012275 611.271837,47.1819299 610.5055,48.3112689 C609.739163,49.4406079 608.952671,50.5699299 608.146,51.6992689 C606.532659,53.8772798 604.818509,55.9342592 603.0035,57.8702689 C601.188491,59.8062786 599.353343,61.7019263 597.498,63.5572689 C595.642657,65.4126115 593.726843,67.167094 591.7505,68.8207689 C589.774157,70.4744439 587.777677,72.1079275 585.761,73.7212689 C583.744323,75.3346103 581.747843,76.9075946 579.7715,78.4402689 C577.795157,79.9729432 575.758344,81.5055946 573.661,83.0382689 C573.338332,83.1996031 573.056001,83.4012677 572.814,83.6432689 C572.571999,83.8852701 572.330001,84.0869348 572.088,84.2482689 C572.814004,84.0869348 573.560163,83.965936 574.3265,83.8852689 C575.092837,83.8046018 575.879329,83.723936 576.686,83.6432689 C578.218674,83.4819348 579.710993,83.4416018 581.163,83.5222689 C582.615007,83.602936 584.107326,83.7239348 585.64,83.8852689 C588.624682,84.3692713 591.568985,85.2162629 594.473,86.4262689 C597.457682,87.636275 600.159988,89.2899251 602.58,91.3872689 C605.080679,93.6459469 607.097326,96.1869215 608.63,99.0102689 C609.436671,100.462276 610.081998,101.954595 610.566,103.487269 C611.050002,105.019943 611.412999,106.592928 611.655,108.206269 C612.139002,111.352285 612.139002,114.45792 611.655,117.523269 C611.493666,119.055943 611.211335,120.548262 610.808,122.000269 C610.404665,123.452276 609.961002,124.863929 609.477,126.235269 C608.912331,127.606609 608.307337,128.937596 607.662,130.228269 C607.016663,131.518942 606.331004,132.809596 605.605,134.100269 C604.878996,135.310275 604.132837,136.500096 603.3665,137.669769 C602.600163,138.839441 601.773338,139.98893 600.886,141.118269 C599.998662,142.247608 599.091171,143.336597 598.1635,144.385269 C597.235829,145.433941 596.288005,146.442264 595.32,147.410269 C593.38399,149.426946 591.38751,151.34276 589.3305,153.157769 C587.27349,154.972778 585.156011,156.72726 582.978,158.421269 C578.621978,161.728619 574.145023,164.753589 569.547,167.496269 C567.207655,168.948276 564.868345,170.319596 562.529,171.610269 C560.189655,172.900942 557.810012,174.151263 555.39,175.361269 L551.76,177.176269 C551.114663,177.41827 550.509669,177.680434 549.945,177.962769 L548.13,178.870269 L540.749,182.137269 C535.908976,184.234613 530.948025,186.170593 525.866,187.945269 C523.365321,188.913274 520.864679,189.820765 518.364,190.667769 C515.863321,191.514773 513.322346,192.341598 510.741,193.148269 C508.159654,193.95494 505.598513,194.741432 503.0575,195.507769 C500.516487,196.274106 497.955346,196.979932 495.374,197.625269 C490.291975,198.996609 485.169692,200.307429 480.007,201.557769 C474.844308,202.808109 469.64136,203.99793 464.398,205.127269 C463.671996,205.288603 463.006503,205.167604 462.4015,204.764269 C461.796497,204.360934 461.413334,203.796273 461.252,203.070269 C461.090666,202.344265 461.211665,201.658605 461.615,201.013269 C462.018335,200.367932 462.582996,199.964603 463.309,199.803269 C473.473051,197.625258 483.677282,195.084283 493.922,192.180269 C496.422679,191.454265 498.923321,190.708106 501.424,189.941769 C503.924679,189.175432 506.425321,188.38894 508.926,187.582269 C511.426679,186.694931 513.907154,185.807607 516.3675,184.920269 C518.827846,184.032931 521.267988,183.145607 523.688,182.258269 C528.608691,180.322259 533.428476,178.285446 538.1475,176.147769 C542.866524,174.010092 547.524977,171.690948 552.123,169.190269 L558.899,165.318269 C560.028339,164.672932 561.137495,164.007439 562.2265,163.321769 C563.315505,162.636099 564.384328,161.930273 565.433,161.204269 C569.869689,158.300254 574.023981,155.234952 577.896,152.008269 C581.929354,148.620252 585.559317,145.070954 588.786,141.360269 C590.399341,139.504926 591.931993,137.568946 593.384,135.552269 C594.836007,133.535592 596.126661,131.478613 597.256,129.381269 C598.466006,127.203258 599.433996,125.02528 600.16,122.847269 C600.563335,121.71793 600.885999,120.608774 601.128,119.519769 C601.370001,118.430763 601.571666,117.321608 601.733,116.192269 C601.975001,113.852924 601.934668,111.715279 601.612,109.779269 C601.208665,107.681925 600.523005,105.745944 599.555,103.971269 C598.667662,102.27726 597.417341,100.704276 595.804,99.2522689 C594.190659,97.9615958 592.375677,96.8726067 590.359,95.9852689 C588.503657,95.1785982 586.406345,94.5736043 584.067,94.1702689 C582.937661,93.9282677 581.788173,93.766936 580.6185,93.6862689 C579.448827,93.6056018 578.299339,93.5652689 577.17,93.5652689 C572.410643,93.7266031 567.611024,94.4525958 562.771,95.7432689 C560.270321,96.3886055 557.890678,97.1145982 555.632,97.9212689 C554.421994,98.3246043 553.232173,98.7682665 552.0625,99.2522689 C550.892827,99.7362713 549.703006,100.220266 548.493,100.704269 L548.251,100.825269 C547.605663,101.228604 546.920004,101.30927 546.194,101.067269 C545.467996,100.825268 544.943668,100.381605 544.621,99.7362689 C544.217665,99.0909324 544.136999,98.425439 544.379,97.7397689 C544.621001,97.0540988 545.064663,96.5096043 545.71,96.1062689 C547.888011,94.4122604 550.186988,92.8392762 552.607,91.3872689 L556.116,89.4512689 C556.519335,89.2092677 556.882332,88.9672701 557.205,88.7252689 C557.527668,88.4832677 557.890665,88.2009372 558.294,87.8782689 L564.344,83.4012689 L570.152,78.6822689 C572.08801,77.0689275 573.983657,75.4354439 575.839,73.7817689 C577.694343,72.128094 579.509324,70.4139445 581.284,68.6392689 C583.058676,66.8645934 584.792992,65.069778 586.487,63.2547689 C588.181008,61.4397598 589.834659,59.6046115 591.448,57.7492689 C592.254671,56.8619311 593.020996,55.9342738 593.747,54.9662689 L598.103,49.1582689 C598.425668,48.6742665 598.728165,48.1701049 599.0105,47.6457689 C599.292835,47.121433 599.635665,46.6172713 600.039,46.1332689 C600.684337,45.084597 601.269164,44.0762738 601.7935,43.1082689 C602.317836,42.1402641 602.821998,41.1319408 603.306,40.0832689 C603.709335,39.034597 604.092498,38.0061073 604.4555,36.9977689 C604.818502,35.9894305 605.120999,34.9609408 605.363,33.9122689 C605.524334,33.4282665 605.625166,32.9442713 605.6655,32.4602689 C605.705834,31.9762665 605.766333,31.4922713 605.847,31.0082689 L605.847,29.7982689 C605.847,29.5562677 605.806667,29.394936 605.726,29.3142689 L605.726,29.1932689 L605.484,28.9512689 L604.879,28.6487689 C604.636999,28.5277683 604.314335,28.3866031 603.911,28.2252689 L601.249,27.4992689 L598.103,27.1362689 C595.924989,27.0556018 593.626012,27.0556018 591.206,27.1362689 C590.076661,27.216936 588.907006,27.2976018 587.697,27.3782689 C586.486994,27.458936 585.277006,27.5799348 584.067,27.7412689 L576.807,28.8302689 C575.596994,28.9916031 574.387006,29.1731012 573.177,29.3747689 C571.966994,29.5764366 570.757006,29.7982677 569.547,30.0402689 C568.336994,30.2822701 567.10684,30.5242677 565.8565,30.7662689 C564.60616,31.0082701 563.376006,31.2906006 562.166,31.6132689 C557.325976,32.5812738 552.486024,33.6702629 547.646,34.8802689 L541.354,36.4532689 L498.157,163.745269 C497.753665,164.793941 496.987339,165.19727 495.858,164.955269 C494.809328,164.551934 494.446332,163.825941 494.769,162.777269 L529.859,39.4782689 C525.502978,40.688275 521.187355,41.8982629 516.912,43.1082689 C512.636645,44.318275 508.321022,45.5685958 503.965,46.8592689 C501.544988,47.5046055 499.125012,48.1902653 496.705,48.9162689 L474.925,55.4502689 C474.198996,55.6922701 473.513337,55.6317707 472.868,55.2687689 C472.222663,54.9057671 471.779001,54.3612725 471.537,53.6352689 C471.375666,52.9899324 471.436165,52.3647719 471.7185,51.7597689 C472.000835,51.1547659 472.464663,50.6909372 473.11,50.3682689 Z M681.109,105.302269 L681.23,105.302269 C681.310667,105.302269 681.351,105.261936 681.351,105.181269 C681.431667,105.181269 681.472,105.140936 681.472,105.060269 L681.23,105.060269 L680.504,105.423269 L679.657,105.907269 L677.963,107.238269 L676.39,108.932269 C675.825331,109.577605 675.280836,110.202766 674.7565,110.807769 C674.232164,111.412772 673.728002,112.037932 673.244,112.683269 L670.461,116.797269 C669.573662,118.249276 668.726671,119.721428 667.92,121.213769 C667.113329,122.70611 666.347004,124.218595 665.621,125.751269 C665.217665,126.477273 664.854668,127.223432 664.532,127.989769 C664.209332,128.756106 663.886668,129.542598 663.564,130.349269 C663.241332,131.15594 662.959001,131.942432 662.717,132.708769 C662.474999,133.475106 662.233001,134.261598 661.991,135.068269 L661.386,137.488269 L661.023,139.787269 L661.023,141.844269 L661.265,142.328269 L661.507,142.328269 L662.354,141.965269 L663.201,141.481269 L664.048,140.755269 C664.612669,140.432601 665.177331,139.908273 665.742,139.182269 C666.064668,138.859601 666.346999,138.557104 666.589,138.274769 C666.831001,137.992434 667.072999,137.689937 667.315,137.367269 L670.219,133.253269 C671.025671,131.962596 671.872662,130.51061 672.76,128.897269 L675.301,124.420269 C675.704335,123.694265 676.087498,122.948106 676.4505,122.181769 C676.813502,121.415432 677.196665,120.669273 677.6,119.943269 C678.729339,117.44259 679.858661,114.962115 680.988,112.501769 C682.117339,110.041423 683.246661,107.520615 684.376,104.939269 C684.053332,105.100603 683.750835,105.221602 683.4685,105.302269 C683.186165,105.382936 682.843335,105.423269 682.44,105.423269 C682.036665,105.503936 681.593002,105.463603 681.109,105.302269 Z M727.573,105.302269 L727.694,105.302269 C727.774667,105.302269 727.815,105.261936 727.815,105.181269 C727.895667,105.181269 727.936,105.140936 727.936,105.060269 L727.694,105.060269 L726.968,105.423269 L726.121,105.907269 L724.427,107.238269 L722.854,108.932269 C722.289331,109.577605 721.744836,110.202766 721.2205,110.807769 C720.696164,111.412772 720.192002,112.037932 719.708,112.683269 L716.925,116.797269 C716.037662,118.249276 715.190671,119.721428 714.384,121.213769 C713.577329,122.70611 712.811004,124.218595 712.085,125.751269 C711.681665,126.477273 711.318668,127.223432 710.996,127.989769 C710.673332,128.756106 710.350668,129.542598 710.028,130.349269 C709.705332,131.15594 709.423001,131.942432 709.181,132.708769 C708.938999,133.475106 708.697001,134.261598 708.455,135.068269 L707.85,137.488269 L707.487,139.787269 L707.487,141.844269 C707.648334,142.166937 707.729,142.328269 707.729,142.328269 L707.971,142.328269 L708.818,141.965269 L709.665,141.481269 L710.512,140.755269 C711.076669,140.432601 711.641331,139.908273 712.206,139.182269 C712.528668,138.859601 712.810999,138.557104 713.053,138.274769 C713.295001,137.992434 713.536999,137.689937 713.779,137.367269 L716.683,133.253269 C717.489671,131.962596 718.336662,130.51061 719.224,128.897269 L721.765,124.420269 C722.168335,123.694265 722.551498,122.948106 722.9145,122.181769 C723.277502,121.415432 723.660665,120.669273 724.064,119.943269 C725.193339,117.44259 726.322661,114.962115 727.452,112.501769 C728.581339,110.041423 729.710661,107.520615 730.84,104.939269 C730.517332,105.100603 730.214835,105.221602 729.9325,105.302269 C729.650165,105.382936 729.307335,105.423269 728.904,105.423269 C728.500665,105.503936 728.057002,105.463603 727.573,105.302269 Z" id="Anthony-Budd"></path>
            <path d="M138.891602,341.525879 L124.604492,341.525879 L124.604492,376.787109 L119.287109,376.787109 L119.287109,341.525879 L105,341.525879 L105,336.799316 L138.891602,336.799316 L138.891602,341.525879 Z M162.931152,346.789551 L145.421387,387.851562 L140.023438,387.851562 L145.609375,375.336914 L133.658691,346.789551 L139.137207,346.789551 L148.348633,369.025879 L157.640625,346.789551 L162.931152,346.789551 Z M194.436523,361.425781 C194.436523,363.860689 194.087406,366.085195 193.38916,368.099365 C192.690914,370.113535 191.706224,371.818841 190.435059,373.215332 C189.253412,374.540208 187.861418,375.565182 186.259033,376.290283 C184.656649,377.015384 182.960295,377.37793 181.169922,377.37793 C179.612297,377.37793 178.202399,377.207847 176.940186,376.867676 C175.677972,376.527505 174.393398,375.999353 173.086426,375.283203 L173.086426,387.851562 L168.037598,387.851562 L168.037598,346.789551 L173.086426,346.789551 L173.086426,349.931641 C174.429206,348.803705 175.937573,347.859297 177.611572,347.098389 C179.285572,346.33748 181.071442,345.957031 182.969238,345.957031 C186.585793,345.957031 189.401113,347.322171 191.415283,350.05249 C193.429453,352.78281 194.436523,356.573869 194.436523,361.425781 Z M189.226562,361.560059 C189.226562,357.943504 188.608893,355.240081 187.373535,353.449707 C186.138177,351.659333 184.24041,350.76416 181.680176,350.76416 C180.229973,350.76416 178.770841,351.077471 177.302734,351.704102 C175.834628,352.330732 174.429206,353.154292 173.086426,354.174805 L173.086426,371.174316 C174.518725,371.818851 175.749588,372.257486 176.779053,372.490234 C177.808518,372.722983 178.976719,372.839355 180.283691,372.839355 C183.094578,372.839355 185.287753,371.890472 186.863281,369.992676 C188.43881,368.09488 189.226562,365.284036 189.226562,361.560059 Z M225.915039,362.312012 L203.812988,362.312012 C203.812988,364.156096 204.090492,365.762933 204.645508,367.132568 C205.200524,368.502204 205.961421,369.625647 206.928223,370.50293 C207.859217,371.362309 208.964756,372.006834 210.244873,372.436523 C211.52499,372.866213 212.934888,373.081055 214.474609,373.081055 C216.515635,373.081055 218.570058,372.673751 220.637939,371.859131 C222.705821,371.044511 224.178381,370.243331 225.055664,369.455566 L225.324219,369.455566 L225.324219,374.960938 C223.623364,375.677087 221.886728,376.276853 220.114258,376.760254 C218.341788,377.243655 216.479827,377.485352 214.52832,377.485352 C209.551082,377.485352 205.66603,376.138116 202.873047,373.443604 C200.080064,370.749091 198.683594,366.922225 198.683594,361.962891 C198.683594,357.057267 200.021878,353.163263 202.698486,350.280762 C205.375095,347.39826 208.897602,345.957031 213.266113,345.957031 C217.312357,345.957031 220.432037,347.13866 222.625244,349.501953 C224.818452,351.865246 225.915039,355.222146 225.915039,359.572754 L225.915039,362.312012 Z M221.000488,358.444824 C220.982585,355.795071 220.31568,353.745124 218.999756,352.294922 C217.683831,350.844719 215.683119,350.119629 212.997559,350.119629 C210.294095,350.119629 208.141203,350.916333 206.538818,352.509766 C204.936434,354.103198 204.027833,356.081531 203.812988,358.444824 L221.000488,358.444824 Z M261.529297,365.373535 C261.529297,366.93116 261.166752,368.470858 260.44165,369.992676 C259.716549,371.514493 258.700527,372.803543 257.393555,373.859863 C255.961256,375.005702 254.291758,375.900876 252.38501,376.54541 C250.478262,377.189945 248.182142,377.512207 245.496582,377.512207 C242.614081,377.512207 240.022554,377.243655 237.721924,376.706543 C235.421294,376.169431 233.080416,375.372727 230.699219,374.316406 L230.699219,367.65625 L231.075195,367.65625 C233.098317,369.339201 235.43472,370.637202 238.084473,371.550293 C240.734225,372.463383 243.222807,372.919922 245.550293,372.919922 C248.84458,372.919922 251.409252,372.302252 253.244385,371.066895 C255.079518,369.831537 255.99707,368.184418 255.99707,366.125488 C255.99707,364.353018 255.562911,363.046065 254.69458,362.20459 C253.826249,361.363114 252.505868,360.709638 250.733398,360.244141 C249.390618,359.886066 247.935962,359.590659 246.369385,359.35791 C244.802808,359.125162 243.142261,358.829754 241.387695,358.47168 C237.842756,357.719723 235.215422,356.435149 233.505615,354.61792 C231.795809,352.800691 230.940918,350.432957 230.940918,347.514648 C230.940918,344.16665 232.355292,341.422944 235.184082,339.283447 C238.012872,337.143951 241.602517,336.074219 245.953125,336.074219 C248.764011,336.074219 251.342111,336.342771 253.6875,336.879883 C256.032889,337.416995 258.109691,338.079423 259.917969,338.867188 L259.917969,345.151367 L259.541992,345.151367 C258.020175,343.862298 256.019462,342.792566 253.539795,341.942139 C251.060128,341.091711 248.522311,340.666504 245.92627,340.666504 C243.079576,340.666504 240.792408,341.257318 239.064697,342.438965 C237.336987,343.620611 236.473145,345.142406 236.473145,347.004395 C236.473145,348.669442 236.902828,349.976395 237.762207,350.925293 C238.621586,351.874191 240.134429,352.599281 242.300781,353.100586 C243.44662,353.351238 245.075836,353.655597 247.188477,354.013672 C249.301117,354.371747 251.091464,354.738768 252.55957,355.114746 C255.53159,355.90251 257.769524,357.093091 259.273438,358.686523 C260.777351,360.279956 261.529297,362.508938 261.529297,365.373535 Z M290.349121,374.907227 C288.66617,375.712895 287.068286,376.339516 285.55542,376.787109 C284.042554,377.234703 282.435718,377.458496 280.734863,377.458496 C278.568511,377.458496 276.581226,377.14071 274.772949,376.505127 C272.964672,375.869544 271.416022,374.907233 270.126953,373.618164 C268.81998,372.329095 267.808435,370.69988 267.092285,368.730469 C266.376136,366.761058 266.018066,364.460462 266.018066,361.828613 C266.018066,356.92299 267.365302,353.073744 270.059814,350.280762 C272.754327,347.487779 276.312641,346.091309 280.734863,346.091309 C282.453622,346.091309 284.141024,346.333005 285.797119,346.816406 C287.453215,347.299807 288.970533,347.890622 290.349121,348.588867 L290.349121,354.20166 L290.080566,354.20166 C288.540845,353.00211 286.951912,352.080081 285.313721,351.435547 C283.675529,350.791012 282.077645,350.46875 280.52002,350.46875 C277.655422,350.46875 275.395109,351.431061 273.739014,353.355713 C272.082918,355.280364 271.254883,358.104636 271.254883,361.828613 C271.254883,365.445168 272.065015,368.224681 273.685303,370.167236 C275.305591,372.109792 277.583807,373.081055 280.52002,373.081055 C281.540532,373.081055 282.578934,372.946779 283.635254,372.678223 C284.691574,372.409667 285.640458,372.060549 286.481934,371.630859 C287.215987,371.254881 287.90527,370.856529 288.549805,370.435791 C289.194339,370.015053 289.704588,369.652508 290.080566,369.348145 L290.349121,369.348145 L290.349121,374.907227 Z M314.039551,352.294922 L313.770996,352.294922 C313.019039,352.115885 312.289473,351.986084 311.582275,351.905518 C310.875078,351.824951 310.038091,351.784668 309.071289,351.784668 C307.513664,351.784668 306.009773,352.12931 304.55957,352.818604 C303.109368,353.507897 301.712897,354.398595 300.370117,355.490723 L300.370117,376.787109 L295.321289,376.787109 L295.321289,346.789551 L300.370117,346.789551 L300.370117,351.220703 C302.375336,349.609367 304.143303,348.468021 305.674072,347.796631 C307.204842,347.125241 308.766919,346.789551 310.360352,346.789551 C311.237635,346.789551 311.873208,346.81193 312.26709,346.856689 C312.660972,346.901449 313.251786,346.98649 314.039551,347.111816 L314.039551,352.294922 Z M322.717773,341.767578 L317.024414,341.767578 L317.024414,336.530762 L322.717773,336.530762 L322.717773,341.767578 Z M322.395508,376.787109 L317.34668,376.787109 L317.34668,346.789551 L322.395508,346.789551 L322.395508,376.787109 Z M357.284668,361.425781 C357.284668,363.860689 356.93555,366.085195 356.237305,368.099365 C355.539059,370.113535 354.554368,371.818841 353.283203,373.215332 C352.101557,374.540208 350.709562,375.565182 349.107178,376.290283 C347.504793,377.015384 345.80844,377.37793 344.018066,377.37793 C342.460441,377.37793 341.050543,377.207847 339.78833,376.867676 C338.526117,376.527505 337.241543,375.999353 335.93457,375.283203 L335.93457,387.851562 L330.885742,387.851562 L330.885742,346.789551 L335.93457,346.789551 L335.93457,349.931641 C337.27735,348.803705 338.785718,347.859297 340.459717,347.098389 C342.133716,346.33748 343.919587,345.957031 345.817383,345.957031 C349.433937,345.957031 352.249258,347.322171 354.263428,350.05249 C356.277598,352.78281 357.284668,356.573869 357.284668,361.425781 Z M352.074707,361.560059 C352.074707,357.943504 351.457037,355.240081 350.22168,353.449707 C348.986322,351.659333 347.088554,350.76416 344.52832,350.76416 C343.078118,350.76416 341.618985,351.077471 340.150879,351.704102 C338.682773,352.330732 337.27735,353.154292 335.93457,354.174805 L335.93457,371.174316 C337.366869,371.818851 338.597732,372.257486 339.627197,372.490234 C340.656662,372.722983 341.824863,372.839355 343.131836,372.839355 C345.942722,372.839355 348.135897,371.890472 349.711426,369.992676 C351.286954,368.09488 352.074707,365.284036 352.074707,361.560059 Z M379.229492,376.518555 C378.280594,376.769207 377.246669,376.975097 376.127686,377.13623 C375.008702,377.297364 374.010584,377.37793 373.133301,377.37793 C370.071762,377.37793 367.744311,376.55437 366.150879,374.907227 C364.557446,373.260083 363.760742,370.619322 363.760742,366.984863 L363.760742,351.032715 L360.350098,351.032715 L360.350098,346.789551 L363.760742,346.789551 L363.760742,338.168945 L368.80957,338.168945 L368.80957,346.789551 L379.229492,346.789551 L379.229492,351.032715 L368.80957,351.032715 L368.80957,364.702148 C368.80957,366.277677 368.845377,367.50854 368.916992,368.394775 C368.988607,369.28101 369.239256,370.109046 369.668945,370.878906 C370.062827,371.595056 370.604407,372.118732 371.293701,372.449951 C371.982995,372.78117 373.034824,372.946777 374.449219,372.946777 C375.272791,372.946777 376.132157,372.825929 377.027344,372.584229 C377.922531,372.342528 378.567055,372.141114 378.960938,371.97998 L379.229492,371.97998 L379.229492,376.518555 Z M435.848633,356.833496 C435.848633,360.467954 435.056404,363.762192 433.471924,366.716309 C431.887443,369.670425 429.77931,371.962069 427.147461,373.591309 C425.32128,374.719244 423.284761,375.533852 421.037842,376.035156 C418.790923,376.536461 415.832375,376.787109 412.162109,376.787109 L402.064453,376.787109 L402.064453,336.799316 L412.054688,336.799316 C415.957702,336.799316 419.059477,337.081296 421.360107,337.645264 C423.660737,338.209231 425.607739,338.983556 427.201172,339.968262 C429.92254,341.669117 432.0441,343.933905 433.565918,346.762695 C435.087735,349.591485 435.848633,352.948386 435.848633,356.833496 Z M430.289551,356.75293 C430.289551,353.619776 429.743495,350.979015 428.651367,348.830566 C427.559239,346.682118 425.930024,344.990241 423.763672,343.754883 C422.188143,342.859696 420.514169,342.237551 418.741699,341.888428 C416.969229,341.539305 414.847669,341.364746 412.376953,341.364746 L407.381836,341.364746 L407.381836,372.22168 L412.376953,372.22168 C414.937187,372.22168 417.170645,372.033693 419.077393,371.657715 C420.98414,371.281736 422.734204,370.583501 424.327637,369.562988 C426.314951,368.291823 427.805415,366.617849 428.799072,364.541016 C429.79273,362.464182 430.289551,359.86818 430.289551,356.75293 Z M467.649414,362.312012 L445.547363,362.312012 C445.547363,364.156096 445.824867,365.762933 446.379883,367.132568 C446.934899,368.502204 447.695796,369.625647 448.662598,370.50293 C449.593592,371.362309 450.699131,372.006834 451.979248,372.436523 C453.259365,372.866213 454.669263,373.081055 456.208984,373.081055 C458.25001,373.081055 460.304433,372.673751 462.372314,371.859131 C464.440196,371.044511 465.912756,370.243331 466.790039,369.455566 L467.058594,369.455566 L467.058594,374.960938 C465.357739,375.677087 463.621103,376.276853 461.848633,376.760254 C460.076163,377.243655 458.214202,377.485352 456.262695,377.485352 C451.285457,377.485352 447.400405,376.138116 444.607422,373.443604 C441.814439,370.749091 440.417969,366.922225 440.417969,361.962891 C440.417969,357.057267 441.756253,353.163263 444.432861,350.280762 C447.10947,347.39826 450.631977,345.957031 455.000488,345.957031 C459.046732,345.957031 462.166412,347.13866 464.359619,349.501953 C466.552827,351.865246 467.649414,355.222146 467.649414,359.572754 L467.649414,362.312012 Z M462.734863,358.444824 C462.71696,355.795071 462.050055,353.745124 460.734131,352.294922 C459.418206,350.844719 457.417494,350.119629 454.731934,350.119629 C452.02847,350.119629 449.875578,350.916333 448.273193,352.509766 C446.670809,354.103198 445.762208,356.081531 445.547363,358.444824 L462.734863,358.444824 Z M499.745605,346.789551 L487.606934,376.787109 L482.53125,376.787109 L470.473145,346.789551 L475.95166,346.789551 L485.243652,370.664062 L494.455078,346.789551 L499.745605,346.789551 Z M529.478516,362.312012 L507.376465,362.312012 C507.376465,364.156096 507.653969,365.762933 508.208984,367.132568 C508.764,368.502204 509.524898,369.625647 510.491699,370.50293 C511.422693,371.362309 512.528233,372.006834 513.80835,372.436523 C515.088467,372.866213 516.498365,373.081055 518.038086,373.081055 C520.079112,373.081055 522.133535,372.673751 524.201416,371.859131 C526.269297,371.044511 527.741858,370.243331 528.619141,369.455566 L528.887695,369.455566 L528.887695,374.960938 C527.18684,375.677087 525.450204,376.276853 523.677734,376.760254 C521.905265,377.243655 520.043304,377.485352 518.091797,377.485352 C513.114558,377.485352 509.229506,376.138116 506.436523,373.443604 C503.643541,370.749091 502.24707,366.922225 502.24707,361.962891 C502.24707,357.057267 503.585354,353.163263 506.261963,350.280762 C508.938571,347.39826 512.461078,345.957031 516.82959,345.957031 C520.875834,345.957031 523.995513,347.13866 526.188721,349.501953 C528.381928,351.865246 529.478516,355.222146 529.478516,359.572754 L529.478516,362.312012 Z M524.563965,358.444824 C524.546061,355.795071 523.879157,353.745124 522.563232,352.294922 C521.247308,350.844719 519.246595,350.119629 516.561035,350.119629 C513.857571,350.119629 511.704679,350.916333 510.102295,352.509766 C508.499911,354.103198 507.59131,356.081531 507.376465,358.444824 L524.563965,358.444824 Z M540.734863,376.787109 L535.686035,376.787109 L535.686035,335 L540.734863,335 L540.734863,376.787109 Z M574.791504,361.801758 C574.791504,366.689478 573.538261,370.547675 571.031738,373.376465 C568.525215,376.205255 565.168315,377.619629 560.960938,377.619629 C556.717752,377.619629 553.347425,376.205255 550.849854,373.376465 C548.352282,370.547675 547.103516,366.689478 547.103516,361.801758 C547.103516,356.914038 548.352282,353.051365 550.849854,350.213623 C553.347425,347.375881 556.717752,345.957031 560.960938,345.957031 C565.168315,345.957031 568.525215,347.375881 571.031738,350.213623 C573.538261,353.051365 574.791504,356.914038 574.791504,361.801758 Z M569.581543,361.801758 C569.581543,357.916647 568.820646,355.029713 567.298828,353.140869 C565.777011,351.252025 563.664402,350.307617 560.960938,350.307617 C558.221666,350.307617 556.095629,351.252025 554.582764,353.140869 C553.069898,355.029713 552.313477,357.916647 552.313477,361.801758 C552.313477,365.561542 553.074374,368.412669 554.596191,370.355225 C556.118009,372.29778 558.23957,373.269043 560.960938,373.269043 C563.646498,373.269043 565.754631,372.306732 567.2854,370.38208 C568.81617,368.457429 569.581543,365.59735 569.581543,361.801758 Z M607.505371,361.425781 C607.505371,363.860689 607.156253,366.085195 606.458008,368.099365 C605.759762,370.113535 604.775071,371.818841 603.503906,373.215332 C602.32226,374.540208 600.930265,375.565182 599.327881,376.290283 C597.725497,377.015384 596.029143,377.37793 594.23877,377.37793 C592.681145,377.37793 591.271247,377.207847 590.009033,376.867676 C588.74682,376.527505 587.462246,375.999353 586.155273,375.283203 L586.155273,387.851562 L581.106445,387.851562 L581.106445,346.789551 L586.155273,346.789551 L586.155273,349.931641 C587.498054,348.803705 589.006421,347.859297 590.68042,347.098389 C592.354419,346.33748 594.14029,345.957031 596.038086,345.957031 C599.65464,345.957031 602.469961,347.322171 604.484131,350.05249 C606.498301,352.78281 607.505371,356.573869 607.505371,361.425781 Z M602.29541,361.560059 C602.29541,357.943504 601.677741,355.240081 600.442383,353.449707 C599.207025,351.659333 597.309258,350.76416 594.749023,350.76416 C593.298821,350.76416 591.839688,351.077471 590.371582,351.704102 C588.903476,352.330732 587.498054,353.154292 586.155273,354.174805 L586.155273,371.174316 C587.587572,371.818851 588.818436,372.257486 589.8479,372.490234 C590.877365,372.722983 592.045566,372.839355 593.352539,372.839355 C596.163426,372.839355 598.3566,371.890472 599.932129,369.992676 C601.507658,368.09488 602.29541,365.284036 602.29541,361.560059 Z M638.983887,362.312012 L616.881836,362.312012 C616.881836,364.156096 617.15934,365.762933 617.714355,367.132568 C618.269371,368.502204 619.030269,369.625647 619.99707,370.50293 C620.928065,371.362309 622.033604,372.006834 623.313721,372.436523 C624.593838,372.866213 626.003736,373.081055 627.543457,373.081055 C629.584483,373.081055 631.638906,372.673751 633.706787,371.859131 C635.774669,371.044511 637.247229,370.243331 638.124512,369.455566 L638.393066,369.455566 L638.393066,374.960938 C636.692212,375.677087 634.955575,376.276853 633.183105,376.760254 C631.410636,377.243655 629.548675,377.485352 627.597168,377.485352 C622.61993,377.485352 618.734877,376.138116 615.941895,373.443604 C613.148912,370.749091 611.752441,366.922225 611.752441,361.962891 C611.752441,357.057267 613.090726,353.163263 615.767334,350.280762 C618.443942,347.39826 621.96645,345.957031 626.334961,345.957031 C630.381205,345.957031 633.500884,347.13866 635.694092,349.501953 C637.887299,351.865246 638.983887,355.222146 638.983887,359.572754 L638.983887,362.312012 Z M634.069336,358.444824 C634.051432,355.795071 633.384528,353.745124 632.068604,352.294922 C630.752679,350.844719 628.751967,350.119629 626.066406,350.119629 C623.362942,350.119629 621.21005,350.916333 619.607666,352.509766 C618.005282,354.103198 617.096681,356.081531 616.881836,358.444824 L634.069336,358.444824 Z M663.855957,352.294922 L663.587402,352.294922 C662.835445,352.115885 662.105879,351.986084 661.398682,351.905518 C660.691484,351.824951 659.854497,351.784668 658.887695,351.784668 C657.33007,351.784668 655.826179,352.12931 654.375977,352.818604 C652.925774,353.507897 651.529304,354.398595 650.186523,355.490723 L650.186523,376.787109 L645.137695,376.787109 L645.137695,346.789551 L650.186523,346.789551 L650.186523,351.220703 C652.191742,349.609367 653.959709,348.468021 655.490479,347.796631 C657.021248,347.125241 658.583325,346.789551 660.176758,346.789551 C661.054041,346.789551 661.689614,346.81193 662.083496,346.856689 C662.477378,346.901449 663.068193,346.98649 663.855957,347.111816 L663.855957,352.294922 Z" id="TypeScript-Developer"></path>
        </g>
    </g>
</svg>