<?xml version="1.0" encoding="UTF-8"?>
<svg width="1500px" height="600px" viewBox="0 0 1500 600" version="1.1" xmlns="http://www.w3.org/2000/svg" xmlns:xlink="http://www.w3.org/1999/xlink">
    <defs>  
        <radialGradient
            id="gradient-1"
            r=".5"
            cx="0.5" cy="0.5"
            fx="0.5" fy="0.5"
            spreadMethod="pad">
 
            <animate
                attributeName="cx"
                values="0.5;0.2;0.3;0.5"
                dur="20s"
                calcMode="spline"
                _keySplines="0.4 0 0.2 1; 0.4 0 0.2 1"
                repeatCount="indefinite"/>
            <animate
                attributeName="cy"
                values="0.5;0.2;0.6;0.5"
                dur="20s"
                repeatCount="indefinite"/>
            <animate
                attributeName="fx"
                values="0.5;0.2;0.5;0.5"
                dur="20s"
                repeatCount="indefinite"/>
            <animate
                attributeName="fy"
                values=".5;0.2;0.6;0.5"
                dur="20s"
                repeatCount="indefinite"/>
            <animate
                attributeName="r"
                values="0.5;1;0.5"
                dur="20s"
                repeatCount="indefinite"/>
    
            <stop offset="0%" stop-color="rgba(78, 14, 250, 0.8)">
                <animate
                    attributeName="stop-color"
                    values="
                        rgba(78, 14, 250, 0.8);
                        rgba(249, 0, 236, 1);
                        rgba(78, 14, 250, 0.8)"
                    dur="20s"
                    repeatCount="indefinite"/>
            </stop>
            <stop offset="100%" stop-color="rgba(255, 217, 168, 0)">
            </stop>
        </radialGradient>

        <radialGradient
            id="gradient-2"
            r=".5"
            cx="0.5" cy="0.5"
            fx="0.5" fy="0.5"
            spreadMethod="pad">

            <animate
                attributeName="cx"
                values="0.5;1;0.5"
                dur="30s"
                calcMode="spline"
                _keySplines="0.4 0 0.2 1; 0.4 0 0.2 1"
                repeatCount="indefinite"/>
            <animate
                attributeName="cy"
                values="0.5;1;0.5"
                dur="30s"
                repeatCount="indefinite"/>
            <animate
                attributeName="fx"
                values="0.5;1;0.5"
                dur="30s"
                repeatCount="indefinite"/>
            <animate
                attributeName="fy"
                values="0.5;1;0.5"
                dur="30s"
                repeatCount="indefinite"/> 
            <stop offset="0%" stop-color="rgba(255, 217, 168, 1)">
                <animate
                    attributeName="stop-color"
                    values="
                        rgba(255, 2, 99, 0.8);
                        rgba(255, 71, 128, 0.5);
                        rgba(255, 2, 99, 0.8)"
                    dur="30s"
                    repeatCount="indefinite"/>
            </stop>
            <stop offset="100%" stop-color="rgba(255, 217, 168, 0)">
            </stop>
        </radialGradient>
    </defs>

    <g id="Page-1" stroke="none" stroke-width="1" fill="none" fill-rule="evenodd">
        <rect x="0" y="0" width="1500" height="600" fill="rgba(18, 0, 179, 1)">
            <animate
                attributeName="fill"
                values="
                    rgba(18, 0, 179, 1);
                    rgba(255, 217, 168, 1);
                    rgba(18, 0, 179, 1)"
                dur="25s"
                repeatCount="indefinite"/>
        </rect>
        <rect x="-400" y="-100" width="2000" height="1200" fill="url('#gradient-1')"></rect>
        <rect x="300" y="-500" width="2000" height="1200" fill="url('#gradient-2')"></rect>

        <g id="Group" transform="translate(304.000000, 106.000000)" fill="#FFFFFF">
            <path d="M816.016317,162.348088 C815.979143,162.409017 815.941956,162.469918 815.904754,162.530793 C814.3612,165.056609 812.794282,167.582388 811.203953,170.108204 C810.455563,171.417887 809.660411,172.680776 808.818472,173.89691 C807.976533,175.113043 807.134607,176.375933 806.292668,177.685615 C805.824924,178.340456 805.380575,178.971901 804.959605,179.579968 C804.538636,180.188035 804.094286,180.772706 803.626542,181.333998 C802.784603,182.550132 801.84913,183.766248 800.820094,184.982381 C800.35235,185.637223 799.744292,185.988025 798.995902,186.0348 C798.247512,186.081574 797.59268,185.871092 797.031388,185.403349 C796.563644,185.029154 796.236228,184.514643 796.049131,183.859802 C795.862033,183.111412 795.721712,182.363033 795.628164,181.614643 L795.347519,179.369484 C795.25397,178.621094 795.18381,177.872715 795.137035,177.124325 C795.090261,176.375935 795.066874,175.627557 795.066874,174.879167 L795.066874,170.529171 C795.066874,169.12594 795.160421,167.675956 795.347519,166.179176 C795.534616,163.372713 795.768485,160.542906 796.049131,157.689669 C796.329777,154.836432 796.703967,152.006625 797.17171,149.200162 C797.545905,146.3937 797.966868,143.587279 798.434612,140.780817 C798.902356,137.974354 799.370093,135.214707 799.837837,132.501793 C800.30558,129.695331 800.820091,126.912297 801.381383,124.152609 C801.942676,121.392921 802.50396,118.609887 803.065252,115.803425 C803.065252,115.42923 803.112026,115.148588 803.205575,114.96149 C802.737831,115.70988 802.340255,116.505033 802.012834,117.346971 C801.685414,118.18891 801.334611,118.984063 800.960416,119.732453 C799.276538,123.380854 797.545912,127.005814 795.768486,130.607441 C793.99106,134.209068 792.166887,137.787254 790.295911,141.342106 L784.40237,152.006611 C783.373333,153.690488 782.297539,155.397728 781.174954,157.128379 C780.052369,158.859031 778.836253,160.519497 777.526571,162.109826 L775.421734,164.495307 C774.95399,164.963051 774.533027,165.360627 774.158832,165.688048 C773.784637,166.015468 773.363674,166.366271 772.89593,166.740466 L771.492706,167.863045 L769.949159,168.70498 C769.481416,168.892077 768.873358,169.079172 768.124968,169.266269 L767.002389,169.546914 C766.815291,169.546914 766.581423,169.523527 766.300776,169.476753 C766.02013,169.429979 765.786262,169.406592 765.599164,169.406592 C765.224969,169.313043 764.757232,169.079175 764.19594,168.70498 C763.915294,168.517882 763.704812,168.330788 763.564489,168.14369 C763.424166,167.956593 763.260458,167.769498 763.073361,167.5824 C762.886263,167.301754 762.699168,166.880791 762.512071,166.319498 L762.231426,165.337241 C762.137877,164.869498 762.091104,164.26144 762.091104,163.51305 C762.091104,162.671111 762.137877,162.063053 762.231426,161.688858 C762.254702,161.200058 762.295352,160.705468 762.353377,160.205088 L760.968524,161.688858 L759.845945,162.671115 C759.47175,163.04531 759.004013,163.372726 758.44272,163.653372 L756.758851,164.495307 C756.197559,164.682404 755.823369,164.775952 755.636272,164.775952 L754.092725,164.775952 C753.812079,164.682403 753.50805,164.588856 753.180629,164.495307 C752.853209,164.401758 752.595954,164.261437 752.408856,164.07434 L751.286277,163.232405 C751.00563,162.85821 750.795149,162.530794 750.654826,162.250148 C750.514503,161.969502 750.350795,161.68886 750.163697,161.408214 C749.789502,160.659823 749.555634,160.098539 749.462085,159.724344 L749.041118,158.32112 C748.947569,157.853376 748.877409,157.362253 748.830634,156.847735 C748.78386,156.333216 748.666926,155.842093 748.479828,155.374349 C748.292731,154.438862 748.175796,153.526775 748.129022,152.638062 C748.082248,151.749349 748.012087,150.884036 747.918538,150.042097 L743.98951,156.496929 L740.060482,162.671115 C738.7508,164.635639 737.34759,166.600133 735.85081,168.564657 C735.10242,169.593694 734.330654,170.552554 733.53549,171.441267 C732.740325,172.32998 731.828238,173.242067 730.799202,174.177554 C730.331458,174.645298 729.816948,175.089648 729.255656,175.510617 C728.694363,175.931587 728.086305,176.329163 727.431464,176.703358 C727.057269,176.890456 726.706466,177.054163 726.379046,177.194487 C726.051625,177.33481 725.700823,177.498518 725.326628,177.685615 C724.765335,177.872713 724.344372,177.96626 724.063726,177.96626 C723.876628,178.059809 723.64276,178.106582 723.362114,178.106582 C723.268565,178.106582 723.175017,178.153356 723.081469,178.246905 L721.958889,178.246905 C721.771792,178.246905 721.608084,178.223518 721.467761,178.176744 C721.327438,178.129969 721.16373,178.106582 720.976632,178.106582 C720.041145,177.732387 719.386313,177.404972 719.012118,177.124325 C718.450826,176.75013 718.029863,176.329167 717.749216,175.861424 L717.047604,174.458199 C716.860507,173.990455 716.720186,173.592879 716.626637,173.265459 C716.533088,172.938038 716.439541,172.587235 716.345992,172.21304 L716.065347,170.108204 L716.065347,166.179176 L716.345992,162.530793 L717.328249,155.234027 L718.591151,148.217905 L721.537922,134.185663 L723.642758,123.661481 L724.063726,121.977611 L724.344371,120.15342 C724.718566,118.563091 725.560492,117.323589 726.870174,116.434876 C728.179857,115.546162 729.629841,115.242133 731.220169,115.52278 C732.810498,115.896975 734.050001,116.738901 734.938714,118.048583 C735.827427,119.358266 736.131456,120.80825 735.85081,122.398579 L735.429842,123.801803 L735.008875,124.643738 L734.587908,125.34535 C734.494359,125.906642 734.260491,126.421153 733.886296,126.888896 C733.699198,127.450189 733.488717,128.011473 733.254845,128.572765 C733.020973,129.134058 732.763718,129.648568 732.483071,130.116312 L731.220169,133.343728 L729.957268,136.711466 C729.208878,138.863088 728.460499,141.038063 727.712109,143.236459 C726.963719,145.434855 726.262114,147.656604 725.607272,149.901774 L723.923403,156.496929 L723.221791,159.864667 L722.660501,163.232405 L722.239534,166.600143 L722.239534,169.687237 C722.239534,169.874334 722.262921,170.108203 722.309695,170.388849 C722.35647,170.669495 722.379857,170.903363 722.379857,171.090461 C722.473405,171.277559 722.520179,171.464653 722.520179,171.651751 C722.520179,171.838848 722.566953,171.979169 722.660501,172.072718 L722.800824,172.072718 C722.894373,172.072718 722.964533,172.049331 723.011307,172.002557 C723.058082,171.955782 723.128242,171.932396 723.221791,171.932396 L724.344371,171.371106 C724.905663,171.09046 725.654042,170.529175 726.589529,169.687237 L728.694366,167.301755 C729.068561,166.834012 729.419363,166.389662 729.746784,165.968692 C730.074205,165.547723 730.378234,165.103373 730.65888,164.635629 C731.313721,163.700142 731.945166,162.788055 732.553233,161.899342 C733.161299,161.010629 733.74597,160.051769 734.307263,159.022732 L737.534679,152.988868 C739.592751,148.592076 741.416925,144.335672 743.007253,140.219527 C743.474997,139.190491 743.872573,138.114696 744.199994,136.992111 C744.527415,135.869526 744.878217,134.746958 745.252412,133.624373 C745.43951,133.156629 745.626604,132.642119 745.813702,132.080826 L746.374992,130.396957 L746.795959,128.713088 L746.795959,128.572765 L747.076604,127.871153 L747.076604,127.450186 C747.170153,127.356637 747.216926,127.216316 747.216926,127.029219 C747.591121,125.43889 748.433047,124.222774 749.74273,123.380836 C751.052412,122.538897 752.502396,122.305029 754.092725,122.679224 C755.402408,122.95987 756.454815,123.591314 757.24998,124.573576 C758.045144,125.555838 758.489494,126.701793 758.583043,128.011476 L758.723365,129.97599 C758.629817,130.069539 758.583043,130.163086 758.583043,130.256635 L758.44272,130.537279 L758.302398,131.238892 L758.162076,131.519536 L758.302398,131.519536 L758.021753,132.080826 L758.021753,132.361471 L757.320141,134.887275 L756.899174,137.413078 C756.712076,137.880822 756.595142,138.301785 756.548368,138.67598 C756.501593,139.050175 756.431433,139.471138 756.337884,139.938882 C755.776591,143.11954 755.355628,146.440471 755.074982,149.901774 C754.981433,150.743713 754.93466,151.585639 754.93466,152.427578 L754.93466,154.813059 L755.215305,157.058218 C755.215305,157.525962 755.262078,157.900151 755.355627,158.180798 C755.355627,158.554993 755.402401,158.788861 755.495949,158.88241 L755.636272,158.88241 C756.010467,158.695312 756.571751,158.321123 757.320141,157.75983 L759.00401,156.075961 L760.547557,154.25177 C760.828203,153.971123 761.085458,153.667095 761.31933,153.339674 C761.553202,153.012253 761.810457,152.661451 762.091104,152.287256 L763.63465,150.322742 C763.821748,149.948547 764.032229,149.597744 764.266101,149.270324 C764.499973,148.942903 764.757228,148.5921 765.037875,148.217905 C765.435117,147.582317 765.815486,146.963606 766.17899,146.361757 L767.142711,143.727588 C767.891101,141.856613 768.662867,139.985666 769.458031,138.114691 C770.253195,136.243715 771.118508,134.372768 772.053996,132.501793 C772.52174,131.566306 772.96609,130.654219 773.387059,129.765506 C773.808028,128.876793 774.252378,127.964706 774.720122,127.029219 C775.187866,126.000182 775.702376,125.041322 776.263669,124.152609 C776.824961,123.263896 777.386245,122.351809 777.947538,121.416322 C778.228184,120.948578 778.508826,120.504228 778.789472,120.083259 C779.070119,119.662289 779.397534,119.217939 779.771729,118.750196 L781.876566,115.943747 C782.34431,115.476003 782.812046,115.031653 783.27979,114.610684 C783.747534,114.189715 784.308818,113.745365 784.963659,113.277621 C785.337854,113.090523 785.712044,112.880042 786.086239,112.64617 C786.460434,112.412298 786.881397,112.201817 787.34914,112.014719 L788.892687,111.593752 C789.079785,111.500203 789.4072,111.453429 789.874944,111.453429 L790.716879,111.453429 C792.026561,111.359881 793.172516,111.687296 794.154778,112.435686 C795.13704,113.184076 795.862032,114.166324 796.329776,115.382457 L800.258804,105.279243 C801.568486,101.911487 802.831376,98.4970092 804.047509,95.0357053 C804.795899,93.1647303 805.497504,91.2937833 806.152346,89.4228082 L810.081374,78.197014 C810.36202,77.1679777 810.666049,76.2091174 810.99347,75.3204043 C811.32089,74.4316911 811.624919,73.5196044 811.905565,72.5841169 C812.560407,70.7131419 813.191851,68.818808 813.799918,66.9010586 C814.407985,64.9833092 814.992656,63.0422017 815.553948,61.0776779 L817.237818,55.4647808 L818.079752,52.5180098 L818.079752,52.3776874 L818.781364,49.9922061 L819.062009,49.4309164 C819.623302,47.8405876 820.628936,46.7180194 822.078941,46.0631781 C823.528947,45.4083369 825.049091,45.4083369 826.63942,46.0631781 C828.229749,46.6244706 829.352317,47.6067178 830.007158,49.0099491 C830.662,50.4131804 830.755547,51.8631643 830.287803,53.3599444 L829.024901,57.2889723 L827.762,61.3583227 L825.236196,69.3567011 C824.487806,72.0696149 823.692653,74.7591012 822.850715,77.4252407 C822.008776,80.0913801 821.213623,82.7808664 820.465233,85.4937802 C818.874905,90.8260592 817.331373,96.1816449 815.834593,101.560698 C814.337813,106.939751 812.934603,112.342111 811.62492,117.767939 C810.87653,120.480852 810.174925,123.193726 809.520084,125.906639 L807.55557,134.04534 C806.245887,139.564717 805.123319,145.037237 804.187832,150.463064 C803.626539,153.175978 803.135416,155.888851 802.714446,158.601765 C802.293477,161.314679 801.895901,164.027552 801.521706,166.740466 C801.334608,168.143697 801.194287,169.52352 801.100738,170.879977 C801.00719,172.236434 800.960416,173.569484 800.960416,174.879167 C800.866867,175.066264 800.820094,175.39368 800.820094,175.861424 L801.802351,174.598522 C802.644289,173.382388 803.462829,172.166272 804.257993,170.950139 C805.053157,169.734005 805.824923,168.471116 806.573313,167.161433 C808.163642,164.729165 809.73056,162.250161 811.274114,159.724344 C812.817669,157.198528 814.337813,154.67275 815.834593,152.146933 L821.691336,142.080657 C822.229828,140.758669 822.779995,139.436687 823.341843,138.114691 C824.137008,136.243715 825.002321,134.372768 825.937808,132.501793 C826.405552,131.566306 826.849902,130.654219 827.270871,129.765506 C827.69184,128.876793 828.13619,127.964706 828.603934,127.029219 C829.071678,126.000182 829.586188,125.041322 830.147481,124.152609 C830.708773,123.263896 831.270057,122.351809 831.83135,121.416322 C832.111996,120.948578 832.392638,120.504228 832.673285,120.083259 C832.953931,119.662289 833.281347,119.217939 833.655542,118.750196 L835.760378,115.943747 C836.228122,115.476003 836.695858,115.031653 837.163602,114.610684 C837.631346,114.189715 838.19263,113.745365 838.847471,113.277621 C839.221666,113.090523 839.595856,112.880042 839.970051,112.64617 C840.344246,112.412298 840.765209,112.201817 841.232953,112.014719 L842.776499,111.593752 C842.963597,111.500203 843.291013,111.453429 843.758756,111.453429 L844.600691,111.453429 C845.910373,111.359881 847.056328,111.687296 848.03859,112.435686 C849.020852,113.184076 849.745844,114.166324 850.213588,115.382457 L854.142616,105.279243 C855.452298,101.911487 856.715188,98.4970092 857.931321,95.0357053 C858.679712,93.1647303 859.381317,91.2937833 860.036158,89.4228082 L863.965186,78.197014 C864.245832,77.1679777 864.549861,76.2091174 864.877282,75.3204043 C865.204702,74.4316911 865.508731,73.5196044 865.789377,72.5841169 C866.444219,70.7131419 867.075663,68.818808 867.68373,66.9010586 C868.291797,64.9833092 868.876468,63.0422017 869.437761,61.0776779 L871.12163,55.4647808 L871.963564,52.5180098 L871.963564,52.3776874 L872.665176,49.9922061 L872.945821,49.4309164 C873.507114,47.8405876 874.512748,46.7180194 875.962753,46.0631781 C877.412759,45.4083369 878.932904,45.4083369 880.523232,46.0631781 C882.113561,46.6244706 883.236129,47.6067178 883.890971,49.0099491 C884.545812,50.4131804 884.639359,51.8631643 884.171615,53.3599444 L882.908714,57.2889723 L881.645812,61.3583227 L879.120008,69.3567011 C878.371618,72.0696149 877.576466,74.7591012 876.734527,77.4252407 C875.892588,80.0913801 875.097436,82.7808664 874.349046,85.4937802 C872.758717,90.8260592 871.215185,96.1816449 869.718405,101.560698 C868.221625,106.939751 866.818415,112.342111 865.508733,117.767939 C864.760343,120.480852 864.058737,123.193726 863.403896,125.906639 L861.439382,134.04534 C860.1297,139.564717 859.007131,145.037237 858.071644,150.463064 C857.510351,153.175978 857.019228,155.888851 856.598258,158.601765 C856.177289,161.314679 855.779713,164.027552 855.405518,166.740466 C855.21842,168.143697 855.078099,169.52352 854.984551,170.879977 C854.891002,172.236434 854.844228,173.569484 854.844228,174.879167 C854.750679,175.066264 854.703906,175.39368 854.703906,175.861424 L855.686163,174.598522 C856.528101,173.382388 857.346641,172.166272 858.141805,170.950139 C858.93697,169.734005 859.708735,168.471116 860.457125,167.161433 C862.047454,164.729165 863.614372,162.250161 865.157927,159.724344 C866.701481,157.198528 868.221625,154.67275 869.718405,152.146933 L878.699041,136.711466 L887.399031,121.135677 C887.773226,120.480836 888.287737,120.059872 888.942578,119.872775 C889.597419,119.685677 890.252251,119.779225 890.907092,120.15342 C891.561933,120.527615 891.982896,121.042125 892.169994,121.696967 C892.357091,122.351808 892.263544,123.006639 891.889349,123.661481 C890.486118,126.280846 889.082907,128.876785 887.679676,131.449375 C886.276445,134.021966 884.826461,136.617905 883.329681,139.23727 C881.832901,141.856635 880.35953,144.452574 878.909524,147.025165 C877.459519,149.597755 875.939374,152.193694 874.349046,154.813059 C872.852265,157.432424 871.332121,160.004977 869.788567,162.530793 C868.245012,165.056609 866.678094,167.582388 865.087765,170.108204 C864.339375,171.417887 863.544223,172.680776 862.702284,173.89691 C861.860345,175.113043 861.018419,176.375933 860.17648,177.685615 C859.708737,178.340456 859.264387,178.971901 858.843417,179.579968 C858.422448,180.188035 857.978098,180.772706 857.510354,181.333998 C856.668415,182.550132 855.732942,183.766248 854.703906,184.982381 C854.236162,185.637223 853.628104,185.988025 852.879714,186.0348 C852.131324,186.081574 851.476493,185.871092 850.9152,185.403349 C850.447456,185.029154 850.120041,184.514643 849.932943,183.859802 C849.745846,183.111412 849.605525,182.363033 849.511976,181.614643 L849.231331,179.369484 C849.137782,178.621094 849.067622,177.872715 849.020847,177.124325 C848.974073,176.375935 848.950686,175.627557 848.950686,174.879167 L848.950686,170.529171 C848.950686,169.12594 849.044233,167.675956 849.231331,166.179176 C849.418428,163.372713 849.652297,160.542906 849.932943,157.689669 C850.213589,154.836432 850.587779,152.006625 851.055523,149.200162 C851.429718,146.3937 851.850681,143.587279 852.318424,140.780817 C852.786168,137.974354 853.253905,135.214707 853.721649,132.501793 C854.189392,129.695331 854.703903,126.912297 855.265195,124.152609 C855.826488,121.392921 856.387772,118.609887 856.949065,115.803425 C856.949065,115.42923 856.995838,115.148588 857.089387,114.96149 C856.621643,115.70988 856.224067,116.505033 855.896646,117.346971 C855.569226,118.18891 855.218423,118.984063 854.844228,119.732453 C853.160351,123.380854 851.429725,127.005814 849.652298,130.607441 C847.874872,134.209068 846.050699,137.787254 844.179724,141.342106 L838.286182,152.006611 C837.257145,153.690488 836.181351,155.397728 835.058766,157.128379 C833.936181,158.859031 832.720065,160.519497 831.410383,162.109826 L829.305546,164.495307 C828.837803,164.963051 828.416839,165.360627 828.042644,165.688048 C827.668449,166.015468 827.247486,166.366271 826.779743,166.740466 L825.376518,167.863045 L823.832972,168.70498 C823.365228,168.892077 822.75717,169.079172 822.00878,169.266269 L820.886201,169.546914 C820.699103,169.546914 820.465235,169.523527 820.184589,169.476753 C819.903942,169.429979 819.670074,169.406592 819.482976,169.406592 C819.108781,169.313043 818.641045,169.079175 818.079752,168.70498 C817.799106,168.517882 817.588624,168.330788 817.448301,168.14369 C817.307978,167.956593 817.14427,167.769498 816.957173,167.5824 C816.770075,167.301754 816.58298,166.880791 816.395883,166.319498 L816.115238,165.337241 C816.021689,164.869498 815.974916,164.26144 815.974916,163.51305 C815.974916,163.055725 815.988716,162.667405 816.016317,162.348088 Z M400.293111,126.857714 L400.901175,124.22277 L401.883432,120.434065 C402.257627,118.843736 403.099553,117.62762 404.409236,116.785682 C405.718918,115.943743 407.168902,115.756648 408.759231,116.224392 C410.256011,116.598587 411.425353,117.440513 412.267292,118.750196 C413.109231,120.059878 413.343099,121.463088 412.968904,122.959868 C412.781807,123.521161 412.594712,123.988898 412.407614,124.363093 L411.706002,125.906639 L410.864068,127.590508 C410.489873,128.338899 410.256004,128.900183 410.162455,129.274378 L409.320521,130.958247 L406.514072,137.693723 C405.578585,140.032442 404.713272,142.347739 403.918107,144.639683 C403.122943,146.931628 402.351177,149.246925 401.602787,151.585644 C401.228592,152.708229 400.901177,153.854184 400.62053,155.023543 C400.339884,156.192902 400.059242,157.338857 399.778596,158.461443 L399.217306,161.829181 C399.217306,162.109827 399.193919,162.390469 399.147145,162.671115 C399.100371,162.951762 399.076984,163.232404 399.076984,163.51305 L399.076984,164.214662 C399.264081,164.121113 399.544723,163.887245 399.918918,163.51305 L402.3044,160.987246 L404.689881,158.32112 C406.28021,156.356596 407.776967,154.438876 409.180198,152.567901 C409.928588,151.538864 410.65358,150.556617 411.355196,149.62113 C412.056812,148.685642 412.781804,147.703395 413.530194,146.674359 L417.739867,140.640494 C418.488257,139.611458 419.166475,138.582437 419.774542,137.553401 C420.382609,136.524365 421.060827,135.495344 421.809217,134.466307 C423.118899,132.314686 424.428562,130.209871 425.738245,128.151798 C427.047927,126.093726 428.35759,123.98891 429.667273,121.837289 C430.883407,119.872765 432.076135,117.908271 433.245495,115.943747 C434.414854,113.979223 435.560809,111.967955 436.683394,109.909883 L436.823717,109.488915 L437.104362,109.067948 C437.385008,108.506656 437.852745,108.132466 438.507586,107.945369 C439.162427,107.758271 439.770485,107.851818 440.331777,108.226013 C441.360814,108.880855 441.735003,109.816328 441.454357,111.032462 L441.454357,111.172784 L418.581801,182.5969 L419.844703,180.632386 C421.996324,177.171082 424.194687,173.756604 426.439857,170.388849 C428.685027,167.021094 431.023711,163.700163 433.455978,160.425957 C434.578563,158.742079 435.747905,157.081614 436.964039,155.44451 C438.180173,153.807407 439.396288,152.193715 440.612422,150.603387 L447.768866,140.921139 C450.107585,137.646933 452.399495,134.372776 454.644665,131.098569 C456.889835,127.824363 458.947877,124.456658 460.818852,120.995354 C461.286596,120.246964 461.894653,119.779228 462.643043,119.59213 C463.391433,119.405033 464.093038,119.49858 464.74788,119.872775 C465.49627,120.340519 465.987393,120.92519 466.221265,121.626805 C466.455137,122.328421 466.384977,123.053413 466.010782,123.801803 C464.981745,125.672778 463.952724,127.473564 462.923688,129.204216 C461.894652,130.934868 460.865631,132.688881 459.836595,134.466307 L453.101118,144.709845 L446.225319,154.532415 L439.489843,164.495307 C437.244673,167.863062 435.069697,171.230767 432.96485,174.598522 C430.860003,177.966277 428.778574,181.380755 426.720502,184.842059 C424.755978,188.303363 422.838257,191.788002 420.967282,195.29608 C419.096307,198.804158 417.318908,202.33557 415.63503,205.890423 C408.712422,220.109833 402.538297,234.796767 397.11247,249.951665 L396.831825,250.933922 L382.939905,294.012907 L382.518937,295.556454 L382.378615,295.837099 L382.378615,295.977421 C381.817322,297.56775 380.788301,298.713705 379.291521,299.415321 C377.794741,300.116937 376.25121,300.187097 374.660881,299.625805 C373.164101,299.064512 372.06492,298.058878 371.363304,296.608872 C370.661689,295.158867 370.544754,293.685496 371.012498,292.188716 C375.970582,276.659623 381.396328,261.364631 387.2899,246.303282 C387.757644,245.180697 388.201993,244.058129 388.622963,242.935544 C389.043932,241.812959 389.488282,240.690391 389.956026,239.567806 L429.246306,130.537279 L425.317278,136.711466 L421.247927,142.885653 C420.873732,143.446946 420.52293,143.984843 420.195509,144.499361 C419.868088,145.013879 419.56406,145.551776 419.283413,146.113069 L412.968904,155.374349 L410.723745,158.32112 C409.975355,159.443705 409.226976,160.472726 408.478586,161.408214 C408.104391,161.875957 407.730202,162.367081 407.356007,162.881599 C406.981812,163.396117 406.560849,163.887241 406.093105,164.354984 L403.426979,167.301755 L401.883432,168.70498 L400.760853,169.406592 C400.573755,169.593689 400.386661,169.710624 400.199563,169.757398 C400.012466,169.804172 399.778597,169.921106 399.497951,170.108204 L399.217306,170.108204 C399.123757,170.108204 399.076984,170.131591 399.076984,170.178365 C399.076984,170.22514 399.03021,170.248526 398.936661,170.248526 L397.11247,170.248526 C396.831823,170.154978 396.574568,170.06143 396.340696,169.967882 C396.106824,169.874333 395.896343,169.780785 395.709245,169.687237 C395.522148,169.500139 395.35844,169.359818 395.218117,169.266269 C395.077794,169.172721 394.96086,169.0324 394.867311,168.845302 C394.399567,168.28401 394.072151,167.722726 393.885054,167.161433 C393.697956,166.413043 393.604409,165.945306 393.604409,165.758209 C393.51086,165.290465 393.4407,164.892889 393.393925,164.565468 C393.347151,164.238047 393.323764,163.887245 393.323764,163.51305 L393.323764,161.408214 L393.744731,157.479186 L395.007633,149.901774 C395.201184,148.89531 395.402744,147.886845 395.612312,146.876381 C395.273679,147.415479 394.931797,147.956201 394.586666,148.49855 L390.657638,154.532415 L388.412479,157.479186 C387.664089,158.508222 386.822163,159.490469 385.886676,160.425957 C385.512481,160.987249 384.99797,161.501759 384.343129,161.969503 L383.220549,162.811438 C382.846354,162.998535 382.565712,163.092083 382.378615,163.092083 L381.115713,163.51305 C380.647969,163.51305 380.039911,163.419503 379.291521,163.232405 C379.010875,163.138856 378.75362,163.021922 378.519748,162.881599 C378.285876,162.741276 378.075395,162.577568 377.888297,162.39047 C377.7012,162.203373 377.560879,162.039665 377.46733,161.899342 C377.373781,161.759019 377.23346,161.595311 377.046363,161.408214 L376.625395,160.706601 L376.064106,159.303377 L375.783461,158.180798 C375.596363,157.24531 375.502816,156.543705 375.502816,156.075961 C375.409267,155.795315 375.362493,155.491286 375.362493,155.163865 L375.362493,154.25177 C375.268945,153.596928 375.198784,152.965484 375.15201,152.357417 C375.105235,151.74935 375.081849,151.117905 375.081849,150.463064 C374.9883,149.24693 374.941526,148.054202 374.941526,146.884842 L374.941526,143.30662 L374.801204,136.150177 L374.660881,134.466307 L374.660881,131.098569 C374.567333,130.911472 374.520559,130.63083 374.520559,130.256635 C373.67862,131.005025 372.977015,131.70663 372.415722,132.361471 L369.889919,134.887275 C368.29959,136.477604 366.709285,138.138069 365.118956,139.868721 C363.528627,141.599373 361.938323,143.306612 360.347994,144.990489 L350.806069,155.514672 C349.21574,157.292098 347.672209,159.046111 346.175429,160.776763 C344.678649,162.507415 343.181891,164.308201 341.685111,166.179176 L339.580274,168.985625 C339.112531,169.453368 338.714954,169.897718 338.387534,170.318688 C338.060113,170.739657 337.709311,171.184007 337.335116,171.651751 L335.230279,174.458199 L334.528667,175.861424 C334.34157,176.235619 334.154475,176.516261 333.967377,176.703358 L333.406088,177.825938 L332.143186,179.088839 L331.862541,179.229162 L331.020606,179.509807 C330.927058,179.509807 330.482708,179.533193 329.687543,179.579968 C328.892379,179.626742 328.120613,179.182392 327.372223,178.246905 C326.90448,177.404966 326.717385,176.820295 326.810934,176.492874 C326.904482,176.165454 326.904482,175.908199 326.810934,175.721101 C326.904482,175.534004 326.951256,175.346909 326.951256,175.159811 C327.044805,175.066263 327.091578,174.972715 327.091578,174.879167 L327.231901,174.738844 C327.231901,174.645295 327.278675,174.551748 327.372223,174.458199 C327.372223,174.364651 327.39561,174.317877 327.442384,174.317877 C327.489159,174.317877 327.512546,174.271103 327.512546,174.177554 L327.793191,173.616265 L328.91577,172.072718 L329.056092,171.932396 C329.430287,171.371103 329.757703,170.622724 330.038349,169.687237 C330.506093,168.6582 330.950443,167.605793 331.371412,166.529982 C331.792382,165.454171 332.236732,164.35499 332.704476,163.232405 C332.985122,162.764661 333.242377,162.250151 333.476249,161.688858 C333.710121,161.127566 333.920602,160.566282 334.1077,160.004989 L335.370602,156.777573 L336.493181,153.409835 L337.756083,150.042097 C338.223827,149.013061 338.621403,147.937266 338.948824,146.814681 C339.121732,146.221853 339.314205,145.62903 339.526245,145.036207 L337.756083,146.534036 C337.475437,146.814682 337.171408,147.071938 336.843987,147.30581 C336.516566,147.539681 336.165764,147.750163 335.791569,147.93726 L333.54641,149.200162 C332.985118,149.574357 332.143191,149.901773 331.020606,150.182419 C330.552863,150.275968 330.061739,150.346129 329.547221,150.392903 C329.032703,150.439677 328.494805,150.463064 327.933513,150.463064 C326.810928,150.275967 325.781907,149.995325 324.84642,149.62113 C323.910932,149.340483 323.162553,148.966294 322.601261,148.49855 C322.414163,148.685648 322.320616,148.872742 322.320616,149.05984 C321.104482,151.679205 319.841593,154.017889 318.53191,156.075961 C317.128679,158.321131 315.538374,160.47272 313.760948,162.530793 L312.287562,164.004178 C311.773044,164.518697 311.188373,165.00982 310.533532,165.477564 C309.972239,165.945308 309.364182,166.366271 308.70934,166.740466 C308.054499,167.114661 307.352894,167.442076 306.604504,167.722723 C305.762565,168.096918 304.967413,168.330786 304.219023,168.424335 C303.938376,168.517884 303.517413,168.564657 302.956121,168.564657 L301.693219,168.564657 C300.664183,168.564657 299.775483,168.377563 299.027093,168.003368 C298.559349,167.81627 298.114999,167.629175 297.69403,167.442078 C297.27306,167.25498 296.875484,166.974338 296.501289,166.600143 L295.448871,165.547725 C295.12145,165.220304 294.864195,164.822728 294.677098,164.354984 L293.554518,162.109826 C293.367421,161.361436 293.2271,160.613057 293.133551,159.864667 L292.852906,157.619508 L292.852906,155.514672 C292.852906,154.85983 292.89968,154.158225 292.993229,153.409835 C293.086777,152.661445 293.180325,151.983227 293.273873,151.37516 C293.367422,150.767093 293.507743,150.135648 293.694841,149.480807 C293.881938,148.171125 294.139193,146.884849 294.466614,145.62194 C294.563839,145.246929 294.663126,144.869858 294.764475,144.490725 L277.698084,167.442078 C277.23034,168.00337 276.645669,168.354173 275.944054,168.494496 C275.242438,168.634819 274.610993,168.471111 274.049701,168.003368 C273.114213,167.161429 272.786798,166.225955 273.067444,165.196919 L274.610991,156.917896 L276.014215,148.779195 C276.481959,146.066281 276.973082,143.330021 277.4876,140.570333 C278.002118,137.810645 278.493242,135.074385 278.960986,132.361471 L279.80292,125.485672 L276.575505,130.256635 L267.735192,144.288877 L259.035201,158.742087 L250.475533,173.054975 L241.775543,187.508185 C241.494896,188.163026 241.050546,188.607376 240.442479,188.841248 C239.834413,189.07512 239.249742,189.051733 238.688449,188.771087 C237.378767,188.116246 236.91103,187.227546 237.285225,186.104961 L237.285225,185.683993 L240.372318,171.932396 C241.401355,167.348507 242.477149,162.764687 243.599734,158.180798 C244.62877,153.596909 245.727952,149.036475 246.897311,144.499361 C248.066671,139.962246 249.259399,135.401813 250.475533,130.817924 C251.223923,127.730815 252.019076,124.643753 252.861014,121.556644 C253.702953,118.469535 254.544879,115.429246 255.386818,112.435686 L255.106173,112.716331 C253.702942,114.774404 252.252958,116.645351 250.756178,118.329228 L248.511019,121.135677 C248.136824,121.603421 247.786021,122.04777 247.458601,122.46874 C247.363146,122.591467 247.261729,122.716182 247.154348,122.842884 C247.139487,122.881593 247.123969,122.920588 247.107795,122.959868 L247.107795,123.100191 L245.002958,127.169541 L242.898122,131.379214 L238.688449,139.517915 C237.285218,142.230829 235.858621,144.943702 234.408615,147.656616 C232.958609,150.369529 231.485239,153.082403 229.988459,155.795316 L225.498141,163.934017 L220.727178,171.792073 L215.675571,179.650129 C215.425431,180.000325 215.176965,180.348846 214.930171,180.695696 L226.62072,180.772708 C228.491695,180.772708 230.058614,181.404153 231.321522,182.667061 C232.58443,183.929969 233.215874,185.496888 233.215874,187.367863 C233.215874,189.238838 232.561043,190.805756 231.25136,192.068664 C229.941678,193.331572 228.351373,193.963017 226.480398,193.963017 L226.340075,193.963017 L204.242528,193.211989 C203.838967,193.533622 203.440309,193.830738 203.046553,194.103339 C202.111065,194.664632 201.269139,195.132368 200.520749,195.506563 L198.977202,195.927531 C198.790105,195.927531 198.626397,195.950917 198.486074,195.997692 C198.345751,196.044466 198.182043,196.067853 197.994945,196.067853 L197.503817,196.067853 C197.269945,196.067853 197.059463,196.021079 196.872366,195.927531 C196.685268,195.927531 196.474787,195.880757 196.240915,195.787208 C196.007043,195.693659 195.796561,195.600112 195.609464,195.506563 L194.627207,194.664629 C193.972366,194.103336 193.598176,193.588826 193.504627,193.121082 C193.442497,193.027886 193.388103,192.93469 193.341447,192.841495 L118.993418,190.314634 L118.151484,198.313012 L110.714395,262.019394 C110.527298,263.516174 109.685372,264.171005 108.188592,263.983908 C106.78536,263.79681 106.083755,262.954884 106.083755,261.458104 L111.416007,197.751722 C111.509556,196.44204 111.579717,195.17915 111.626491,193.963017 C111.673265,192.746883 111.7902,191.483994 111.977297,190.174311 L44.9031768,187.929152 L42.2370507,192.98076 C41.9564044,193.542052 41.5120545,193.892855 40.9039876,194.033178 C40.2959207,194.173501 39.7112498,194.103341 39.1499573,193.822694 C38.5886647,193.542048 38.2144753,193.097698 38.0273778,192.489631 C37.8402803,191.881564 37.887054,191.296893 38.1677003,190.735601 L39.5709245,187.78883 L3.64838311,186.66625 C2.61934683,186.572702 1.75403385,186.175125 1.05241821,185.47351 C0.350802561,184.771894 0,183.906581 0,182.877545 C0,181.848509 0.350802561,181.006582 1.05241821,180.351741 C1.75403385,179.6969 2.61934683,179.369484 3.64838311,179.369484 L43.7805974,179.650129 C46.6806087,173.756558 49.5805765,167.909848 52.4805879,162.109826 C55.3805992,156.309803 58.280567,150.463094 61.1805784,144.569522 C65.0160772,136.804976 68.7813581,129.063933 72.4765338,121.34616 C76.1717095,113.628388 79.8902167,105.887345 83.6321668,98.1227987 C87.2805681,90.2647035 90.9289148,82.4768866 94.5773161,74.7591145 C98.2257175,67.0413424 101.82729,59.2067519 105.382143,51.2551079 C107.159569,47.3260603 108.913582,43.4204585 110.644234,39.5381853 C112.374886,35.655912 114.082125,31.7503102 115.766003,27.8212626 C117.543429,23.8922149 119.274055,19.9398394 120.957932,15.9640174 C122.64181,11.9881954 124.278889,8.03581993 125.869217,4.10677232 L126.00954,3.82612746 C126.75793,2.23579867 127.997432,1.11323047 129.728084,0.458389204 C131.458736,-0.196452065 133.119202,-0.14967839 134.70953,0.598711632 C136.019213,1.2535529 137.048234,2.1890264 137.796624,3.40516018 C138.545014,4.62129397 138.825656,5.88418318 138.638558,7.19386572 C138.170815,12.5261446 137.679691,17.8583435 137.165173,23.1906225 C136.650655,28.5229014 136.112757,33.8551003 135.551465,39.1873792 L132.324049,71.0405702 C131.201464,81.705128 130.055509,92.3227522 128.88615,102.893761 C127.71679,113.46477 126.524062,124.082394 125.307928,134.746952 L120.115998,180.071096 L192.358821,180.547004 C192.366214,180.481567 192.373956,180.416479 192.382048,180.351741 L192.803015,175.721101 C192.990113,174.972711 193.107047,174.177559 193.153821,173.33562 C193.200596,172.493681 193.270756,171.698529 193.364305,170.950139 L194.767529,161.829181 L195.609464,157.198541 L196.451398,152.708223 C197.10624,149.621114 197.714297,146.557438 198.27559,143.517104 C198.836883,140.47677 199.491714,137.459868 200.240104,134.466307 C200.400188,133.785951 200.55599,133.101319 200.707513,132.412406 L198.415912,136.290499 C197.199779,138.348572 195.983663,140.383226 194.767529,142.394525 C193.551396,144.405823 192.288506,146.440478 190.978824,148.49855 L187.049796,154.532415 L184.804637,157.479186 C184.056247,158.508222 183.214321,159.490469 182.278833,160.425957 C181.904638,160.987249 181.390128,161.501759 180.735287,161.969503 L179.612707,162.811438 C179.238512,162.998535 178.95787,163.092083 178.770773,163.092083 L177.507871,163.51305 C177.040127,163.51305 176.432069,163.419503 175.683679,163.232405 C175.403033,163.138856 175.145778,163.021922 174.911906,162.881599 C174.678034,162.741276 174.467552,162.577568 174.280455,162.39047 C174.093357,162.203373 173.953036,162.039665 173.859488,161.899342 C173.765939,161.759019 173.625618,161.595311 173.43852,161.408214 L173.017553,160.706601 L172.456263,159.303377 L172.175618,158.180798 C171.988521,157.24531 171.894974,156.543705 171.894974,156.075961 C171.801425,155.795315 171.754651,155.491286 171.754651,155.163865 L171.754651,154.25177 C171.661102,153.596928 171.590942,152.965484 171.544168,152.357417 C171.497393,151.74935 171.474006,151.117905 171.474006,150.463064 C171.380458,149.24693 171.333684,148.054202 171.333684,146.884842 L171.333684,143.30662 L171.193362,136.150177 L171.053039,134.466307 L171.053039,131.098569 C170.95949,130.911472 170.912717,130.63083 170.912717,130.256635 C170.070778,131.005025 169.369173,131.70663 168.80788,132.361471 L166.282077,134.887275 C164.691748,136.477604 163.101443,138.138069 161.511114,139.868721 C159.920785,141.599373 158.33048,143.306612 156.740151,144.990489 L147.198226,155.514672 C145.607898,157.292098 144.064366,159.046111 142.567586,160.776763 C141.070806,162.507415 139.574049,164.308201 138.077269,166.179176 L135.972432,168.985625 C135.504688,169.453368 135.107112,169.897718 134.779692,170.318688 C134.452271,170.739657 134.101468,171.184007 133.727273,171.651751 L131.622437,174.458199 L130.920825,175.861424 C130.733727,176.235619 130.546633,176.516261 130.359535,176.703358 L129.798245,177.825938 L128.535344,179.088839 L128.254699,179.229162 L127.412764,179.509807 C127.319215,179.509807 126.874865,179.533193 126.079701,179.579968 C125.284537,179.626742 124.512771,179.182392 123.764381,178.246905 C123.296637,177.404966 123.109543,176.820295 123.203091,176.492874 C123.29664,176.165454 123.29664,175.908199 123.203091,175.721101 C123.29664,175.534004 123.343414,175.346909 123.343414,175.159811 C123.436962,175.066263 123.483736,174.972715 123.483736,174.879167 L123.624059,174.738844 C123.624059,174.645295 123.670832,174.551748 123.764381,174.458199 C123.764381,174.364651 123.787768,174.317877 123.834542,174.317877 C123.881317,174.317877 123.904703,174.271103 123.904703,174.177554 L124.185348,173.616265 L125.307928,172.072718 L125.44825,171.932396 C125.822445,171.371103 126.149861,170.622724 126.430507,169.687237 C126.898251,168.6582 127.342601,167.605793 127.76357,166.529982 C128.18454,165.454171 128.62889,164.35499 129.096633,163.232405 C129.37728,162.764661 129.634535,162.250151 129.868407,161.688858 C130.102278,161.127566 130.31276,160.566282 130.499858,160.004989 L131.762759,156.777573 L132.885339,153.409835 L134.148241,150.042097 C134.615984,149.013061 135.013561,147.937266 135.340981,146.814681 C135.668402,145.692096 136.065978,144.569528 136.533722,143.446943 L138.778881,136.711466 C139.527271,134.466296 140.252263,132.22116 140.953878,129.97599 C141.655494,127.73082 142.380486,125.485683 143.128876,123.240513 C143.877266,120.995343 144.578871,118.750207 145.233712,116.505037 C145.888554,114.259867 146.543385,111.967957 147.198226,109.629238 C147.66597,108.038909 148.601444,106.822793 150.004675,105.980855 C151.407906,105.138916 152.904664,104.951821 154.494993,105.419565 C156.085321,105.887309 157.301437,106.846169 158.143376,108.296175 C158.985315,109.74618 159.172409,111.266325 158.704665,112.856654 C158.704665,113.1373 158.611118,113.464716 158.424021,113.838911 C157.394984,115.990532 156.38935,118.142121 155.407088,120.293742 C154.424827,122.445364 153.465966,124.596953 152.530479,126.748574 L146.777259,139.79856 L142.848231,149.200162 C144.064365,147.609834 145.28048,145.996142 146.496614,144.359039 C147.712748,142.721935 148.975637,141.108244 150.28532,139.517915 C151.875649,137.64694 153.442567,135.79938 154.986121,133.975179 C156.529676,132.150978 158.096594,130.350192 159.686922,128.572765 C160.061117,128.105022 160.435307,127.660672 160.809502,127.239702 C161.183697,126.818733 161.60466,126.374383 162.072404,125.906639 C162.914342,124.971152 163.803042,124.082452 164.73853,123.240513 L167.685301,120.574387 L169.509492,119.311485 L170.211105,118.890518 L171.053039,118.469551 L171.193362,118.329228 L171.474006,118.329228 L171.614329,118.188906 L171.894974,118.188906 L172.175618,118.048583 L172.315941,118.048583 C172.503038,118.048583 172.690133,118.025197 172.877231,117.978422 C173.064328,117.931648 173.298197,117.908261 173.578843,117.908261 C173.76594,117.908261 173.906261,117.955035 173.99981,118.048583 C173.99981,117.955035 174.093357,117.931648 174.280455,117.978422 C174.467552,118.025197 174.514326,118.048583 174.420777,118.048583 L174.5611,118.048583 C174.654649,118.048583 174.724809,118.07197 174.771583,118.118745 C174.818358,118.165519 174.888518,118.188906 174.982067,118.188906 C175.730457,118.469552 176.432062,118.843741 177.086903,119.311485 L178.209483,120.434065 L179.19174,122.398579 L179.612707,123.801803 C179.706256,124.082449 179.75303,124.456639 179.75303,124.924382 C179.846578,125.392126 179.916739,125.789702 179.963513,126.117123 C180.010288,126.444544 180.033674,126.795346 180.033674,127.169541 C180.033674,127.450187 180.057061,127.754216 180.103836,128.081637 C180.15061,128.409058 180.173997,128.75986 180.173997,129.134055 C180.173997,131.659872 180.033676,134.092103 179.75303,136.430821 C179.659481,137.646955 179.565933,138.839684 179.472385,140.009043 C179.378836,141.178403 179.238515,142.371131 179.051417,143.587265 L178.490128,150.603387 C178.490128,151.164679 178.466741,151.725963 178.419967,152.287256 C178.373192,152.848548 178.349805,153.409832 178.349805,153.971125 C178.349805,154.251771 178.373192,154.509026 178.419967,154.742898 C178.466741,154.97677 178.490128,155.187252 178.490128,155.374349 L180.033674,153.69048 L181.998188,151.024354 C182.746578,150.088866 183.424797,149.153393 184.032864,148.217905 C184.640931,147.282418 185.272375,146.300171 185.927216,145.271134 C187.236899,143.306611 188.476401,141.318729 189.645761,139.307431 C190.81512,137.296133 192.007849,135.261478 193.223983,133.203406 L198.27559,123.942125 C198.462688,123.661479 198.603009,123.404224 198.696557,123.170352 C198.790106,122.93648 198.883653,122.679225 198.977202,122.398579 L199.819137,120.855032 C200.094633,120.359138 200.435032,119.952493 200.840337,119.635094 L201.923973,116.926004 L202.765908,114.680845 L203.607842,112.576009 L207.115903,104.156663 L208.65945,100.367958 L209.220739,98.543766 C209.407837,97.7018272 209.618318,96.8832879 209.85219,96.0881235 C210.086062,95.2929591 210.343317,94.4744198 210.623964,93.632481 L203.327197,94.4744156 C202.485259,94.6615131 201.760267,94.4978052 201.1522,93.9832871 C200.544133,93.468769 200.19333,92.7905507 200.099782,91.9486119 C199.912684,91.2002219 200.076392,90.5220036 200.59091,89.9139367 C201.105428,89.3058698 201.736873,88.9082936 202.485263,88.7211961 L212.588478,87.0373269 L214.693314,80.7228177 C215.067509,79.4131352 215.582019,77.9631513 216.236861,76.3728225 C216.423958,75.6244324 216.657827,74.8760536 216.938473,74.1276636 L217.780407,71.8825048 L219.464277,67.5325095 L221.288468,63.0421919 L222.55137,60.6567106 C222.644919,60.3760643 222.878787,59.9551013 223.252982,59.3938087 L223.673949,58.5518742 L224.375562,57.7099396 C224.46911,57.6163909 224.539271,57.5228435 224.586045,57.4292948 C224.63282,57.335746 224.749754,57.2421987 224.936851,57.1486499 C225.0304,56.8680036 225.311042,56.5873616 225.778786,56.3067153 L226.62072,55.7454256 L228.023945,55.1841359 C228.211042,55.1841359 228.351363,55.1607491 228.444912,55.1139747 C228.538461,55.0672003 228.772329,55.0438135 229.146524,55.0438135 C229.333622,54.9502647 229.473943,54.9268779 229.567491,54.9736523 C229.66104,55.0204266 229.801361,55.0438135 229.988459,55.0438135 C230.6433,55.0438135 231.204584,55.0905872 231.672328,55.1841359 L233.356197,56.0260705 L234.759421,57.2889723 L235.601356,58.5518742 L236.022323,59.5341312 L236.302968,60.9373554 L236.302968,63.1825143 C236.209419,63.3696118 236.162645,63.6970275 236.162645,64.1647713 L235.741678,65.708318 C235.554581,66.1760617 235.437646,66.6204116 235.390872,67.041381 C235.344098,67.4623504 235.227164,67.8599267 235.040066,68.2341217 C234.852968,68.7018654 234.689261,69.1228285 234.548938,69.4970235 C234.408614,69.8712185 234.244907,70.2454079 234.057809,70.6196029 L233.215874,72.8647618 C232.935228,73.6131518 232.607812,74.3615306 232.233617,75.1099206 L230.269103,79.4599159 L228.304589,83.6695887 L227.883622,84.5115233 L265.623582,78.2804527 L266.191645,76.5131449 C266.940035,74.2679748 267.711801,72.0228384 268.506965,69.7776684 C269.302129,67.5324983 270.120669,65.2873619 270.962607,63.0421919 C271.430351,61.9196068 271.874701,60.7970386 272.29567,59.6744536 C272.71664,58.5518686 273.207763,57.3825267 273.769056,56.1663929 L275.312603,52.6583322 C275.4997,52.377686 275.663408,52.0970439 275.803731,51.8163977 L276.29486,50.8341407 L276.996472,49.8518837 L277.698084,48.7293043 C277.885181,48.6357555 278.072276,48.4018871 278.259374,48.0276921 C278.446471,47.9341434 278.727113,47.700275 279.101308,47.32608 C279.569052,46.8583362 280.036789,46.5309205 280.504532,46.343823 C280.69163,46.1567255 281.112593,45.9696308 281.767434,45.7825333 C281.860983,45.6889845 281.95453,45.6422108 282.048079,45.6422108 C282.141628,45.6422108 282.235175,45.618824 282.328724,45.5720496 C282.422273,45.5252753 282.51582,45.5018884 282.609369,45.5018884 L283.030336,45.5018884 C283.217434,45.4083397 283.404528,45.361566 283.591626,45.361566 L284.293238,45.361566 C284.386787,45.361566 284.456947,45.3849528 284.503722,45.4317272 C284.550496,45.4785016 284.66743,45.5018884 284.854528,45.5018884 C284.854528,45.5954372 284.901301,45.6422108 284.99485,45.6422108 L285.55614,45.6422108 C285.462591,45.6422108 285.485978,45.6655977 285.626301,45.7123721 C285.766624,45.7591464 285.883558,45.7825333 285.977107,45.7825333 L287.520654,46.4841454 L288.783556,47.6067248 C289.064202,47.8873711 289.391618,48.3083342 289.765813,48.8696267 C289.95291,49.3373704 290.093231,49.7349467 290.18678,50.0623673 C290.280329,50.3897879 290.373876,50.6938168 290.467425,50.9744631 L290.74807,52.5180098 C290.74807,52.8922048 290.724683,53.2430074 290.677908,53.570428 C290.631134,53.8978486 290.607747,54.1551038 290.607747,54.3422013 C290.42065,55.0905914 290.327102,55.5583281 290.327102,55.7454256 L289.62549,57.9905845 C289.251295,59.2067182 288.736785,60.4696075 288.081944,61.77929 C287.894846,62.3405825 287.660978,62.9018666 287.380331,63.4631591 L286.538397,65.1470283 C285.977104,66.2696133 285.392433,67.3687947 284.784367,68.4446053 C284.1763,69.520416 283.591629,70.5728236 283.030336,71.6018599 L280.539085,75.8178226 L347.718975,64.726061 C349.309304,64.4454147 350.782675,64.7962173 352.139132,65.7784792 C353.495589,66.7607411 354.314128,68.0470171 354.594774,69.6373459 C354.87542,71.2276747 354.524618,72.7010455 353.542356,74.0575024 C352.560094,75.4139593 351.273818,76.2324986 349.683489,76.5131449 L349.402844,76.5131449 L275.458214,85.621666 C273.035805,92.6184017 270.648579,99.6853898 268.296481,106.822789 L259.596491,133.48405 L252.861014,154.392092 C254.170697,151.959825 255.456973,149.597754 256.719881,147.30581 C257.982789,145.013865 259.315839,142.651795 260.71907,140.219527 C263.338435,135.448541 266.238403,130.584078 269.419061,125.625994 C270.073902,124.409861 270.869054,123.193745 271.804542,121.977611 C272.178737,121.32277 272.576313,120.714712 272.997283,120.15342 C273.418252,119.592127 273.862602,118.98407 274.330346,118.329228 L275.593248,116.505037 L277.277117,114.680845 L278.259374,113.698588 L279.522276,112.716331 C279.709373,112.529234 279.896468,112.412299 280.083565,112.365525 C280.270663,112.318751 280.457757,112.201817 280.644855,112.014719 L281.627112,111.734074 C281.720661,111.734074 281.814208,111.710687 281.907757,111.663913 C282.001306,111.617139 282.141627,111.593752 282.328724,111.593752 L282.890014,111.593752 C283.544855,111.593752 284.059365,111.640525 284.43356,111.734074 C284.994853,111.921172 285.415816,112.15504 285.696462,112.435686 C286.070657,112.622784 286.444847,112.856652 286.819042,113.137298 C287.006139,113.324396 287.193234,113.605038 287.380331,113.979233 C287.660978,114.259879 287.801299,114.493748 287.801299,114.680845 L288.081944,115.242135 L288.502911,116.364714 L288.783556,117.908261 C288.877104,118.376005 288.923878,118.820355 288.923878,119.241324 L288.923878,120.574387 C288.923878,121.042131 288.900491,121.439707 288.853717,121.767128 C288.806943,122.094548 288.783556,122.492125 288.783556,122.959868 C288.783556,123.521161 288.690008,124.26954 288.502911,125.205027 C288.222265,128.105039 287.801302,130.958233 287.240009,133.764695 L285.415817,142.184041 C285.041622,143.493723 284.69082,144.85016 284.363399,146.253391 C284.035979,147.656623 283.638402,149.013059 283.170659,150.322742 L282.749691,151.725966 L302.231547,125.671918 L302.254509,125.625994 L303.236766,123.801803 C303.610961,123.24051 303.938376,122.679226 304.219023,122.117934 C304.499669,121.556641 304.873858,120.995357 305.341602,120.434065 C305.715797,119.779223 306.089987,119.171166 306.464182,118.609873 C306.838377,118.048581 307.25934,117.487297 307.727083,116.926004 L308.989985,115.242135 L310.673854,113.698588 L312.498046,112.014719 C313.059338,111.640524 313.854491,111.126014 314.883527,110.471172 C315.912564,109.90988 316.988358,109.582464 318.110943,109.488915 C318.578687,109.395367 319.280292,109.348593 320.215779,109.348593 C320.683523,109.348593 321.057713,109.395367 321.338359,109.488915 L321.899649,109.488915 L322.039971,109.629238 L322.320616,109.629238 C323.910945,109.909884 325.150447,110.705036 326.03916,112.014719 C326.927873,113.324402 327.231902,114.774385 326.951256,116.364714 C326.951256,116.458263 326.927869,116.505037 326.881095,116.505037 C326.83432,116.505037 326.810934,116.55181 326.810934,116.645359 L327.652868,117.908261 C328.027063,118.843749 328.307705,119.779222 328.494803,120.71471 C328.588351,121.182453 328.658512,121.626803 328.705286,122.047773 C328.752061,122.468742 328.775448,122.913092 328.775448,123.380836 C328.868996,123.848579 328.91577,124.246156 328.91577,124.573576 L328.91577,125.766317 L328.494803,130.116312 L327.652868,134.185663 C327.465771,134.840504 327.278676,135.471948 327.091578,136.080015 C326.904481,136.688082 326.717386,137.319527 326.530289,137.974368 C326.343191,138.535661 326.179483,139.096945 326.03916,139.658237 C325.898837,140.21953 325.735129,140.73404 325.548032,141.201784 L325.968999,141.903396 L326.810934,142.885653 C327.185129,143.259848 327.465771,143.493716 327.652868,143.587265 C328.027063,143.774363 328.307705,143.86791 328.494803,143.86791 C328.868998,144.055008 329.289961,144.055008 329.757705,143.86791 C329.944802,143.86791 330.412539,143.774363 331.160929,143.587265 L332.704476,142.885653 C332.985122,142.605007 333.499632,142.277591 334.248022,141.903396 L335.651246,140.640494 C337.61577,138.956617 339.439944,136.992122 341.123821,134.746952 C341.872211,133.717916 342.62059,132.642121 343.36898,131.519536 C343.825245,130.835138 344.281507,130.133361 344.737769,129.414197 C345.384439,127.356296 346.05075,125.298419 346.736718,123.240513 C347.485108,120.995343 348.186713,118.750207 348.841555,116.505037 C349.496396,114.259867 350.151227,111.967957 350.806069,109.629238 C351.273812,108.038909 352.209286,106.822793 353.612517,105.980855 C355.015748,105.138916 356.512506,104.951821 358.102835,105.419565 C359.693164,105.887309 360.909279,106.846169 361.751218,108.296175 C362.593157,109.74618 362.780251,111.266325 362.312508,112.856654 C362.312508,113.1373 362.21896,113.464716 362.031863,113.838911 C361.002827,115.990532 359.997193,118.142121 359.014931,120.293742 C358.032669,122.445364 357.073808,124.596953 356.138321,126.748574 L350.385101,139.79856 L346.456073,149.200162 C347.672207,147.609834 348.888323,145.996142 350.104457,144.359039 C351.32059,142.721935 352.58348,141.108244 353.893162,139.517915 C355.483491,137.64694 357.050409,135.79938 358.593963,133.975179 C360.137518,132.150978 361.704436,130.350192 363.294765,128.572765 C363.66896,128.105022 364.043149,127.660672 364.417344,127.239702 C364.791539,126.818733 365.212502,126.374383 365.680246,125.906639 C366.522185,124.971152 367.410885,124.082452 368.346372,123.240513 L371.293143,120.574387 L373.117335,119.311485 L373.818947,118.890518 L374.660881,118.469551 L374.801204,118.329228 L375.081849,118.329228 L375.222171,118.188906 L375.502816,118.188906 L375.783461,118.048583 L375.923783,118.048583 C376.110881,118.048583 376.297975,118.025197 376.485073,117.978422 C376.67217,117.931648 376.906039,117.908261 377.186685,117.908261 C377.373783,117.908261 377.514104,117.955035 377.607652,118.048583 C377.607652,117.955035 377.7012,117.931648 377.888297,117.978422 C378.075395,118.025197 378.122168,118.048583 378.02862,118.048583 L378.168942,118.048583 C378.262491,118.048583 378.332651,118.07197 378.379426,118.118745 C378.4262,118.165519 378.496361,118.188906 378.589909,118.188906 C379.338299,118.469552 380.039904,118.843741 380.694746,119.311485 L381.817325,120.434065 L382.799582,122.398579 L383.220549,123.801803 C383.314098,124.082449 383.360872,124.456639 383.360872,124.924382 C383.454421,125.392126 383.524581,125.789702 383.571355,126.117123 C383.61813,126.444544 383.641517,126.795346 383.641517,127.169541 C383.641517,127.450187 383.664904,127.754216 383.711678,128.081637 C383.758452,128.409058 383.781839,128.75986 383.781839,129.134055 C383.781839,131.659872 383.641518,134.092103 383.360872,136.430821 C383.267323,137.646955 383.173776,138.839684 383.080227,140.009043 C382.986678,141.178403 382.846357,142.371131 382.65926,143.587265 L382.09797,150.603387 C382.09797,151.164679 382.074583,151.725963 382.027809,152.287256 C381.981034,152.848548 381.957648,153.409832 381.957648,153.971125 C381.957648,154.251771 381.981034,154.509026 382.027809,154.742898 C382.074583,154.97677 382.09797,155.187252 382.09797,155.374349 L383.641517,153.69048 L385.606031,151.024354 C386.354421,150.088866 387.032639,149.153393 387.640706,148.217905 C388.248773,147.282418 388.880217,146.300171 389.535059,145.271134 C390.844741,143.306611 392.084244,141.318729 393.253603,139.307431 C394.422962,137.296133 395.615691,135.261478 396.831825,133.203406 L400.293111,126.857714 Z M241.700033,122.648389 C241.616577,122.142307 241.735296,121.591296 242.056187,120.995354 L248.791664,108.646981 L255.807785,96.2986072 L260.867094,87.4190044 L224.094917,91.9486119 C223.627173,92.9776482 223.112662,93.9365085 222.55137,94.8252217 C221.990077,95.7139348 221.475567,96.6260215 221.007823,97.561509 C220.727177,98.309899 220.469922,99.0115041 220.23605,99.6663454 C220.002178,100.321187 219.791696,101.022792 219.604599,101.771182 C218.575563,104.671193 217.593316,107.547774 216.657828,110.401011 C215.72234,113.254248 214.786867,116.177603 213.851379,119.171163 C212.822343,122.071174 211.863483,124.971142 210.97477,127.871153 C210.086057,130.771165 209.220744,133.671133 208.378805,136.571144 C207.911061,138.067924 207.466711,139.541295 207.045742,140.9913 C206.624772,142.441306 206.180422,143.914677 205.712679,145.411457 L203.327197,154.25177 L202.204618,158.601765 C202.01752,159.350155 201.853813,160.098534 201.713489,160.846924 C201.573166,161.595314 201.409458,162.343693 201.222361,163.092083 C200.848166,164.588863 200.497363,166.062233 200.169943,167.512239 C199.842522,168.962245 199.538493,170.435616 199.257847,171.932396 C198.977201,173.429176 198.719946,174.925933 198.486074,176.422713 C198.269366,177.809644 198.072741,179.196555 197.896194,180.583482 L209.369473,180.659064 C210.244633,179.513049 211.130536,178.334806 212.027188,177.124325 C212.869127,175.908192 213.711053,174.668689 214.552992,173.405781 C215.39493,172.142873 216.236857,170.856597 217.078795,169.546914 L221.709435,161.688858 L224.094917,157.75983 L226.199753,153.830802 L234.759421,137.553401 L238.688449,129.274378 L240.652963,125.064705 L241.700033,122.648389 Z M116.467615,133.905018 C117.216005,123.146911 117.98777,112.5059 118.782935,101.981665 C119.578099,91.4574308 120.349865,80.8164198 121.098255,70.0583132 L123.203091,40.5906035 L115.345035,56.1663929 C111.415988,63.8373906 107.486999,71.4848864 103.557951,79.1091098 C99.6289039,86.7333331 95.6531415,94.380829 91.6305451,102.051827 C87.6079488,109.722824 83.5854127,117.346933 79.5628164,124.924382 C75.54022,132.501831 71.4241366,140.079167 67.2144428,147.656616 C64.2208827,153.082443 61.297528,158.438029 58.444291,163.723534 C55.5910541,169.009038 52.6676994,174.31785 49.6741393,179.650129 L112.819232,180.071096 C113.380524,172.400099 113.965195,164.729216 114.573262,157.058218 C115.181329,149.387221 115.812774,141.669564 116.467615,133.905018 Z M314.743205,123.240513 C314.275461,123.614708 313.877885,123.988898 313.550464,124.363093 C313.223044,124.737288 312.825467,125.158251 312.357724,125.625994 L310.252887,128.292121 C310.06579,128.572767 309.902082,128.830022 309.761759,129.063894 C309.621435,129.297766 309.457728,129.508247 309.27063,129.695345 L308.288373,131.238892 C307.633532,132.267928 307.002087,133.296949 306.39402,134.325985 C305.785953,135.355021 305.248056,136.384042 304.780312,137.413078 C303.751276,139.377602 302.769029,141.575965 301.833541,144.008232 L300.710962,147.375971 C300.523865,147.937263 300.360157,148.498547 300.219834,149.05984 C300.07951,149.621132 299.962576,150.182416 299.869027,150.743709 C299.68193,151.305002 299.541609,151.866286 299.44806,152.427578 L299.167415,154.111447 C299.073867,154.67274 299.027093,155.234024 299.027093,155.795316 L299.027093,157.338863 C299.027093,157.900156 299.05048,158.414666 299.097254,158.88241 C299.144029,159.350154 299.214189,159.81789 299.307738,160.285634 C299.494835,160.846927 299.68193,161.221116 299.869027,161.408214 L300.289995,162.109826 C300.66419,162.296923 300.898058,162.39047 300.991607,162.39047 L301.973864,162.671115 L302.675476,162.671115 C302.769025,162.671115 302.839185,162.647729 302.88596,162.600954 C302.932734,162.55418 303.049668,162.530793 303.236766,162.530793 C303.423863,162.530793 303.798053,162.437246 304.359345,162.250148 C305.201284,161.875953 305.996436,161.361443 306.744826,160.706601 L309.130308,158.461443 C310.43999,156.871114 311.702879,154.953393 312.919013,152.708223 C313.94805,150.65015 314.883523,148.498561 315.725462,146.253391 C316.006108,145.505001 316.310137,144.686462 316.637558,143.797749 C316.964978,142.909036 317.222233,141.996949 317.409331,141.061462 L316.848041,138.816303 C316.660944,138.067913 316.473849,137.27276 316.286751,136.430821 C316.099654,135.682431 315.959333,134.910666 315.865784,134.115501 C315.772235,133.320337 315.631914,132.548571 315.444817,131.800181 C315.444817,131.332438 315.42143,130.911474 315.374656,130.537279 C315.327881,130.163084 315.304495,129.788895 315.304495,129.4147 L315.304495,128.221959 C315.304495,127.894539 315.257721,127.496963 315.164172,127.029219 L315.164172,124.643738 C315.257721,124.363091 315.304495,124.035676 315.304495,123.661481 L315.304495,122.538901 L314.743205,123.240513 Z M548.660691,58.4115517 C549.970374,57.7567105 551.303424,57.1486527 552.659881,56.5873602 C554.016337,56.0260677 555.396161,55.4647836 556.799392,54.9034911 L564.938093,51.5357528 L581.496139,45.2212436 C584.209053,44.1922073 586.9687,43.1865733 589.775163,42.2043114 C592.581625,41.2220495 595.341272,40.2631891 598.054186,39.3277016 C600.860648,38.2986653 603.667069,37.339805 606.473531,36.4510918 C609.279994,35.5623787 612.086415,34.650292 614.892877,33.7148045 L618.120293,32.7325475 L624.154157,11.6841834 C624.621901,9.9067571 625.674309,8.57370737 627.311412,7.68499422 C628.948515,6.79628107 630.655754,6.58579953 632.433181,7.05354329 C634.210607,7.52128706 635.543657,8.57369474 636.43237,10.2107979 C637.321083,11.8479011 637.531564,13.5551402 637.063821,15.3325665 C636.970272,15.4261153 636.923498,15.5196626 636.923498,15.6132114 L632.573503,28.5228747 C635.286417,27.7744847 638.022677,27.0261059 640.782365,26.2777159 C643.542053,25.5293258 646.325087,24.8277207 649.131549,24.1728794 C650.628329,23.7986844 652.1017,23.4478819 653.551706,23.1204612 C655.001712,22.7930406 656.475082,22.4890117 657.971862,22.2083655 C660.778325,21.5535242 663.725066,20.9922401 666.812175,20.5244963 C668.308955,20.2438501 669.782326,19.9865949 671.232332,19.752723 C672.682337,19.5188511 674.202482,19.3083696 675.792811,19.1212721 C678.692822,18.747077 681.733111,18.466435 684.913768,18.2793375 C686.504097,18.09224 688.094402,17.9986926 689.684731,17.9986926 C691.27506,17.9986926 692.912138,18.0454663 694.596016,18.1390151 C695.344406,18.2325638 696.139558,18.3261112 696.981497,18.4196599 C697.823436,18.5132087 698.712136,18.6535297 699.647623,18.8406272 C700.489562,19.0277247 701.354875,19.2148194 702.243588,19.4019169 C703.132301,19.5890144 704.091162,19.8696565 705.120198,20.2438515 L707.926647,21.6470758 C708.862134,22.2083683 709.844381,22.9099734 710.873418,23.7519122 C711.715356,24.5003022 712.604056,25.4825494 713.539544,26.6986831 C714.287934,28.0083657 714.849218,29.3180286 715.223413,30.6277111 C715.504059,31.9373936 715.64438,33.2002829 715.64438,34.4164166 L715.64438,35.9599634 C715.550831,36.2406096 715.504058,36.7083464 715.504058,37.3631876 C715.31696,38.2986752 715.129865,39.187375 714.942768,40.0293137 L714.381478,42.5551174 C713.913734,44.3325437 713.329064,45.9696224 712.627448,47.4664024 C711.925832,48.9631824 711.20084,50.45994 710.45245,51.9567201 C709.70406,53.3599514 708.885521,54.7163879 707.996808,56.0260705 C707.108095,57.335753 706.196008,58.6454159 705.26052,59.9550984 C703.389545,62.4809148 701.401664,64.8663722 699.296817,67.1115422 C697.19197,69.3567123 695.063768,71.555075 692.912147,73.7066963 C690.760525,75.8583177 688.538776,77.8929725 686.246831,79.8107219 C683.954887,81.7284714 681.63959,83.6228052 679.300871,85.4937802 C676.962153,87.3647553 674.646856,89.1889286 672.354911,90.9663549 C670.062967,92.7437812 667.700896,94.5211809 665.268629,96.2986072 C664.894434,96.4857047 664.567018,96.719573 664.286372,97.0002193 C664.005725,97.2808656 663.725083,97.5147339 663.444437,97.7018314 C664.286376,97.5147339 665.151689,97.3744129 666.040402,97.2808642 C666.929115,97.1873154 667.841202,97.093768 668.776689,97.0002193 C670.554116,96.8131218 672.284742,96.7663481 673.968619,96.8598969 C675.652497,96.9534456 677.383123,97.0937666 679.160549,97.2808642 C682.621853,97.8421567 686.036331,98.8244038 689.404086,100.227635 C692.86539,101.630866 695.999226,103.548587 698.805689,105.980855 C701.7057,108.60022 704.044384,111.546961 705.82181,114.821168 C706.757298,116.505045 707.505676,118.235671 708.066969,120.013097 C708.628261,121.790524 709.049225,123.614697 709.329871,125.485672 C709.891163,129.134073 709.891163,132.735646 709.329871,136.290499 C709.142773,138.067925 708.815358,139.798551 708.347614,141.482429 C707.87987,143.166306 707.36536,144.803385 706.804067,146.393714 C706.149226,147.984043 705.447621,149.527574 704.699231,151.024354 C703.950841,152.521134 703.155688,154.017892 702.313749,155.514672 C701.471811,156.917903 700.606498,158.297726 699.717785,159.654183 C698.829071,161.01064 697.870211,162.34369 696.841175,163.653372 C695.812138,164.963055 694.759731,166.225944 693.68392,167.442078 C692.608109,168.658212 691.508928,169.827554 690.386343,170.950139 C688.141173,173.288857 685.825876,175.510607 683.440383,177.615454 C681.05489,179.720301 678.599272,181.754956 676.073456,183.719479 C671.021823,187.554978 665.829945,191.063004 660.497666,194.243662 C657.784752,195.927539 655.071879,197.517844 652.358965,199.014624 C649.646051,200.511404 646.886405,201.961388 644.079942,203.364619 L639.870269,205.469456 C639.121879,205.750102 638.420274,206.054131 637.765433,206.381552 L635.660596,207.43397 L627.100928,211.222675 C621.488003,213.654943 615.734841,215.900079 609.84127,217.958152 C606.941258,219.080737 604.041291,220.133144 601.141279,221.115406 C598.241268,222.097668 595.294526,223.056529 592.300966,223.992016 C589.307406,224.927504 586.337278,225.83959 583.390492,226.728303 C580.443706,227.617017 577.473578,228.435556 574.480018,229.183946 C568.586447,230.774275 562.64619,232.294419 556.65907,233.744425 C550.67195,235.194431 544.638146,236.574254 538.557477,237.883936 C537.715538,238.071034 536.943772,237.930713 536.242157,237.462969 C535.540541,236.995225 535.096191,236.340394 534.909093,235.498455 C534.721996,234.656516 534.862317,233.861364 535.330061,233.112974 C535.797805,232.364584 536.452636,231.896847 537.294575,231.70975 C549.081718,229.183933 560.915457,226.237192 572.796149,222.869437 C575.69616,222.027498 578.596128,221.162185 581.496139,220.273472 C584.396151,219.384759 587.296119,218.472672 590.19613,217.537184 C593.096141,216.508148 595.972722,215.479127 598.825959,214.450091 C601.679196,213.421055 604.509003,212.392034 607.315466,211.362998 C613.02194,209.117828 618.611394,206.755757 624.083996,204.276715 C629.556598,201.797673 634.958958,199.108187 640.291237,196.208176 L648.149292,191.717858 C649.458975,190.969468 650.745251,190.197702 652.008159,189.402538 C653.271067,188.607373 654.51057,187.788834 655.726704,186.946895 C660.871885,183.57914 665.689573,180.024341 670.179914,176.282391 C674.857351,172.353343 679.066982,168.23726 682.808932,163.934017 C684.679907,161.782396 686.457307,159.537259 688.141184,157.198541 C689.825062,154.859822 691.321819,152.474364 692.631502,150.042097 C694.034733,147.516281 695.157301,144.990502 695.99924,142.464686 C696.466984,141.155003 696.841173,139.868727 697.12182,138.605819 C697.402466,137.342911 697.636334,136.056635 697.823432,134.746952 C698.104078,132.034038 698.057304,129.555034 697.683109,127.309864 C697.215366,124.877596 696.420213,122.63246 695.297628,120.574387 C694.268592,118.609863 692.818608,116.78569 690.947633,115.101812 C689.076658,113.605032 686.971842,112.342143 684.633124,111.313107 C682.481502,110.377619 680.049271,109.676014 677.336357,109.20827 C676.026675,108.927624 674.693625,108.74053 673.337168,108.646981 C671.980711,108.553432 670.647662,108.506658 669.337979,108.506658 C663.818603,108.693756 658.252535,109.535682 652.63961,111.032462 C649.739599,111.780852 646.979952,112.622778 644.360587,113.558266 C642.957356,114.02601 641.577532,114.54052 640.221075,115.101812 C638.864618,115.663105 637.484795,116.224389 636.081564,116.785682 L635.800919,116.926004 C635.052529,117.393748 634.257376,117.487295 633.415438,117.206649 C632.573499,116.926003 631.965441,116.411492 631.591246,115.663102 C631.123502,114.914712 631.029955,114.142946 631.310601,113.347782 C631.591247,112.552618 632.105758,111.921173 632.854148,111.453429 C635.379964,109.488906 638.046064,107.664732 640.852526,105.980855 L644.921877,103.735696 C645.38962,103.45505 645.810583,103.174408 646.184778,102.893761 C646.558973,102.613115 646.979937,102.285699 647.44768,101.911504 L654.463802,96.7195744 L661.199278,91.2469998 C663.444448,89.3760247 665.642811,87.4816909 667.794432,85.5639415 C669.946054,83.646192 672.050869,81.6583109 674.108942,79.6002383 C676.167014,77.5421657 678.178282,75.4607372 680.142806,73.3558903 C682.10733,71.2510433 684.02505,69.1228411 685.896025,66.9712198 C686.831513,65.9421835 687.720213,64.866389 688.562152,63.743804 L693.613759,57.0083275 C693.987954,56.447035 694.338757,55.862364 694.666177,55.2542971 C694.993598,54.6462302 695.391174,54.0615593 695.858918,53.5002668 C696.607308,52.284133 697.285526,51.1147911 697.893593,49.9922061 C698.50166,48.8696211 699.086331,47.7002792 699.647623,46.4841454 C700.115367,45.2680116 700.559717,44.0752829 700.980686,42.9059235 C701.401656,41.7365641 701.752458,40.5438354 702.033105,39.3277016 C702.220202,38.7664091 702.337136,38.205125 702.383911,37.6438325 C702.430685,37.08254 702.500846,36.5212559 702.594394,35.9599634 L702.594394,34.5567391 C702.594394,34.2760928 702.547621,34.0889981 702.454072,33.9954494 L702.454072,33.8551269 L702.173427,33.5744821 L701.471815,33.223676 C701.191169,33.0833529 700.816979,32.919645 700.349235,32.7325475 L697.262142,31.890613 L693.613759,31.4696457 C691.087943,31.3760969 688.421843,31.3760969 685.615381,31.4696457 C684.305698,31.5631944 682.949261,31.6567418 681.54603,31.7502905 C680.142799,31.8438393 678.739589,31.9841603 677.336357,32.1712578 L668.917012,33.4341597 C667.51378,33.6212572 666.11057,33.8317387 664.707339,34.0656106 C663.304108,34.2994825 661.900897,34.5567377 660.497666,34.8373839 C659.094435,35.1180302 657.667838,35.3986722 656.217832,35.6793185 C654.767826,35.9599648 653.341229,36.2873805 651.937998,36.6615755 C646.325073,37.7841605 640.712232,39.0470497 635.099307,40.450281 L627.80254,42.2744726 L577.707434,189.893666 C577.23969,191.1098 576.35099,191.577537 575.041308,191.296891 C573.825174,190.829147 573.404211,189.987221 573.778406,188.771087 L614.47191,45.7825333 C609.420277,47.1857646 604.415494,48.5889748 599.45741,49.9922061 C594.499326,51.3954374 589.494543,52.8454213 584.44291,54.3422013 C581.636448,55.0905914 578.830027,55.8857438 576.023565,56.7276826 L550.765528,64.3050937 C549.923589,64.58574 549.128437,64.5155794 548.380047,64.0946101 C547.631656,63.6736407 547.117146,63.0421961 546.8365,62.2002573 C546.649402,61.4518673 546.719563,60.7268753 547.046983,60.0252597 C547.374404,59.323644 547.912301,58.7857468 548.660691,58.4115517 Z M789.874944,122.117934 L790.015267,122.117934 C790.108815,122.117934 790.155589,122.07116 790.155589,121.977611 C790.249138,121.977611 790.295911,121.930838 790.295911,121.837289 L790.015267,121.837289 L789.173332,122.258256 L788.191075,122.819546 L786.226561,124.363093 L784.40237,126.327607 C783.747528,127.075997 783.116084,127.800989 782.508017,128.502604 C781.89995,129.20422 781.315279,129.929212 780.753986,130.677602 L777.526571,135.448564 C776.497534,137.132442 775.515287,138.839681 774.5798,140.570333 C773.644312,142.300985 772.755612,144.054998 771.913673,145.832424 C771.44593,146.674363 771.024967,147.539676 770.650772,148.428389 C770.276577,149.317102 769.902387,150.229189 769.528192,151.164676 C769.153997,152.100164 768.826581,153.01225 768.545935,153.900964 C768.265289,154.789677 767.984647,155.701763 767.704001,156.637251 L767.002389,159.4437 L766.581421,162.109826 L766.581421,164.495307 L766.862066,165.056597 L767.142711,165.056597 L768.124968,164.635629 L769.107225,164.07434 L770.089482,163.232405 C770.744323,162.85821 771.399155,162.250152 772.053996,161.408214 C772.428191,161.034018 772.755607,160.683216 773.036253,160.355795 C773.316899,160.028375 773.597541,159.677572 773.878187,159.303377 L777.245926,154.532415 C778.181413,153.035635 779.16366,151.351782 780.192697,149.480807 L783.139468,144.288877 C783.607211,143.446939 784.051561,142.581626 784.472531,141.692912 C784.8935,140.804199 785.33785,139.938886 785.805594,139.096948 C787.115276,136.196936 788.424939,133.320355 789.734622,130.467118 C791.044304,127.613881 792.353967,124.690527 793.66365,121.696967 C793.289455,121.884064 792.938652,122.024385 792.611232,122.117934 C792.283811,122.211483 791.886235,122.258256 791.418491,122.258256 C790.950747,122.351805 790.436237,122.305031 789.874944,122.117934 Z M843.758756,122.117934 L843.899079,122.117934 C843.992628,122.117934 844.039401,122.07116 844.039401,121.977611 C844.13295,121.977611 844.179724,121.930838 844.179724,121.837289 L843.899079,121.837289 L843.057144,122.258256 L842.074887,122.819546 L840.110373,124.363093 L838.286182,126.327607 C837.63134,127.075997 836.999896,127.800989 836.391829,128.502604 C835.783762,129.20422 835.199091,129.929212 834.637799,130.677602 L831.410383,135.448564 C830.381346,137.132442 829.399099,138.839681 828.463612,140.570333 C827.528124,142.300985 826.639424,144.054998 825.797486,145.832424 C825.329742,146.674363 824.908779,147.539676 824.534584,148.428389 C824.160389,149.317102 823.786199,150.229189 823.412004,151.164676 C823.037809,152.100164 822.710394,153.01225 822.429747,153.900964 C822.149101,154.789677 821.868459,155.701763 821.587813,156.637251 L820.886201,159.4437 L820.465233,162.109826 L820.465233,164.495307 C820.652331,164.869502 820.745878,165.056597 820.745878,165.056597 L821.026523,165.056597 L822.00878,164.635629 L822.991037,164.07434 L823.973294,163.232405 C824.628135,162.85821 825.282967,162.250152 825.937808,161.408214 C826.312003,161.034018 826.639419,160.683216 826.920065,160.355795 C827.200711,160.028375 827.481353,159.677572 827.762,159.303377 L831.129738,154.532415 C832.065225,153.035635 833.047473,151.351782 834.076509,149.480807 L837.02328,144.288877 C837.491024,143.446939 837.935373,142.581626 838.356343,141.692912 C838.777312,140.804199 839.221662,139.938886 839.689406,139.096948 C840.999088,136.196936 842.308751,133.320355 843.618434,130.467118 C844.928116,127.613881 846.237779,124.690527 847.547462,121.696967 C847.173267,121.884064 846.822464,122.024385 846.495044,122.117934 C846.167623,122.211483 845.770047,122.258256 845.302303,122.258256 C844.834559,122.351805 844.320049,122.305031 843.758756,122.117934 Z" id="Anthony-Budd"></path>
            <path d="M187.15918,358.181641 L187.15918,397 L180.333008,397 L180.333008,358.181641 L169.932617,358.181641 L169.932617,351.765625 L197.530273,351.765625 L197.530273,358.181641 L187.15918,358.181641 Z M207.163086,391.697266 L194.331055,368.464844 L201.977539,368.464844 L210.708008,384.871094 L218.852539,368.464844 L226.293945,368.464844 L203.55957,412.527344 L196.030273,412.527344 L207.163086,391.697266 Z M235.868164,412.527344 L229.276367,412.527344 L229.276367,368.464844 L235.868164,368.464844 L235.868164,371.570312 C238.465833,368.972643 241.415023,367.673828 244.71582,367.673828 C248.641621,367.673828 251.874011,369.119126 254.413086,372.009766 C256.991224,374.880874 258.280273,378.503884 258.280273,382.878906 C258.280273,387.156271 257.000989,390.720689 254.442383,393.572266 C251.903308,396.404311 248.700215,397.820312 244.833008,397.820312 C241.493147,397.820312 238.504896,396.482435 235.868164,393.806641 L235.868164,412.527344 Z M251.541992,382.908203 C251.541992,380.173814 250.799812,377.947274 249.31543,376.228516 C247.811516,374.490226 245.917004,373.621094 243.631836,373.621094 C241.209949,373.621094 239.247078,374.460929 237.743164,376.140625 C236.23925,377.820321 235.487305,380.02733 235.487305,382.761719 C235.487305,385.437513 236.23925,387.644523 237.743164,389.382812 C239.227546,391.08204 241.180652,391.931641 243.602539,391.931641 C245.887707,391.931641 247.772454,391.072274 249.256836,389.353516 C250.780281,387.634757 251.541992,385.486341 251.541992,382.908203 Z M289.739258,384.285156 L269.290039,384.285156 C269.465821,386.628918 270.227532,388.494134 271.575195,389.880859 C272.922858,391.248054 274.651357,391.931641 276.760742,391.931641 C278.401375,391.931641 279.758784,391.54102 280.833008,390.759766 C281.887701,389.978512 283.08886,388.533214 284.436523,386.423828 L290.00293,389.529297 C289.14355,390.994148 288.235356,392.249018 287.27832,393.293945 C286.321284,394.338872 285.295904,395.198239 284.202148,395.87207 C283.108393,396.545902 281.926764,397.039061 280.657227,397.351562 C279.387689,397.664064 278.01075,397.820312 276.526367,397.820312 C272.268533,397.820312 268.850599,396.453139 266.272461,393.71875 C263.694323,390.96483 262.405273,387.312523 262.405273,382.761719 C262.405273,378.249977 263.655261,374.59767 266.155273,371.804688 C268.674817,369.050767 272.014628,367.673828 276.174805,367.673828 C280.374044,367.673828 283.694324,369.011705 286.135742,371.6875 C288.557629,374.343763 289.768555,378.025367 289.768555,382.732422 L289.739258,384.285156 Z M282.97168,378.894531 C282.053706,375.378889 279.836932,373.621094 276.321289,373.621094 C275.520504,373.621094 274.768558,373.743163 274.06543,373.987305 C273.362301,374.231447 272.722659,374.583006 272.146484,375.041992 C271.57031,375.500979 271.07715,376.052731 270.666992,376.697266 C270.256834,377.3418 269.944337,378.074215 269.729492,378.894531 L282.97168,378.894531 Z M322.282227,358.503906 L316.745117,361.785156 C315.709956,359.988272 314.723637,358.816409 313.786133,358.269531 C312.809565,357.644528 311.549812,357.332031 310.006836,357.332031 C308.112295,357.332031 306.540045,357.869135 305.290039,358.943359 C304.040033,359.998052 303.415039,361.326164 303.415039,362.927734 C303.415039,365.134777 305.055648,366.912103 308.336914,368.259766 L312.848633,370.105469 C316.520526,371.589851 319.206046,373.401356 320.905273,375.540039 C322.604501,377.678722 323.454102,380.300766 323.454102,383.40625 C323.454102,387.566427 322.067397,391.003893 319.293945,393.71875 C316.500963,396.453139 313.0342,397.820312 308.893555,397.820312 C304.967754,397.820312 301.725599,396.658215 299.166992,394.333984 C296.647448,392.009754 295.075198,388.738302 294.450195,384.519531 L301.364258,382.996094 C301.676759,385.652357 302.223629,387.488276 303.004883,388.503906 C304.41114,390.457041 306.461901,391.433594 309.157227,391.433594 C311.286143,391.433594 313.053704,390.72071 314.459961,389.294922 C315.866218,387.869133 316.569336,386.062511 316.569336,383.875 C316.569336,382.996089 316.447267,382.190433 316.203125,381.458008 C315.958983,380.725582 315.578128,380.051761 315.060547,379.436523 C314.542966,378.821286 313.874028,378.24512 313.053711,377.708008 C312.233394,377.170896 311.256842,376.658206 310.124023,376.169922 L305.758789,374.353516 C299.567352,371.736315 296.47168,367.908228 296.47168,362.869141 C296.47168,359.470686 297.770495,356.628918 300.368164,354.34375 C302.965833,352.039051 306.198223,350.886719 310.06543,350.886719 C315.2803,350.886719 319.352524,353.425756 322.282227,358.503906 Z M351.133789,369.695312 L351.133789,378.455078 C349.629875,376.619131 348.282233,375.359378 347.09082,374.675781 C345.918939,373.972653 344.542,373.621094 342.959961,373.621094 C340.47948,373.621094 338.418954,374.490226 336.77832,376.228516 C335.137687,377.966806 334.317383,380.144518 334.317383,382.761719 C334.317383,385.437513 335.108391,387.634757 336.69043,389.353516 C338.292,391.072274 340.332995,391.931641 342.813477,391.931641 C344.395516,391.931641 345.791986,391.589847 347.00293,390.90625 C348.174811,390.242184 349.55175,388.953135 351.133789,387.039062 L351.133789,395.740234 C348.457994,397.12696 345.78224,397.820312 343.106445,397.820312 C338.692361,397.820312 335.000991,396.394546 332.032227,393.542969 C329.063462,390.671861 327.579102,387.107443 327.579102,382.849609 C327.579102,378.591776 329.082993,374.998062 332.09082,372.068359 C335.098648,369.138657 338.790017,367.673828 343.165039,367.673828 C345.977553,367.673828 348.633777,368.34765 351.133789,369.695312 Z M356.020508,368.464844 L362.612305,368.464844 L362.612305,371.013672 C363.823248,369.744134 364.897456,368.875002 365.834961,368.40625 C366.791997,367.917966 367.924798,367.673828 369.233398,367.673828 C370.971688,367.673828 372.788076,368.240229 374.682617,369.373047 L371.665039,375.408203 C370.415033,374.509761 369.194342,374.060547 368.00293,374.060547 C364.409162,374.060547 362.612305,376.775363 362.612305,382.205078 L362.612305,397 L356.020508,397 L356.020508,368.464844 Z M384.461914,368.464844 L384.461914,397 L377.870117,397 L377.870117,368.464844 L384.461914,368.464844 Z M376.874023,356.599609 C376.874023,355.44726 377.293941,354.451176 378.133789,353.611328 C378.973637,352.77148 379.979486,352.351562 381.151367,352.351562 C382.342779,352.351562 383.358394,352.77148 384.198242,353.611328 C385.03809,354.431645 385.458008,355.437494 385.458008,356.628906 C385.458008,357.820318 385.03809,358.835933 384.198242,359.675781 C383.377926,360.515629 382.372076,360.935547 381.180664,360.935547 C379.989252,360.935547 378.973637,360.515629 378.133789,359.675781 C377.293941,358.835933 376.874023,357.810553 376.874023,356.599609 Z M397.90332,412.527344 L391.311523,412.527344 L391.311523,368.464844 L397.90332,368.464844 L397.90332,371.570312 C400.50099,368.972643 403.450179,367.673828 406.750977,367.673828 C410.676777,367.673828 413.909167,369.119126 416.448242,372.009766 C419.02638,374.880874 420.31543,378.503884 420.31543,382.878906 C420.31543,387.156271 419.036146,390.720689 416.477539,393.572266 C413.938464,396.404311 410.735371,397.820312 406.868164,397.820312 C403.528304,397.820312 400.540052,396.482435 397.90332,393.806641 L397.90332,412.527344 Z M413.577148,382.908203 C413.577148,380.173814 412.834968,377.947274 411.350586,376.228516 C409.846672,374.490226 407.95216,373.621094 405.666992,373.621094 C403.245105,373.621094 401.282234,374.460929 399.77832,376.140625 C398.274407,377.820321 397.522461,380.02733 397.522461,382.761719 C397.522461,385.437513 398.274407,387.644523 399.77832,389.382812 C401.262703,391.08204 403.215808,391.931641 405.637695,391.931641 C407.922863,391.931641 409.80761,391.072274 411.291992,389.353516 C412.815437,387.634757 413.577148,385.486341 413.577148,382.908203 Z M433.112305,374.617188 L433.112305,397 L426.520508,397 L426.520508,374.617188 L423.708008,374.617188 L423.708008,368.464844 L426.520508,368.464844 L426.520508,358.005859 L433.112305,358.005859 L433.112305,368.464844 L438.239258,368.464844 L438.239258,374.617188 L433.112305,374.617188 Z M459.49707,397 L459.49707,351.765625 L468.989258,351.765625 C473.540062,351.765625 477.133776,352.214839 479.770508,353.113281 C482.602553,353.992192 485.170887,355.486318 487.475586,357.595703 C492.143578,361.853537 494.477539,367.449184 494.477539,374.382812 C494.477539,381.335972 492.045923,386.960916 487.182617,391.257812 C484.741199,393.406261 482.182631,394.900386 479.506836,395.740234 C477.006823,396.580082 473.461937,397 468.87207,397 L459.49707,397 Z M466.323242,390.583984 L469.399414,390.583984 C472.465836,390.583984 475.014638,390.261722 477.045898,389.617188 C479.077159,388.93359 480.913078,387.849617 482.553711,386.365234 C485.913103,383.298813 487.592773,379.304712 487.592773,374.382812 C487.592773,369.42185 485.932634,365.398453 482.612305,362.3125 C479.624008,359.55858 475.219756,358.181641 469.399414,358.181641 L466.323242,358.181641 L466.323242,390.583984 Z M526.288086,384.285156 L505.838867,384.285156 C506.014649,386.628918 506.77636,388.494134 508.124023,389.880859 C509.471686,391.248054 511.200185,391.931641 513.30957,391.931641 C514.950204,391.931641 516.307612,391.54102 517.381836,390.759766 C518.436529,389.978512 519.637689,388.533214 520.985352,386.423828 L526.551758,389.529297 C525.692379,390.994148 524.784184,392.249018 523.827148,393.293945 C522.870112,394.338872 521.844732,395.198239 520.750977,395.87207 C519.657221,396.545902 518.475592,397.039061 517.206055,397.351562 C515.936517,397.664064 514.559578,397.820312 513.075195,397.820312 C508.817362,397.820312 505.399427,396.453139 502.821289,393.71875 C500.243151,390.96483 498.954102,387.312523 498.954102,382.761719 C498.954102,378.249977 500.204089,374.59767 502.704102,371.804688 C505.223645,369.050767 508.563456,367.673828 512.723633,367.673828 C516.922873,367.673828 520.243152,369.011705 522.68457,371.6875 C525.106457,374.343763 526.317383,378.025367 526.317383,382.732422 L526.288086,384.285156 Z M519.520508,378.894531 C518.602534,375.378889 516.38576,373.621094 512.870117,373.621094 C512.069332,373.621094 511.317386,373.743163 510.614258,373.987305 C509.911129,374.231447 509.271487,374.583006 508.695312,375.041992 C508.119138,375.500979 507.625979,376.052731 507.21582,376.697266 C506.805662,377.3418 506.493165,378.074215 506.27832,378.894531 L519.520508,378.894531 Z M534.514648,368.464844 L541.897461,384.490234 L549.250977,368.464844 L556.663086,368.464844 L541.838867,398.962891 L527.131836,368.464844 L534.514648,368.464844 Z M584.577148,384.285156 L564.12793,384.285156 C564.303712,386.628918 565.065423,388.494134 566.413086,389.880859 C567.760749,391.248054 569.489247,391.931641 571.598633,391.931641 C573.239266,391.931641 574.596674,391.54102 575.670898,390.759766 C576.725591,389.978512 577.926751,388.533214 579.274414,386.423828 L584.84082,389.529297 C583.981441,390.994148 583.073247,392.249018 582.116211,393.293945 C581.159175,394.338872 580.133795,395.198239 579.040039,395.87207 C577.946284,396.545902 576.764655,397.039061 575.495117,397.351562 C574.22558,397.664064 572.84864,397.820312 571.364258,397.820312 C567.106424,397.820312 563.688489,396.453139 561.110352,393.71875 C558.532214,390.96483 557.243164,387.312523 557.243164,382.761719 C557.243164,378.249977 558.493152,374.59767 560.993164,371.804688 C563.512708,369.050767 566.852518,367.673828 571.012695,367.673828 C575.211935,367.673828 578.532214,369.011705 580.973633,371.6875 C583.39552,374.343763 584.606445,378.025367 584.606445,382.732422 L584.577148,384.285156 Z M577.80957,378.894531 C576.891597,375.378889 574.674822,373.621094 571.15918,373.621094 C570.358394,373.621094 569.606449,373.743163 568.90332,373.987305 C568.200192,374.231447 567.56055,374.583006 566.984375,375.041992 C566.4082,375.500979 565.915041,376.052731 565.504883,376.697266 C565.094725,377.3418 564.782228,378.074215 564.567383,378.894531 L577.80957,378.894531 Z M596.875977,347.517578 L596.875977,397 L590.28418,397 L590.28418,347.517578 L596.875977,347.517578 Z M602.37793,382.527344 C602.37793,378.406229 603.852524,374.900405 606.801758,372.009766 C609.750991,369.119126 613.344705,367.673828 617.583008,367.673828 C621.840842,367.673828 625.454087,369.128892 628.422852,372.039062 C631.352554,374.949233 632.817383,378.523416 632.817383,382.761719 C632.817383,387.039084 631.342788,390.623032 628.393555,393.513672 C625.42479,396.38478 621.782248,397.820312 617.46582,397.820312 C613.188455,397.820312 609.604507,396.355483 606.713867,393.425781 C603.823228,390.535142 602.37793,386.902366 602.37793,382.527344 Z M609.116211,382.644531 C609.116211,385.496108 609.877922,387.751945 611.401367,389.412109 C612.963875,391.091805 615.024401,391.931641 617.583008,391.931641 C620.161146,391.931641 622.221672,391.101571 623.764648,389.441406 C625.307625,387.781242 626.079102,385.564467 626.079102,382.791016 C626.079102,380.017564 625.307625,377.80079 623.764648,376.140625 C622.202141,374.460929 620.141614,373.621094 617.583008,373.621094 C615.063464,373.621094 613.022469,374.460929 611.459961,376.140625 C609.897453,377.820321 609.116211,379.988268 609.116211,382.644531 Z M644.881836,412.527344 L638.290039,412.527344 L638.290039,368.464844 L644.881836,368.464844 L644.881836,371.570312 C647.479505,368.972643 650.428694,367.673828 653.729492,367.673828 C657.655293,367.673828 660.887683,369.119126 663.426758,372.009766 C666.004896,374.880874 667.293945,378.503884 667.293945,382.878906 C667.293945,387.156271 666.014661,390.720689 663.456055,393.572266 C660.916979,396.404311 657.713887,397.820312 653.84668,397.820312 C650.506819,397.820312 647.518568,396.482435 644.881836,393.806641 L644.881836,412.527344 Z M660.555664,382.908203 C660.555664,380.173814 659.813484,377.947274 658.329102,376.228516 C656.825188,374.490226 654.930675,373.621094 652.645508,373.621094 C650.223621,373.621094 648.26075,374.460929 646.756836,376.140625 C645.252922,377.820321 644.500977,380.02733 644.500977,382.761719 C644.500977,385.437513 645.252922,387.644523 646.756836,389.382812 C648.241218,391.08204 650.194324,391.931641 652.616211,391.931641 C654.901379,391.931641 656.786125,391.072274 658.270508,389.353516 C659.793953,387.634757 660.555664,385.486341 660.555664,382.908203 Z M698.75293,384.285156 L678.303711,384.285156 C678.479493,386.628918 679.241204,388.494134 680.588867,389.880859 C681.93653,391.248054 683.665029,391.931641 685.774414,391.931641 C687.415047,391.931641 688.772456,391.54102 689.84668,390.759766 C690.901372,389.978512 692.102532,388.533214 693.450195,386.423828 L699.016602,389.529297 C698.157222,390.994148 697.249028,392.249018 696.291992,393.293945 C695.334956,394.338872 694.309576,395.198239 693.21582,395.87207 C692.122065,396.545902 690.940436,397.039061 689.670898,397.351562 C688.401361,397.664064 687.024421,397.820312 685.540039,397.820312 C681.282205,397.820312 677.864271,396.453139 675.286133,393.71875 C672.707995,390.96483 671.418945,387.312523 671.418945,382.761719 C671.418945,378.249977 672.668933,374.59767 675.168945,371.804688 C677.688489,369.050767 681.0283,367.673828 685.188477,367.673828 C689.387716,367.673828 692.707996,369.011705 695.149414,371.6875 C697.571301,374.343763 698.782227,378.025367 698.782227,382.732422 L698.75293,384.285156 Z M691.985352,378.894531 C691.067378,375.378889 688.850604,373.621094 685.334961,373.621094 C684.534176,373.621094 683.78223,373.743163 683.079102,373.987305 C682.375973,374.231447 681.736331,374.583006 681.160156,375.041992 C680.583981,375.500979 680.090822,376.052731 679.680664,376.697266 C679.270506,377.3418 678.958009,378.074215 678.743164,378.894531 L691.985352,378.894531 Z M704.459961,368.464844 L711.051758,368.464844 L711.051758,371.013672 C712.262701,369.744134 713.336909,368.875002 714.274414,368.40625 C715.23145,367.917966 716.364251,367.673828 717.672852,367.673828 C719.411142,367.673828 721.22753,368.240229 723.12207,369.373047 L720.104492,375.408203 C718.854486,374.509761 717.633795,374.060547 716.442383,374.060547 C712.848615,374.060547 711.051758,376.775363 711.051758,382.205078 L711.051758,397 L704.459961,397 L704.459961,368.464844 Z" id="TypeScript-Developer"></path>
        </g>
    </g>
</svg>